Pfont-Regular.ufo
<glyph name="exclam" format="1">
  <advance width="547"/>
  <unicode hex="0021"/>
  <outline>
    <contour>
      <point x="313" y="439" type="line"/>
      <point x="325" y="445"/>
      <point x="331" y="454"/>
      <point x="331" y="468" type="curve" smooth="yes"/>
      <point x="326" y="1408" type="line" smooth="yes"/>
      <point x="326" y="1423"/>
      <point x="318" y="1434"/>
      <point x="304" y="1433" type="curve"/>
      <point x="161" y="1385" type="line"/>
      <point x="147" y="1381"/>
      <point x="140" y="1370"/>
      <point x="141" y="1356" type="curve" smooth="yes"/>
      <point x="193" y="398" type="line" smooth="yes"/>
      <point x="193" y="391"/>
      <point x="200" y="387"/>
      <point x="206" y="387" type="curve"/>
    </contour>
    <component base="period" xOffset="36" yOffset="-26" xScale="0.803" yScale="0.803"/>
  </outline>
</glyph>
<glyph name="numbersign" format="1">
  <advance width="1404"/>
  <unicode hex="0023"/>
  <outline>
    <contour>
      <point x="430" y="-164" type="line" smooth="yes"/>
      <point x="444" y="-164"/>
      <point x="456" y="-154"/>
      <point x="457" y="-141" type="curve" smooth="yes"/>
      <point x="508" y="207" type="line"/>
      <point x="761" y="207" type="line"/>
      <point x="711" y="-133" type="line" smooth="yes"/>
      <point x="708" y="-149"/>
      <point x="722" y="-164"/>
      <point x="740" y="-164" type="curve" smooth="yes"/>
      <point x="815" y="-164" type="line" smooth="yes"/>
      <point x="829" y="-164"/>
      <point x="841" y="-155"/>
      <point x="843" y="-142" type="curve" smooth="yes"/>
      <point x="893" y="207" type="line"/>
      <point x="1160" y="207" type="line" smooth="yes"/>
      <point x="1173" y="207"/>
      <point x="1185" y="216"/>
      <point x="1187" y="229" type="curve" smooth="yes"/>
      <point x="1199" y="300" type="line" smooth="yes"/>
      <point x="1202" y="318"/>
      <point x="1189" y="334"/>
      <point x="1171" y="334" type="curve" smooth="yes"/>
      <point x="912" y="334" type="line"/>
      <point x="960" y="669" type="line"/>
      <point x="1246" y="669" type="line" smooth="yes"/>
      <point x="1259" y="669"/>
      <point x="1269" y="677"/>
      <point x="1272" y="691" type="curve" smooth="yes"/>
      <point x="1284" y="762" type="line" smooth="yes"/>
      <point x="1287" y="780"/>
      <point x="1274" y="796"/>
      <point x="1256" y="796" type="curve" smooth="yes"/>
      <point x="979" y="796" type="line"/>
      <point x="1030" y="1151" type="line" smooth="yes"/>
      <point x="1032" y="1168"/>
      <point x="1019" y="1183"/>
      <point x="1002" y="1183" type="curve" smooth="yes"/>
      <point x="926" y="1183" type="line" smooth="yes"/>
      <point x="913" y="1183"/>
      <point x="901" y="1173"/>
      <point x="899" y="1159" type="curve" smooth="yes"/>
      <point x="846" y="796" type="line"/>
      <point x="594" y="796" type="line"/>
      <point x="645" y="1151" type="line" smooth="yes"/>
      <point x="648" y="1168"/>
      <point x="635" y="1183"/>
      <point x="616" y="1183" type="curve" smooth="yes"/>
      <point x="541" y="1183" type="line" smooth="yes"/>
      <point x="527" y="1183"/>
      <point x="515" y="1172"/>
      <point x="513" y="1159" type="curve" smooth="yes"/>
      <point x="461" y="796" type="line"/>
      <point x="228" y="796" type="line" smooth="yes"/>
      <point x="214" y="796"/>
      <point x="202" y="785"/>
      <point x="200" y="772" type="curve" smooth="yes"/>
      <point x="190" y="701" type="line" smooth="yes"/>
      <point x="187" y="684"/>
      <point x="201" y="669"/>
      <point x="219" y="669" type="curve" smooth="yes"/>
      <point x="443" y="669" type="line"/>
      <point x="395" y="334" type="line"/>
      <point x="158" y="334" type="line" smooth="yes"/>
      <point x="144" y="334"/>
      <point x="132" y="323"/>
      <point x="130" y="310" type="curve" smooth="yes"/>
      <point x="120" y="239" type="line" smooth="yes"/>
      <point x="118" y="222"/>
      <point x="130" y="207"/>
      <point x="148" y="207" type="curve" smooth="yes"/>
      <point x="375" y="207" type="line"/>
      <point x="326" y="-133" type="line" smooth="yes"/>
      <point x="323" y="-149"/>
      <point x="337" y="-164"/>
      <point x="354" y="-164" type="curve" smooth="yes"/>
    </contour>
    <contour>
      <point x="576" y="669" type="line"/>
      <point x="827" y="669" type="line"/>
      <point x="780" y="334" type="line"/>
      <point x="527" y="334" type="line"/>
    </contour>
  </outline>
</glyph>
<glyph name="quotesingle" format="1">
  <advance width="396"/>
  <unicode hex="0027"/>
  <outline>
    <contour>
      <point x="225" y="1147" type="line" smooth="yes"/>
      <point x="239" y="1147"/>
      <point x="242" y="1150"/>
      <point x="243" y="1160" type="curve" smooth="yes"/>
      <point x="276" y="1653" type="line" smooth="yes"/>
      <point x="277" y="1664"/>
      <point x="270" y="1672"/>
      <point x="260" y="1672" type="curve" smooth="yes"/>
      <point x="140" y="1672" type="line" smooth="yes"/>
      <point x="128" y="1672"/>
      <point x="122" y="1666"/>
      <point x="122" y="1656" type="curve" smooth="yes"/>
      <point x="120" y="1165" type="line" smooth="yes"/>
      <point x="120" y="1155"/>
      <point x="125" y="1147"/>
      <point x="133" y="1147" type="curve" smooth="yes"/>
    </contour>
  </outline>
</glyph>
<glyph name="parenleft" format="1">
  <advance width="728"/>
  <unicode hex="0028"/>
  <outline>
    <contour>
      <point x="563" y="-345" type="line" smooth="yes"/>
      <point x="579" y="-345"/>
      <point x="588" y="-336"/>
      <point x="588" y="-325" type="curve" smooth="yes"/>
      <point x="588" y="-236"/>
      <point x="321" y="26"/>
      <point x="321" y="521" type="curve" smooth="yes"/>
      <point x="321" y="1011"/>
      <point x="587" y="1255"/>
      <point x="587" y="1345" type="curve" smooth="yes"/>
      <point x="587" y="1355"/>
      <point x="578" y="1364"/>
      <point x="562" y="1364" type="curve" smooth="yes"/>
      <point x="483" y="1364" type="line" smooth="yes"/>
      <point x="472" y="1364"/>
      <point x="463" y="1361"/>
      <point x="455" y="1351" type="curve" smooth="yes"/>
      <point x="245" y="1068"/>
      <point x="140" y="786"/>
      <point x="140" y="505" type="curve" smooth="yes"/>
      <point x="140" y="225"/>
      <point x="245" y="-54"/>
      <point x="455" y="-331" type="curve" smooth="yes"/>
      <point x="463" y="-341"/>
      <point x="471" y="-345"/>
      <point x="483" y="-345" type="curve" smooth="yes"/>
    </contour>
  </outline>
</glyph>
<glyph name="parenright" format="1">
  <advance width="728"/>
  <unicode hex="0029"/>
  <outline>
    <contour>
      <point x="244" y="-345" type="line" smooth="yes"/>
      <point x="256" y="-345"/>
      <point x="265" y="-341"/>
      <point x="273" y="-332" type="curve" smooth="yes"/>
      <point x="483" y="-55"/>
      <point x="588" y="224"/>
      <point x="588" y="505" type="curve" smooth="yes"/>
      <point x="588" y="785"/>
      <point x="483" y="1067"/>
      <point x="273" y="1350" type="curve" smooth="yes"/>
      <point x="268" y="1357"/>
      <point x="259" y="1364"/>
      <point x="244" y="1364" type="curve" smooth="yes"/>
      <point x="166" y="1364" type="line" smooth="yes"/>
      <point x="151" y="1364"/>
      <point x="142" y="1355"/>
      <point x="142" y="1344" type="curve" smooth="yes"/>
      <point x="142" y="1257"/>
      <point x="407" y="1014"/>
      <point x="407" y="521" type="curve" smooth="yes"/>
      <point x="407" y="32"/>
      <point x="140" y="-256"/>
      <point x="140" y="-324" type="curve" smooth="yes"/>
      <point x="140" y="-336"/>
      <point x="150" y="-345"/>
      <point x="165" y="-345" type="curve" smooth="yes"/>
    </contour>
  </outline>
</glyph>
<glyph name="asterisk" format="1">
  <advance width="896"/>
  <unicode hex="002A"/>
  <outline>
    <contour>
      <point x="503" y="142" type="curve" smooth="yes"/>
      <point x="495" y="322" type="line"/>
      <point x="616" y="189" type="line" smooth="yes"/>
      <point x="636" y="167"/>
      <point x="673" y="166"/>
      <point x="695" y="187" type="curve"/>
      <point x="715" y="209"/>
      <point x="715" y="245"/>
      <point x="694" y="266" type="curve"/>
      <point x="560" y="387" type="line"/>
      <point x="740" y="379" type="line" smooth="yes"/>
      <point x="770" y="377"/>
      <point x="797" y="403"/>
      <point x="796" y="434" type="curve"/>
      <point x="796" y="465"/>
      <point x="771" y="490"/>
      <point x="740" y="489" type="curve" smooth="yes"/>
      <point x="560" y="481" type="line"/>
      <point x="694" y="602" type="line" smooth="yes"/>
      <point x="715" y="622"/>
      <point x="716" y="659"/>
      <point x="695" y="681" type="curve"/>
      <point x="673" y="701"/>
      <point x="637" y="701"/>
      <point x="616" y="679" type="curve" smooth="yes"/>
      <point x="498" y="550" type="line"/>
      <point x="506" y="726" type="line"/>
      <point x="509" y="756"/>
      <point x="482" y="783"/>
      <point x="451" y="782" type="curve" smooth="yes"/>
      <point x="421" y="782"/>
      <point x="396" y="757"/>
      <point x="397" y="726" type="curve" smooth="yes"/>
      <point x="404" y="549" type="line"/>
      <point x="282" y="682" type="line" smooth="yes"/>
      <point x="263" y="703"/>
      <point x="225" y="705"/>
      <point x="205" y="683" type="curve"/>
      <point x="183" y="661"/>
      <point x="183" y="625"/>
      <point x="205" y="604" type="curve" smooth="yes"/>
      <point x="340" y="481" type="line"/>
      <point x="156" y="489" type="line" smooth="yes"/>
      <point x="126" y="491"/>
      <point x="99" y="465"/>
      <point x="100" y="434" type="curve" smooth="yes"/>
      <point x="100" y="403"/>
      <point x="125" y="378"/>
      <point x="156" y="379" type="curve" smooth="yes"/>
      <point x="336" y="387" type="line"/>
      <point x="203" y="266" type="line"/>
      <point x="180" y="247"/>
      <point x="180" y="209"/>
      <point x="201" y="187" type="curve"/>
      <point x="223" y="167"/>
      <point x="259" y="167"/>
      <point x="280" y="189" type="curve" smooth="yes"/>
      <point x="401" y="322" type="line"/>
      <point x="393" y="142" type="line" smooth="yes"/>
      <point x="391" y="112"/>
      <point x="417" y="85"/>
      <point x="448" y="86" type="curve" smooth="yes"/>
      <point x="479" y="86"/>
      <point x="504" y="111"/>
    </contour>
    <contour>
      <point x="372" y="434" type="curve" smooth="yes"/>
      <point x="372" y="475"/>
      <point x="407" y="510"/>
      <point x="448" y="510" type="curve" smooth="yes"/>
      <point x="489" y="510"/>
      <point x="524" y="475"/>
      <point x="524" y="434" type="curve" smooth="yes"/>
      <point x="524" y="394"/>
      <point x="488" y="358"/>
      <point x="448" y="358" type="curve" smooth="yes"/>
      <point x="407" y="358"/>
      <point x="372" y="393"/>
    </contour>
  </outline>
</glyph>
<glyph name="plus" format="1">
  <advance width="1228"/>
  <unicode hex="002B"/>
  <outline>
    <contour>
      <point x="706" y="45" type="line"/>
      <point x="699" y="435" type="line"/>
      <point x="1108" y="435" type="line"/>
      <point x="1108" y="610" type="line"/>
      <point x="703" y="610" type="line"/>
      <point x="700" y="976" type="line"/>
      <point x="521" y="975" type="line"/>
      <point x="528" y="610" type="line"/>
      <point x="120" y="610" type="line"/>
      <point x="120" y="435" type="line"/>
      <point x="528" y="435" type="line"/>
      <point x="535" y="43" type="line"/>
    </contour>
  </outline>
</glyph>
<glyph name="comma" format="1">
  <advance width="474"/>
  <unicode hex="002C"/>
  <outline>
    <contour>
      <point x="330" y="-114"/>
      <point x="353" y="-42"/>
      <point x="354" y="207" type="curve" smooth="yes"/>
      <point x="354" y="223"/>
      <point x="343" y="235"/>
      <point x="327" y="235" type="curve" smooth="yes"/>
      <point x="147" y="235" type="line" smooth="yes"/>
      <point x="132" y="235"/>
      <point x="120" y="223"/>
      <point x="120" y="208" type="curve" smooth="yes"/>
      <point x="120" y="27" type="line" smooth="yes"/>
      <point x="120" y="12"/>
      <point x="132" y="0"/>
      <point x="147" y="0" type="curve" smooth="yes"/>
      <point x="243" y="0" type="line" smooth="yes"/>
      <point x="248" y="0"/>
      <point x="250" y="-1"/>
      <point x="250" y="-4" type="curve"/>
      <point x="243" y="-54"/>
      <point x="219" y="-96"/>
      <point x="172" y="-142" type="curve" smooth="yes"/>
      <point x="166" y="-148"/>
      <point x="163" y="-155"/>
      <point x="163" y="-162" type="curve" smooth="yes"/>
      <point x="163" y="-168"/>
      <point x="165" y="-174"/>
      <point x="169" y="-179" type="curve" smooth="yes"/>
      <point x="183" y="-197" type="line" smooth="yes"/>
      <point x="190" y="-205"/>
      <point x="198" y="-210"/>
      <point x="206" y="-210" type="curve" smooth="yes"/>
      <point x="211" y="-210"/>
      <point x="216" y="-208"/>
      <point x="221" y="-204" type="curve" smooth="yes"/>
    </contour>
  </outline>
</glyph>
<glyph name="hyphen" format="1">
  <advance width="870"/>
  <unicode hex="002D"/>
  <outline>
    <contour>
      <point x="722" y="437" type="line" smooth="yes"/>
      <point x="738" y="437"/>
      <point x="750" y="448"/>
      <point x="750" y="464" type="curve" smooth="yes"/>
      <point x="750" y="554" type="line" smooth="yes"/>
      <point x="750" y="570"/>
      <point x="738" y="581"/>
      <point x="722" y="581" type="curve" smooth="yes"/>
      <point x="147" y="581" type="line" smooth="yes"/>
      <point x="132" y="581"/>
      <point x="120" y="569"/>
      <point x="120" y="554" type="curve" smooth="yes"/>
      <point x="120" y="464" type="line" smooth="yes"/>
      <point x="120" y="449"/>
      <point x="132" y="437"/>
      <point x="147" y="437" type="curve" smooth="yes"/>
    </contour>
  </outline>
</glyph>
<glyph name="period" format="1">
  <advance width="622"/>
  <unicode hex="002E"/>
  <outline>
    <contour>
      <point x="342" y="-70" type="curve" smooth="yes"/>
      <point x="355" y="-70"/>
      <point x="367" y="-63"/>
      <point x="377" y="-50" type="curve" smooth="yes"/>
      <point x="470" y="79" type="line" smooth="yes"/>
      <point x="491" y="109"/>
      <point x="502" y="130"/>
      <point x="502" y="147" type="curve" smooth="yes"/>
      <point x="502" y="167"/>
      <point x="488" y="183"/>
      <point x="458" y="204" type="curve"/>
      <point x="311" y="301" type="line"/>
      <point x="304" y="306"/>
      <point x="296" y="308"/>
      <point x="288" y="308" type="curve" smooth="yes"/>
      <point x="275" y="308"/>
      <point x="261" y="300"/>
      <point x="251" y="286" type="curve" smooth="yes"/>
      <point x="129" y="108" type="line" smooth="yes"/>
      <point x="123" y="98"/>
      <point x="120" y="89"/>
      <point x="120" y="81" type="curve" smooth="yes"/>
      <point x="120" y="68"/>
      <point x="127" y="56"/>
      <point x="142" y="47" type="curve" smooth="yes"/>
      <point x="316" y="-62" type="line" smooth="yes"/>
      <point x="325" y="-67"/>
      <point x="334" y="-70"/>
    </contour>
  </outline>
</glyph>
<glyph name="slash" format="1">
  <advance width="886"/>
  <unicode hex="002F"/>
  <outline>
    <contour>
      <point x="185" y="-342" type="line" smooth="yes"/>
      <point x="190" y="-342"/>
      <point x="195" y="-339"/>
      <point x="197" y="-333" type="curve" smooth="yes"/>
      <point x="785" y="1186" type="line" smooth="yes"/>
      <point x="790" y="1199"/>
      <point x="781" y="1210"/>
      <point x="768" y="1210" type="curve" smooth="yes"/>
      <point x="701" y="1210" type="line" smooth="yes"/>
      <point x="696" y="1210"/>
      <point x="691" y="1207"/>
      <point x="689" y="1201" type="curve" smooth="yes"/>
      <point x="101" y="-318" type="line" smooth="yes"/>
      <point x="96" y="-331"/>
      <point x="105" y="-342"/>
      <point x="118" y="-342" type="curve" smooth="yes"/>
    </contour>
  </outline>
</glyph>
<glyph name="semicolon" format="1">
  <advance width="541"/>
  <unicode hex="003B"/>
  <outline>
    <contour>
      <point x="221" y="-90" type="line"/>
      <point x="238" y="-93"/>
      <point x="251" y="-80"/>
      <point x="260" y="-63" type="curve" smooth="yes"/>
      <point x="319" y="51" type="line" smooth="yes"/>
      <point x="363" y="136"/>
      <point x="419" y="240"/>
      <point x="419" y="336" type="curve" smooth="yes"/>
      <point x="419" y="410"/>
      <point x="387" y="479"/>
      <point x="292" y="533" type="curve" smooth="yes"/>
      <point x="284" y="537"/>
      <point x="276" y="540"/>
      <point x="268" y="540" type="curve" smooth="yes"/>
      <point x="253" y="540"/>
      <point x="240" y="531"/>
      <point x="231" y="515" type="curve" smooth="yes"/>
      <point x="173" y="411" type="line" smooth="yes"/>
      <point x="168" y="402"/>
      <point x="166" y="394"/>
      <point x="166" y="386" type="curve" smooth="yes"/>
      <point x="166" y="372"/>
      <point x="174" y="360"/>
      <point x="189" y="351" type="curve" smooth="yes"/>
      <point x="239" y="323"/>
      <point x="279" y="294"/>
      <point x="279" y="238" type="curve" smooth="yes"/>
      <point x="279" y="206"/>
      <point x="266" y="166"/>
      <point x="236" y="113" type="curve" smooth="yes"/>
      <point x="162" y="-17" type="line" smooth="yes"/>
      <point x="158" y="-25"/>
      <point x="155" y="-33"/>
      <point x="155" y="-40" type="curve" smooth="yes"/>
      <point x="155" y="-56"/>
      <point x="165" y="-69"/>
      <point x="183" y="-77" type="curve"/>
    </contour>
    <component base="period" xOffset="20" yOffset="872" xScale="0.795" yScale="0.795"/>
  </outline>
</glyph>
<glyph name="less" format="1">
  <advance width="1175"/>
  <unicode hex="003C"/>
  <outline>
    <contour>
      <point x="1055" y="119" type="line"/>
      <point x="278" y="510" type="line"/>
      <point x="1055" y="900" type="line"/>
      <point x="1055" y="1049" type="line"/>
      <point x="120" y="580" type="line"/>
      <point x="120" y="440" type="line"/>
      <point x="1055" y="-30" type="line"/>
    </contour>
  </outline>
</glyph>
<glyph name="equal" format="1">
  <advance width="896"/>
  <unicode hex="003D"/>
  <outline>
    <contour>
      <point x="796" y="529" type="line"/>
      <point x="796" y="640" type="line"/>
      <point x="100" y="640" type="line"/>
      <point x="100" y="529" type="line"/>
    </contour>
    <contour>
      <point x="796" y="229" type="line"/>
      <point x="796" y="340" type="line"/>
      <point x="100" y="340" type="line"/>
      <point x="100" y="229" type="line"/>
    </contour>
  </outline>
</glyph>
<glyph name="greater" format="1">
  <advance width="1175"/>
  <unicode hex="003E"/>
  <outline>
    <contour>
      <point x="1055" y="440" type="line"/>
      <point x="1055" y="580" type="line"/>
      <point x="120" y="1049" type="line"/>
      <point x="120" y="900" type="line"/>
      <point x="897" y="510" type="line"/>
      <point x="120" y="119" type="line"/>
      <point x="120" y="-30" type="line"/>
    </contour>
  </outline>
</glyph>
<glyph name="at" format="1">
  <advance width="1479"/>
  <unicode hex="0040"/>
  <outline>
    <contour>
      <point x="1068" y="-36" type="curve"/>
      <point x="1030" y="66" type="line"/>
      <point x="957" y="33"/>
      <point x="871" y="17"/>
      <point x="774" y="17" type="curve" smooth="yes"/>
      <point x="442" y="17"/>
      <point x="250" y="188"/>
      <point x="250" y="482" type="curve" smooth="yes"/>
      <point x="250" y="783"/>
      <point x="463" y="1003"/>
      <point x="756" y="1003" type="curve" smooth="yes"/>
      <point x="989" y="1003"/>
      <point x="1188" y="855"/>
      <point x="1188" y="623" type="curve" smooth="yes"/>
      <point x="1188" y="491"/>
      <point x="1073" y="292"/>
      <point x="959" y="292" type="curve" smooth="yes"/>
      <point x="912" y="292"/>
      <point x="928" y="343"/>
      <point x="945" y="417" type="curve" smooth="yes"/>
      <point x="1036" y="841" type="line"/>
      <point x="909" y="861" type="line"/>
      <point x="887" y="763" type="line"/>
      <point x="841" y="826"/>
      <point x="777" y="861"/>
      <point x="705" y="861" type="curve" smooth="yes"/>
      <point x="522" y="861"/>
      <point x="379" y="655"/>
      <point x="379" y="455" type="curve" smooth="yes"/>
      <point x="379" y="296"/>
      <point x="465" y="169"/>
      <point x="614" y="169" type="curve" smooth="yes"/>
      <point x="680" y="169"/>
      <point x="747" y="201"/>
      <point x="805" y="260" type="curve"/>
      <point x="818" y="209"/>
      <point x="866" y="168"/>
      <point x="918" y="168" type="curve" smooth="yes"/>
      <point x="1112" y="168"/>
      <point x="1299" y="389"/>
      <point x="1299" y="622" type="curve" smooth="yes"/>
      <point x="1299" y="914"/>
      <point x="1069" y="1114"/>
      <point x="761" y="1114" type="curve" smooth="yes"/>
      <point x="391" y="1114"/>
      <point x="140" y="842"/>
      <point x="140" y="472" type="curve" smooth="yes"/>
      <point x="140" y="119"/>
      <point x="381" y="-95"/>
      <point x="775" y="-95" type="curve" smooth="yes"/>
      <point x="889" y="-95"/>
      <point x="984" y="-76"/>
    </contour>
    <contour>
      <point x="713" y="750" type="curve" smooth="yes"/>
      <point x="794" y="750"/>
      <point x="858" y="678"/>
      <point x="858" y="583" type="curve" smooth="yes"/>
      <point x="858" y="381"/>
      <point x="737" y="277"/>
      <point x="636" y="277" type="curve" smooth="yes"/>
      <point x="562" y="277"/>
      <point x="499" y="331"/>
      <point x="499" y="441" type="curve" smooth="yes"/>
      <point x="499" y="578"/>
      <point x="593" y="750"/>
    </contour>
  </outline>
</glyph>
<glyph name="bracketleft" format="1">
  <advance width="544"/>
  <unicode hex="005B"/>
  <outline>
    <contour>
      <point x="409" y="-472" type="line" smooth="yes"/>
      <point x="417" y="-472"/>
      <point x="424" y="-465"/>
      <point x="424" y="-457" type="curve" smooth="yes"/>
      <point x="424" y="-408" type="line" smooth="yes"/>
      <point x="424" y="-400"/>
      <point x="417" y="-393"/>
      <point x="409" y="-393" type="curve" smooth="yes"/>
      <point x="229" y="-393" type="line"/>
      <point x="229" y="1262" type="line"/>
      <point x="409" y="1262" type="line" smooth="yes"/>
      <point x="417" y="1262"/>
      <point x="424" y="1269"/>
      <point x="424" y="1277" type="curve" smooth="yes"/>
      <point x="424" y="1326" type="line" smooth="yes"/>
      <point x="424" y="1334"/>
      <point x="417" y="1341"/>
      <point x="409" y="1341" type="curve" smooth="yes"/>
      <point x="135" y="1341" type="line" smooth="yes"/>
      <point x="127" y="1341"/>
      <point x="120" y="1334"/>
      <point x="120" y="1326" type="curve" smooth="yes"/>
      <point x="120" y="-457" type="line" smooth="yes"/>
      <point x="120" y="-465"/>
      <point x="127" y="-472"/>
      <point x="135" y="-472" type="curve" smooth="yes"/>
    </contour>
  </outline>
</glyph>
<glyph name="backslash" format="1">
  <advance width="1051"/>
  <unicode hex="005C"/>
  <outline>
    <contour>
      <point x="899" y="-393" type="line" smooth="yes"/>
      <point x="917" y="-393"/>
      <point x="934" y="-383"/>
      <point x="931" y="-364" type="curve"/>
      <point x="252" y="1395" type="line"/>
      <point x="248" y="1405"/>
      <point x="239" y="1412"/>
      <point x="229" y="1412" type="curve" smooth="yes"/>
      <point x="152" y="1412" type="line" smooth="yes"/>
      <point x="134" y="1412"/>
      <point x="119" y="1399"/>
      <point x="120" y="1382" type="curve"/>
      <point x="799" y="-377" type="line"/>
      <point x="803" y="-387"/>
      <point x="812" y="-393"/>
      <point x="822" y="-393" type="curve" smooth="yes"/>
    </contour>
  </outline>
</glyph>
<glyph name="bracketright" format="1">
  <advance width="650"/>
  <unicode hex="005D"/>
  <outline>
    <contour>
      <point x="482" y="-543" type="line" smooth="yes"/>
      <point x="497" y="-543"/>
      <point x="510" y="-531"/>
      <point x="510" y="-516" type="curve" smooth="yes"/>
      <point x="510" y="1535" type="line" smooth="yes"/>
      <point x="510" y="1550"/>
      <point x="497" y="1562"/>
      <point x="482" y="1562" type="curve" smooth="yes"/>
      <point x="167" y="1562" type="line" smooth="yes"/>
      <point x="153" y="1562"/>
      <point x="140" y="1549"/>
      <point x="140" y="1535" type="curve" smooth="yes"/>
      <point x="140" y="1479" type="line" smooth="yes"/>
      <point x="140" y="1464"/>
      <point x="152" y="1451"/>
      <point x="167" y="1451" type="curve" smooth="yes"/>
      <point x="364" y="1451" type="line"/>
      <point x="364" y="-432" type="line"/>
      <point x="167" y="-432" type="line" smooth="yes"/>
      <point x="153" y="-432"/>
      <point x="140" y="-445"/>
      <point x="140" y="-459" type="curve" smooth="yes"/>
      <point x="140" y="-516" type="line" smooth="yes"/>
      <point x="140" y="-530"/>
      <point x="153" y="-543"/>
      <point x="167" y="-543" type="curve" smooth="yes"/>
    </contour>
  </outline>
</glyph>
<glyph name="asciicircum" format="1">
  <advance width="1381"/>
  <unicode hex="005E"/>
  <outline>
    <contour>
      <point x="289" y="631" type="line"/>
      <point x="690" y="1576" type="line"/>
      <point x="1093" y="631" type="line"/>
      <point x="1261" y="631" type="line"/>
      <point x="784" y="1767" type="line"/>
      <point x="597" y="1767" type="line"/>
      <point x="120" y="631" type="line"/>
    </contour>
  </outline>
</glyph>
<glyph name="underscore" format="1">
  <advance width="1050"/>
  <unicode hex="005F"/>
  <outline>
    <contour>
      <point x="1050" y="-286" type="line"/>
      <point x="1050" y="-153" type="line"/>
      <point x="0" y="-153" type="line"/>
      <point x="0" y="-286" type="line"/>
    </contour>
  </outline>
</glyph>
<glyph name="braceleft" format="1">
  <advance width="671"/>
  <unicode hex="007B"/>
  <outline>
    <contour>
      <point x="536" y="-474" type="line" smooth="yes"/>
      <point x="544" y="-474"/>
      <point x="551" y="-467"/>
      <point x="551" y="-459" type="curve" smooth="yes"/>
      <point x="551" y="-410" type="line" smooth="yes"/>
      <point x="551" y="-402"/>
      <point x="544" y="-395"/>
      <point x="536" y="-395" type="curve" smooth="yes"/>
      <point x="387" y="-395" type="line" smooth="yes"/>
      <point x="370" y="-395"/>
      <point x="356" y="-381"/>
      <point x="356" y="-364" type="curve" smooth="yes"/>
      <point x="356" y="195" type="line" smooth="yes"/>
      <point x="356" y="310"/>
      <point x="289" y="377"/>
      <point x="237" y="434" type="curve"/>
      <point x="289" y="491"/>
      <point x="356" y="558"/>
      <point x="356" y="673" type="curve" smooth="yes"/>
      <point x="356" y="1232" type="line" smooth="yes"/>
      <point x="356" y="1249"/>
      <point x="370" y="1263"/>
      <point x="387" y="1263" type="curve" smooth="yes"/>
      <point x="536" y="1263" type="line" smooth="yes"/>
      <point x="544" y="1263"/>
      <point x="551" y="1270"/>
      <point x="551" y="1278" type="curve" smooth="yes"/>
      <point x="551" y="1327" type="line" smooth="yes"/>
      <point x="551" y="1335"/>
      <point x="544" y="1342"/>
      <point x="536" y="1342" type="curve" smooth="yes"/>
      <point x="367" y="1342" type="line" smooth="yes"/>
      <point x="289" y="1342"/>
      <point x="247" y="1300"/>
      <point x="247" y="1222" type="curve" smooth="yes"/>
      <point x="247" y="701" type="line" smooth="yes"/>
      <point x="247" y="546"/>
      <point x="216" y="531"/>
      <point x="123" y="442" type="curve"/>
      <point x="118" y="438"/>
      <point x="119" y="431"/>
      <point x="123" y="426" type="curve"/>
      <point x="216" y="326"/>
      <point x="247" y="313"/>
      <point x="247" y="148" type="curve" smooth="yes"/>
      <point x="247" y="-354" type="line" smooth="yes"/>
      <point x="247" y="-432"/>
      <point x="289" y="-474"/>
      <point x="367" y="-474" type="curve" smooth="yes"/>
    </contour>
  </outline>
</glyph>
<glyph name="bar" format="1">
  <advance width="380"/>
  <unicode hex="007C"/>
  <outline>
    <contour>
      <point x="260" y="-521" type="line"/>
      <point x="260" y="1500" type="line"/>
      <point x="120" y="1500" type="line"/>
      <point x="120" y="-521" type="line"/>
    </contour>
  </outline>
</glyph>
<glyph name="braceright" format="1">
  <advance width="671"/>
  <unicode hex="007D"/>
  <outline>
    <contour>
      <point x="304" y="-474" type="line" smooth="yes"/>
      <point x="382" y="-474"/>
      <point x="424" y="-432"/>
      <point x="424" y="-354" type="curve" smooth="yes"/>
      <point x="424" y="148" type="line" smooth="yes"/>
      <point x="424" y="313"/>
      <point x="455" y="326"/>
      <point x="548" y="426" type="curve"/>
      <point x="552" y="431"/>
      <point x="553" y="438"/>
      <point x="548" y="442" type="curve"/>
      <point x="455" y="531"/>
      <point x="424" y="546"/>
      <point x="424" y="701" type="curve" smooth="yes"/>
      <point x="424" y="1222" type="line" smooth="yes"/>
      <point x="424" y="1300"/>
      <point x="382" y="1342"/>
      <point x="304" y="1342" type="curve" smooth="yes"/>
      <point x="135" y="1342" type="line" smooth="yes"/>
      <point x="127" y="1342"/>
      <point x="120" y="1335"/>
      <point x="120" y="1327" type="curve" smooth="yes"/>
      <point x="120" y="1278" type="line" smooth="yes"/>
      <point x="120" y="1270"/>
      <point x="127" y="1263"/>
      <point x="135" y="1263" type="curve" smooth="yes"/>
      <point x="284" y="1263" type="line" smooth="yes"/>
      <point x="301" y="1263"/>
      <point x="315" y="1249"/>
      <point x="315" y="1232" type="curve" smooth="yes"/>
      <point x="315" y="673" type="line" smooth="yes"/>
      <point x="315" y="558"/>
      <point x="382" y="491"/>
      <point x="434" y="434" type="curve"/>
      <point x="382" y="377"/>
      <point x="315" y="310"/>
      <point x="315" y="195" type="curve" smooth="yes"/>
      <point x="315" y="-364" type="line" smooth="yes"/>
      <point x="315" y="-381"/>
      <point x="301" y="-395"/>
      <point x="284" y="-395" type="curve" smooth="yes"/>
      <point x="135" y="-395" type="line" smooth="yes"/>
      <point x="127" y="-395"/>
      <point x="120" y="-402"/>
      <point x="120" y="-410" type="curve" smooth="yes"/>
      <point x="120" y="-459" type="line" smooth="yes"/>
      <point x="120" y="-467"/>
      <point x="127" y="-474"/>
      <point x="135" y="-474" type="curve" smooth="yes"/>
    </contour>
  </outline>
</glyph>
<glyph name="asciitilde" format="1">
  <advance width="1325"/>
  <unicode hex="007E"/>
  <outline>
    <contour>
      <point x="469" y="504" type="curve" smooth="yes"/>
      <point x="663" y="504"/>
      <point x="732" y="364"/>
      <point x="940" y="364" type="curve" smooth="yes"/>
      <point x="1033" y="364"/>
      <point x="1123" y="395"/>
      <point x="1205" y="458" type="curve"/>
      <point x="1127" y="574" type="line"/>
      <point x="1059" y="534"/>
      <point x="994" y="514"/>
      <point x="926" y="514" type="curve" smooth="yes"/>
      <point x="724" y="514"/>
      <point x="667" y="647"/>
      <point x="456" y="647" type="curve" smooth="yes"/>
      <point x="338" y="647"/>
      <point x="214" y="605"/>
      <point x="120" y="525" type="curve"/>
      <point x="190" y="407" type="line"/>
      <point x="287" y="472"/>
      <point x="380" y="504"/>
    </contour>
  </outline>
</glyph>
<glyph name="guillemetleft" format="1">
  <advance width="986"/>
  <unicode hex="00AB"/>
  <outline>
    <contour>
      <point x="419" y="-113"/>
      <point x="424" y="-114"/>
      <point x="429" y="-114" type="curve" smooth="yes"/>
      <point x="441" y="-114"/>
      <point x="451" y="-108"/>
      <point x="457" y="-97" type="curve" smooth="yes"/>
      <point x="521" y="31" type="line" smooth="yes"/>
      <point x="524" y="36"/>
      <point x="527" y="38"/>
      <point x="533" y="31" type="curve" smooth="yes"/>
      <point x="573" y="-16"/>
      <point x="713" y="-115"/>
      <point x="757" y="-115" type="curve" smooth="yes"/>
      <point x="768" y="-115"/>
      <point x="777" y="-109"/>
      <point x="783" y="-97" type="curve" smooth="yes"/>
      <point x="863" y="60" type="line" smooth="yes"/>
      <point x="865" y="65"/>
      <point x="866" y="70"/>
      <point x="866" y="75" type="curve" smooth="yes"/>
      <point x="866" y="87"/>
      <point x="860" y="97"/>
      <point x="847" y="102" type="curve" smooth="yes"/>
      <point x="681" y="167"/>
      <point x="617" y="238"/>
      <point x="617" y="336" type="curve" smooth="yes"/>
      <point x="617" y="501"/>
      <point x="813" y="763"/>
      <point x="813" y="815" type="curve" smooth="yes"/>
      <point x="813" y="826"/>
      <point x="807" y="835"/>
      <point x="795" y="840" type="curve"/>
      <point x="720" y="869" type="line"/>
      <point x="710" y="870"/>
      <point x="700" y="864"/>
      <point x="694" y="853" type="curve" smooth="yes"/>
      <point x="580" y="656"/>
      <point x="447" y="444"/>
      <point x="447" y="257" type="curve" smooth="yes"/>
      <point x="447" y="215"/>
      <point x="454" y="174"/>
      <point x="469" y="135" type="curve"/>
      <point x="470" y="131"/>
      <point x="469" y="126"/>
      <point x="466" y="126" type="curve" smooth="yes"/>
      <point x="464" y="126"/>
      <point x="463" y="126"/>
      <point x="461" y="127" type="curve"/>
      <point x="339" y="185"/>
      <point x="291" y="250"/>
      <point x="291" y="335" type="curve" smooth="yes"/>
      <point x="291" y="501"/>
      <point x="486" y="765"/>
      <point x="486" y="815" type="curve" smooth="yes"/>
      <point x="486" y="826"/>
      <point x="480" y="835"/>
      <point x="468" y="840" type="curve"/>
      <point x="393" y="869" type="line"/>
      <point x="382" y="870"/>
      <point x="372" y="864"/>
      <point x="366" y="853" type="curve" smooth="yes"/>
      <point x="253" y="656"/>
      <point x="120" y="444"/>
      <point x="120" y="257" type="curve" smooth="yes"/>
      <point x="120" y="115"/>
      <point x="196" y="-14"/>
      <point x="414" y="-111" type="curve" smooth="yes"/>
    </contour>
  </outline>
</glyph>
<glyph name="degree" format="1">
  <advance width="716"/>
  <unicode hex="00B0"/>
  <outline>
    <contour>
      <point x="523" y="1070"/>
      <point x="656" y="1203"/>
      <point x="656" y="1368" type="curve" smooth="yes"/>
      <point x="656" y="1533"/>
      <point x="523" y="1666"/>
      <point x="358" y="1666" type="curve" smooth="yes"/>
      <point x="193" y="1666"/>
      <point x="60" y="1533"/>
      <point x="60" y="1368" type="curve" smooth="yes"/>
      <point x="60" y="1203"/>
      <point x="193" y="1070"/>
      <point x="358" y="1070" type="curve" smooth="yes"/>
    </contour>
    <contour>
      <point x="252" y="1176"/>
      <point x="166" y="1262"/>
      <point x="166" y="1368" type="curve" smooth="yes"/>
      <point x="166" y="1474"/>
      <point x="252" y="1559"/>
      <point x="358" y="1559" type="curve" smooth="yes"/>
      <point x="465" y="1559"/>
      <point x="550" y="1474"/>
      <point x="550" y="1368" type="curve" smooth="yes"/>
      <point x="550" y="1261"/>
      <point x="465" y="1176"/>
      <point x="358" y="1176" type="curve" smooth="yes"/>
    </contour>
  </outline>
</glyph>
<glyph name="guillemetright" format="1">
  <advance width="986"/>
  <unicode hex="00BB"/>
  <outline>
    <contour>
      <point x="460" y="39" type="curve"/>
      <point x="530" y="-98" type="line" smooth="yes"/>
      <point x="537" y="-109"/>
      <point x="547" y="-114"/>
      <point x="558" y="-114" type="curve" smooth="yes"/>
      <point x="562" y="-114"/>
      <point x="567" y="-113"/>
      <point x="572" y="-111" type="curve" smooth="yes"/>
      <point x="790" y="-14"/>
      <point x="866" y="114"/>
      <point x="866" y="256" type="curve" smooth="yes"/>
      <point x="866" y="444"/>
      <point x="733" y="656"/>
      <point x="620" y="853" type="curve"/>
      <point x="613" y="864"/>
      <point x="590" y="868"/>
      <point x="579" y="866" type="curve"/>
      <point x="518" y="840" type="line" smooth="yes"/>
      <point x="506" y="835"/>
      <point x="500" y="826"/>
      <point x="500" y="815" type="curve" smooth="yes"/>
      <point x="500" y="770"/>
      <point x="696" y="503"/>
      <point x="696" y="335" type="curve" smooth="yes"/>
      <point x="696" y="246"/>
      <point x="644" y="179"/>
      <point x="511" y="120" type="curve"/>
      <point x="530" y="164"/>
      <point x="539" y="210"/>
      <point x="539" y="257" type="curve" smooth="yes"/>
      <point x="539" y="445"/>
      <point x="407" y="656"/>
      <point x="294" y="853" type="curve"/>
      <point x="288" y="864"/>
      <point x="264" y="868"/>
      <point x="253" y="866" type="curve"/>
      <point x="191" y="840" type="line" smooth="yes"/>
      <point x="180" y="835"/>
      <point x="174" y="826"/>
      <point x="174" y="815" type="curve" smooth="yes"/>
      <point x="174" y="771"/>
      <point x="369" y="503"/>
      <point x="369" y="335" type="curve" smooth="yes"/>
      <point x="369" y="238"/>
      <point x="305" y="167"/>
      <point x="139" y="102" type="curve" smooth="yes"/>
      <point x="127" y="97"/>
      <point x="115" y="88"/>
      <point x="118" y="73" type="curve"/>
      <point x="203" y="-98" type="line"/>
      <point x="209" y="-108"/>
      <point x="220" y="-114"/>
      <point x="231" y="-114" type="curve" smooth="yes"/>
      <point x="276" y="-114"/>
      <point x="417" y="-14"/>
    </contour>
  </outline>
</glyph>
<glyph name="multiply" format="1">
  <advance width="1274"/>
  <unicode hex="00D7"/>
  <outline>
    <contour>
      <point x="639" y="411" type="line"/>
      <point x="1034" y="-34" type="line"/>
      <point x="1154" y="58" type="line"/>
      <point x="737" y="523" type="line"/>
      <point x="1123" y="956" type="line"/>
      <point x="1011" y="1052" type="line"/>
      <point x="638" y="635" type="line"/>
      <point x="265" y="1052" type="line"/>
      <point x="153" y="956" type="line"/>
      <point x="539" y="523" type="line"/>
      <point x="120" y="55" type="line"/>
      <point x="242" y="-33" type="line"/>
    </contour>
  </outline>
</glyph>
<glyph name="divide" format="1">
  <advance width="896"/>
  <unicode hex="00F7"/>
  <outline>
    <contour>
      <point x="796" y="356" type="line"/>
      <point x="796" y="467" type="line"/>
      <point x="100" y="467" type="line"/>
      <point x="100" y="356" type="line"/>
    </contour>
    <contour>
      <point x="527" y="96" type="curve" smooth="yes"/>
      <point x="527" y="135"/>
      <point x="495" y="167"/>
      <point x="456" y="167" type="curve" smooth="yes"/>
      <point x="417" y="167"/>
      <point x="385" y="135"/>
      <point x="385" y="96" type="curve" smooth="yes"/>
      <point x="385" y="57"/>
      <point x="417" y="25"/>
      <point x="456" y="25" type="curve" smooth="yes"/>
      <point x="495" y="25"/>
      <point x="527" y="57"/>
    </contour>
    <contour>
      <point x="527" y="772" type="curve" smooth="yes"/>
      <point x="527" y="811"/>
      <point x="495" y="843"/>
      <point x="456" y="843" type="curve" smooth="yes"/>
      <point x="417" y="843"/>
      <point x="385" y="811"/>
      <point x="385" y="772" type="curve" smooth="yes"/>
      <point x="385" y="733"/>
      <point x="417" y="701"/>
      <point x="456" y="701" type="curve" smooth="yes"/>
      <point x="495" y="701"/>
      <point x="527" y="733"/>
    </contour>
  </outline>
</glyph>
<glyph name="caron" format="1">
  <advance width="632"/>
  <unicode hex="02C7"/>
  <outline>
    <contour>
      <point x="396" y="1065" type="line"/>
      <point x="562" y="1506" type="line"/>
      <point x="484" y="1573" type="line"/>
      <point x="354" y="1231" type="line"/>
      <point x="291" y="1380"/>
      <point x="238" y="1515"/>
      <point x="160" y="1515" type="curve" smooth="yes"/>
      <point x="132" y="1515"/>
      <point x="102" y="1500"/>
      <point x="70" y="1469" type="curve"/>
      <point x="175" y="1343"/>
      <point x="233" y="1182"/>
      <point x="290" y="1033" type="curve"/>
    </contour>
  </outline>
</glyph>
<glyph name="lowringmod" format="1">
  <advance width="705"/>
  <unicode hex="02F3"/>
  <outline>
    <contour>
      <point x="503" y="-481"/>
      <point x="625" y="-359"/>
      <point x="625" y="-207" type="curve" smooth="yes"/>
      <point x="625" y="-57"/>
      <point x="502" y="65"/>
      <point x="352" y="65" type="curve" smooth="yes"/>
      <point x="203" y="65"/>
      <point x="80" y="-58"/>
      <point x="80" y="-207" type="curve" smooth="yes"/>
      <point x="80" y="-359"/>
      <point x="202" y="-481"/>
      <point x="352" y="-481" type="curve" smooth="yes"/>
    </contour>
    <contour>
      <point x="256" y="-381"/>
      <point x="179" y="-304"/>
      <point x="179" y="-206" type="curve" smooth="yes"/>
      <point x="179" y="-110"/>
      <point x="256" y="-33"/>
      <point x="352" y="-33" type="curve" smooth="yes"/>
      <point x="448" y="-33"/>
      <point x="526" y="-111"/>
      <point x="526" y="-206" type="curve" smooth="yes"/>
      <point x="526" y="-303"/>
      <point x="449" y="-381"/>
      <point x="352" y="-381" type="curve" smooth="yes"/>
    </contour>
  </outline>
</glyph>
<glyph name="comma-ar" format="1">
  <advance width="513"/>
  <unicode hex="060C"/>
  <outline>
    <contour>
      <point x="269" y="-30"/>
      <point x="273" y="-31"/>
      <point x="277" y="-31" type="curve" smooth="yes"/>
      <point x="286" y="-31"/>
      <point x="294" y="-25"/>
      <point x="300" y="-16" type="curve" smooth="yes"/>
      <point x="389" y="127" type="line" smooth="yes"/>
      <point x="392" y="132"/>
      <point x="393" y="136"/>
      <point x="393" y="141" type="curve" smooth="yes"/>
      <point x="393" y="151"/>
      <point x="387" y="160"/>
      <point x="375" y="164" type="curve" smooth="yes"/>
      <point x="304" y="188"/>
      <point x="269" y="218"/>
      <point x="269" y="270" type="curve" smooth="yes"/>
      <point x="269" y="322"/>
      <point x="290" y="359"/>
      <point x="389" y="547" type="curve"/>
      <point x="391" y="565"/>
      <point x="388" y="574"/>
      <point x="375" y="584" type="curve"/>
      <point x="325" y="604" type="line"/>
      <point x="309" y="605"/>
      <point x="300" y="605"/>
      <point x="289" y="591" type="curve"/>
      <point x="155" y="348"/>
      <point x="120" y="275"/>
      <point x="120" y="169" type="curve" smooth="yes"/>
      <point x="120" y="87"/>
      <point x="156" y="13"/>
      <point x="265" y="-28" type="curve" smooth="yes"/>
    </contour>
  </outline>
</glyph>
<glyph name="tahabove-ar" format="1">
  <advance width="0"/>
  <unicode hex="0615"/>
  <outline>
    <contour>
      <point x="276" y="833" type="move" name="_top"/>
    </contour>
    <contour>
      <point x="276" y="1517" type="move" name="top"/>
    </contour>
    <contour>
      <point x="196" y="1294" type="line"/>
      <point x="195" y="1310"/>
      <point x="182" y="1320"/>
      <point x="169" y="1320" type="curve" smooth="yes"/>
      <point x="163" y="1320"/>
      <point x="158" y="1319"/>
      <point x="153" y="1315" type="curve" smooth="yes"/>
      <point x="117" y="1289" type="line" smooth="yes"/>
      <point x="108" y="1282"/>
      <point x="103" y="1274"/>
      <point x="103" y="1265" type="curve"/>
      <point x="115" y="1052" type="line"/>
      <point x="115" y="1001"/>
      <point x="107" y="975"/>
      <point x="80" y="944" type="curve"/>
      <point x="28" y="948" type="line" smooth="yes"/>
      <point x="10" y="949"/>
      <point x="-3" y="934"/>
      <point x="0" y="916" type="curve" smooth="yes"/>
      <point x="17" y="853"/>
      <point x="25" y="845"/>
      <point x="82" y="839" type="curve" smooth="yes"/>
      <point x="105" y="837"/>
      <point x="132" y="836"/>
      <point x="160" y="836" type="curve" smooth="yes"/>
      <point x="304" y="836"/>
      <point x="508" y="874"/>
      <point x="508" y="998" type="curve" smooth="yes"/>
      <point x="508" y="1070"/>
      <point x="442" y="1149"/>
      <point x="358" y="1149" type="curve" smooth="yes"/>
      <point x="311" y="1150"/>
      <point x="260" y="1125"/>
      <point x="202" y="1073" type="curve"/>
    </contour>
    <contour>
      <point x="159" y="934" type="curve"/>
      <point x="253" y="1029"/>
      <point x="288" y="1051"/>
      <point x="334" y="1051" type="curve" smooth="yes"/>
      <point x="391" y="1051"/>
      <point x="425" y="1011"/>
      <point x="439" y="984" type="curve"/>
      <point x="366" y="951"/>
      <point x="271" y="933"/>
    </contour>
  </outline>
</glyph>
<glyph name="alefLamYehabove-ar" format="1">
  <advance width="0"/>
  <unicode hex="0616"/>
  <outline>
    <contour>
      <point x="305" y="369"/>
      <point x="551" y="381"/>
      <point x="796" y="396" type="curve" smooth="yes"/>
      <point x="817" y="396"/>
      <point x="829" y="404"/>
      <point x="834" y="418" type="curve" smooth="yes"/>
      <point x="843" y="448" type="line" smooth="yes"/>
      <point x="847" y="467"/>
      <point x="835" y="482"/>
      <point x="817" y="480" type="curve" smooth="yes"/>
      <point x="646" y="467"/>
      <point x="427" y="455"/>
      <point x="262" y="455" type="curve" smooth="yes"/>
      <point x="189" y="455"/>
      <point x="117" y="459"/>
      <point x="57" y="474" type="curve"/>
      <point x="91" y="583"/>
      <point x="228" y="613"/>
      <point x="342" y="640" type="curve" smooth="yes"/>
      <point x="353" y="643"/>
      <point x="360" y="649"/>
      <point x="366" y="657" type="curve" smooth="yes"/>
      <point x="393" y="698"/>
      <point x="410" y="751"/>
      <point x="410" y="814" type="curve"/>
      <point x="392" y="1186" type="line"/>
      <point x="436" y="1131"/>
      <point x="465" y="1094"/>
      <point x="465" y="1010" type="curve"/>
      <point x="428" y="546" type="line"/>
      <point x="426" y="529"/>
      <point x="439" y="516"/>
      <point x="454" y="518" type="curve" smooth="yes"/>
      <point x="472" y="522" type="line" smooth="yes"/>
      <point x="486" y="526"/>
      <point x="492" y="533"/>
      <point x="493" y="547" type="curve"/>
      <point x="535" y="1029" type="line"/>
      <point x="535" y="1145"/>
      <point x="496" y="1192"/>
      <point x="439" y="1269" type="curve" smooth="yes"/>
      <point x="433" y="1276"/>
      <point x="426" y="1280"/>
      <point x="419" y="1280" type="curve" smooth="yes"/>
      <point x="413" y="1280"/>
      <point x="408" y="1278"/>
      <point x="402" y="1274" type="curve" smooth="yes"/>
      <point x="327" y="1217" type="line" smooth="yes"/>
      <point x="319" y="1212"/>
      <point x="315" y="1203"/>
      <point x="315" y="1192" type="curve"/>
      <point x="346" y="723" type="line"/>
      <point x="239" y="696"/>
      <point x="129" y="670"/>
      <point x="59" y="589" type="curve" smooth="yes"/>
      <point x="36" y="563"/>
      <point x="0" y="505"/>
      <point x="0" y="457" type="curve" smooth="yes"/>
      <point x="0" y="376"/>
      <point x="92" y="369"/>
      <point x="214" y="369" type="curve" smooth="yes"/>
    </contour>
    <contour>
      <point x="421" y="1482" type="move" name="top"/>
    </contour>
    <contour>
      <point x="421" y="368" type="move" name="_top"/>
    </contour>
  </outline>
</glyph>
<glyph name="alefLamYehabove-ar" format="1">
  <advance width="0"/>
  <unicode hex="0616"/>
  <outline>
    <contour>
      <point x="439" y="383" type="move" name="_top"/>
    </contour>
    <contour>
      <point x="439" y="1544" type="move" name="top"/>
    </contour>
    <contour>
      <point x="829" y="412" type="curve" smooth="yes"/>
      <point x="851" y="413"/>
      <point x="864" y="421"/>
      <point x="869" y="435" type="curve" smooth="yes"/>
      <point x="878" y="467" type="line" smooth="yes"/>
      <point x="882" y="486"/>
      <point x="870" y="502"/>
      <point x="851" y="500" type="curve" smooth="yes"/>
      <point x="673" y="486"/>
      <point x="445" y="474"/>
      <point x="273" y="474" type="curve" smooth="yes"/>
      <point x="197" y="474"/>
      <point x="122" y="478"/>
      <point x="59" y="494" type="curve"/>
      <point x="95" y="607"/>
      <point x="238" y="639"/>
      <point x="356" y="667" type="curve" smooth="yes"/>
      <point x="368" y="670"/>
      <point x="375" y="676"/>
      <point x="381" y="684" type="curve" smooth="yes"/>
      <point x="409" y="727"/>
      <point x="427" y="782"/>
      <point x="427" y="848" type="curve"/>
      <point x="408" y="1235" type="line"/>
      <point x="454" y="1178"/>
      <point x="484" y="1140"/>
      <point x="484" y="1052" type="curve"/>
      <point x="446" y="569" type="line"/>
      <point x="444" y="551"/>
      <point x="457" y="537"/>
      <point x="473" y="540" type="curve" smooth="yes"/>
      <point x="492" y="544" type="line" smooth="yes"/>
      <point x="506" y="548"/>
      <point x="513" y="555"/>
      <point x="514" y="570" type="curve"/>
      <point x="557" y="1072" type="line"/>
      <point x="557" y="1193"/>
      <point x="517" y="1242"/>
      <point x="457" y="1322" type="curve" smooth="yes"/>
      <point x="451" y="1329"/>
      <point x="444" y="1333"/>
      <point x="436" y="1333" type="curve" smooth="yes"/>
      <point x="430" y="1333"/>
      <point x="425" y="1331"/>
      <point x="419" y="1327" type="curve" smooth="yes"/>
      <point x="341" y="1268" type="line" smooth="yes"/>
      <point x="332" y="1262"/>
      <point x="328" y="1253"/>
      <point x="328" y="1242" type="curve"/>
      <point x="360" y="753" type="line"/>
      <point x="249" y="725"/>
      <point x="134" y="698"/>
      <point x="61" y="614" type="curve" smooth="yes"/>
      <point x="37" y="586"/>
      <point x="0" y="526"/>
      <point x="0" y="476" type="curve" smooth="yes"/>
      <point x="0" y="392"/>
      <point x="96" y="384"/>
      <point x="223" y="384" type="curve" smooth="yes"/>
      <point x="318" y="384"/>
      <point x="574" y="397"/>
    </contour>
  </outline>
</glyph>
<glyph name="question-ar" format="1">
  <advance width="837"/>
  <unicode hex="061F"/>
  <outline>
    <contour>
      <point x="569" y="433" type="line"/>
      <point x="584" y="438"/>
      <point x="592" y="449"/>
      <point x="592" y="464" type="curve"/>
      <point x="595" y="579" type="line"/>
      <point x="595" y="819"/>
      <point x="523" y="817"/>
      <point x="232" y="1070" type="curve" smooth="yes"/>
      <point x="230" y="1072"/>
      <point x="228" y="1074"/>
      <point x="228" y="1077" type="curve" smooth="yes"/>
      <point x="228" y="1079"/>
      <point x="229" y="1082"/>
      <point x="230" y="1085" type="curve" smooth="yes"/>
      <point x="279" y="1199"/>
      <point x="380" y="1246"/>
      <point x="484" y="1246" type="curve" smooth="yes"/>
      <point x="551" y="1246"/>
      <point x="620" y="1226"/>
      <point x="676" y="1191" type="curve" smooth="yes"/>
      <point x="680" y="1188"/>
      <point x="685" y="1187"/>
      <point x="689" y="1187" type="curve" smooth="yes"/>
      <point x="702" y="1187"/>
      <point x="713" y="1199"/>
      <point x="713" y="1216" type="curve" smooth="yes"/>
      <point x="713" y="1322" type="line" smooth="yes"/>
      <point x="713" y="1335"/>
      <point x="708" y="1344"/>
      <point x="696" y="1353" type="curve" smooth="yes"/>
      <point x="629" y="1404"/>
      <point x="552" y="1428"/>
      <point x="477" y="1428" type="curve" smooth="yes"/>
      <point x="294" y="1428"/>
      <point x="120" y="1285"/>
      <point x="120" y="1046" type="curve" smooth="yes"/>
      <point x="120" y="879"/>
      <point x="237" y="836"/>
      <point x="356" y="723" type="curve" smooth="yes"/>
      <point x="432" y="652"/>
      <point x="464" y="624"/>
      <point x="462" y="529" type="curve" smooth="yes"/>
      <point x="460" y="432" type="line" smooth="yes"/>
      <point x="460" y="415"/>
      <point x="469" y="404"/>
      <point x="482" y="406" type="curve"/>
    </contour>
    <component base="period" xScale="0.876" yScale="0.876" xOffset="277" yOffset="-21"/>
  </outline>
</glyph>
<glyph name="hamza-ar" format="1">
  <advance width="1036"/>
  <unicode hex="0621"/>
  <outline>
    <contour>
      <point x="879" y="316" type="line"/>
      <point x="889" y="322"/>
      <point x="896" y="330"/>
      <point x="896" y="338" type="curve"/>
      <point x="888" y="477" type="line"/>
      <point x="887" y="494"/>
      <point x="876" y="507"/>
      <point x="853" y="495" type="curve" smooth="yes"/>
      <point x="507" y="290" type="line" smooth="yes"/>
      <point x="502" y="287"/>
      <point x="497" y="288"/>
      <point x="494" y="291" type="curve" smooth="yes"/>
      <point x="295" y="474" type="line" smooth="yes"/>
      <point x="290" y="479"/>
      <point x="290" y="481"/>
      <point x="294" y="484" type="curve" smooth="yes"/>
      <point x="383" y="589"/>
      <point x="501" y="615"/>
      <point x="630" y="615" type="curve" smooth="yes"/>
      <point x="668" y="615"/>
      <point x="700" y="612"/>
      <point x="696" y="641" type="curve" smooth="yes"/>
      <point x="685" y="730" type="line" smooth="yes"/>
      <point x="683" y="744"/>
      <point x="676" y="754"/>
      <point x="663" y="758" type="curve" smooth="yes"/>
      <point x="624" y="769"/>
      <point x="584" y="774"/>
      <point x="546" y="774" type="curve" smooth="yes"/>
      <point x="351" y="774"/>
      <point x="180" y="639"/>
      <point x="180" y="457" type="curve" smooth="yes"/>
      <point x="180" y="357"/>
      <point x="286" y="250"/>
      <point x="357" y="197" type="curve" smooth="yes"/>
      <point x="361" y="194"/>
      <point x="362" y="192"/>
      <point x="356" y="189" type="curve" smooth="yes"/>
      <point x="236" y="117" type="line" smooth="yes"/>
      <point x="225" y="110"/>
      <point x="220" y="100"/>
      <point x="220" y="87" type="curve" smooth="yes"/>
      <point x="219" y="-16" type="line" smooth="yes"/>
      <point x="219" y="-38"/>
      <point x="237" y="-47"/>
      <point x="254" y="-37" type="curve"/>
    </contour>
    <contour>
      <point x="538" y="985" type="move" name="top"/>
    </contour>
    <contour>
      <point x="538" y="-229" type="move" name="bottom"/>
    </contour>
  </outline>
</glyph>
<glyph name="alef-ar" format="1">
  <advance width="521"/>
  <unicode hex="0627"/>
  <outline>
    <contour>
      <point x="364" y="-2" type="line" smooth="yes"/>
      <point x="375" y="1"/>
      <point x="381" y="10"/>
      <point x="381" y="22" type="curve" smooth="yes"/>
      <point x="373" y="1529" type="line" smooth="yes"/>
      <point x="373" y="1555"/>
      <point x="350" y="1568"/>
      <point x="327" y="1557" type="curve" smooth="yes"/>
      <point x="190" y="1482" type="line" smooth="yes"/>
      <point x="183" y="1478"/>
      <point x="180" y="1470"/>
      <point x="180" y="1461" type="curve" smooth="yes"/>
      <point x="239" y="-5" type="line" smooth="yes"/>
      <point x="240" y="-23"/>
      <point x="254" y="-39"/>
      <point x="280" y="-32" type="curve" smooth="yes"/>
    </contour>
    <contour>
      <point x="276" y="1757" type="move" name="top"/>
    </contour>
    <contour>
      <point x="310" y="-237" type="move" name="bottom"/>
    </contour>
  </outline>
</glyph>
<glyph name="tehMarbuta-ar" format="1">
  <advance width="1068"/>
  <unicode hex="0629"/>
  <outline>
    <component base="heh-ar"/>
    <component base="twodotshorizontalabove-ar" xOffset="97" yOffset="275"/>
    <contour>
      <point x="481" y="-258" type="move" name="bottom"/>
    </contour>
  </outline>
</glyph>
<glyph name="tehMarbuta-ar" format="1">
  <advance width="1068"/>
  <unicode hex="0629"/>
  <outline>
    <contour>
      <point x="481" y="-258" type="move" name="bottom"/>
    </contour>
    <component base="heh-ar"/>
    <component base="twodotshorizontalabove-ar" xOffset="97" yOffset="275"/>
  </outline>
</glyph>
<glyph name="theh-ar" format="1">
  <advance width="1854"/>
  <unicode hex="062B"/>
  <outline>
    <component base="dotlessbeh-ar"/>
    <component base="threedotsupabove-ar" xOffset="543" yOffset="241"/>
    <contour>
      <point x="907" y="-247" type="move" name="bottom"/>
    </contour>
  </outline>
</glyph>
<glyph name="hah-ar" format="1">
  <advance width="1472"/>
  <unicode hex="062D"/>
  <outline>
    <contour>
      <point x="1242" y="-673"/>
      <point x="1295" y="-646"/>
      <point x="1352" y="-501" type="curve" smooth="yes"/>
      <point x="1358" y="-477"/>
      <point x="1343" y="-463"/>
      <point x="1322" y="-463" type="curve" smooth="yes"/>
      <point x="1286" y="-463"/>
      <point x="1096" y="-518"/>
      <point x="852" y="-518" type="curve" smooth="yes"/>
      <point x="562" y="-518"/>
      <point x="315" y="-420"/>
      <point x="315" y="-169" type="curve" smooth="yes"/>
      <point x="315" y="229"/>
      <point x="714" y="496"/>
      <point x="1245" y="503" type="curve" smooth="yes"/>
      <point x="1256" y="503"/>
      <point x="1266" y="510"/>
      <point x="1269" y="520" type="curve" smooth="yes"/>
      <point x="1315" y="659"/>
      <point x="1326" y="692"/>
      <point x="1326" y="702" type="curve" smooth="yes"/>
      <point x="1326" y="727"/>
      <point x="1279" y="725"/>
      <point x="1207" y="725" type="curve" smooth="yes"/>
      <point x="824" y="725"/>
      <point x="668" y="884"/>
      <point x="470" y="884" type="curve" smooth="yes"/>
      <point x="374" y="884"/>
      <point x="305" y="837"/>
      <point x="202" y="726" type="curve" smooth="yes"/>
      <point x="194" y="718"/>
      <point x="194" y="712"/>
      <point x="197" y="701" type="curve" smooth="yes"/>
      <point x="232" y="607" type="line" smooth="yes"/>
      <point x="237" y="593"/>
      <point x="248" y="585"/>
      <point x="260" y="585" type="curve" smooth="yes"/>
      <point x="268" y="585"/>
      <point x="277" y="589"/>
      <point x="284" y="596" type="curve" smooth="yes"/>
      <point x="353" y="665"/>
      <point x="395" y="688"/>
      <point x="444" y="688" type="curve" smooth="yes"/>
      <point x="483" y="688"/>
      <point x="492" y="684"/>
      <point x="798" y="597" type="curve"/>
      <point x="413" y="511"/>
      <point x="180" y="161"/>
      <point x="180" y="-185" type="curve" smooth="yes"/>
      <point x="180" y="-615"/>
      <point x="444" y="-726"/>
      <point x="758" y="-726" type="curve" smooth="yes"/>
      <point x="851" y="-726"/>
      <point x="949" y="-716"/>
      <point x="1045" y="-702" type="curve" smooth="yes"/>
    </contour>
    <contour>
      <point x="887" y="10" type="move" name="center"/>
    </contour>
    <contour>
      <point x="822" y="-928" type="move" name="bottom"/>
    </contour>
    <contour>
      <point x="464" y="1092" type="move" name="top"/>
    </contour>
  </outline>
</glyph>
<glyph name="dal-ar" format="1">
  <advance width="1182"/>
  <unicode hex="062F"/>
  <outline>
    <contour>
      <point x="603" y="-56"/>
      <point x="875" y="-8"/>
      <point x="964" y="55" type="curve" smooth="yes"/>
      <point x="1018" y="94"/>
      <point x="1042" y="159"/>
      <point x="1042" y="250" type="curve" smooth="yes"/>
      <point x="1042" y="448"/>
      <point x="962" y="576"/>
      <point x="693" y="990" type="curve" smooth="yes"/>
      <point x="688" y="998"/>
      <point x="680" y="1002"/>
      <point x="672" y="1002" type="curve" smooth="yes"/>
      <point x="665" y="1002"/>
      <point x="659" y="999"/>
      <point x="655" y="993" type="curve" smooth="yes"/>
      <point x="572" y="851" type="line" smooth="yes"/>
      <point x="569" y="846"/>
      <point x="567" y="840"/>
      <point x="567" y="834" type="curve" smooth="yes"/>
      <point x="567" y="828"/>
      <point x="570" y="821"/>
      <point x="574" y="815" type="curve" smooth="yes"/>
      <point x="856" y="416"/>
      <point x="898" y="290"/>
      <point x="914" y="213" type="curve"/>
      <point x="797" y="171"/>
      <point x="639" y="141"/>
      <point x="493" y="141" type="curve" smooth="yes"/>
      <point x="319" y="141"/>
      <point x="310" y="150"/>
      <point x="302" y="318" type="curve" smooth="yes"/>
      <point x="301" y="335"/>
      <point x="290" y="345"/>
      <point x="274" y="345" type="curve" smooth="yes"/>
      <point x="212" y="345" type="line" smooth="yes"/>
      <point x="196" y="345"/>
      <point x="186" y="336"/>
      <point x="185" y="320" type="curve" smooth="yes"/>
      <point x="182" y="286"/>
      <point x="180" y="252"/>
      <point x="180" y="219" type="curve" smooth="yes"/>
      <point x="180" y="69"/>
      <point x="226" y="-56"/>
      <point x="464" y="-56" type="curve" smooth="yes"/>
    </contour>
    <contour>
      <point x="639" y="1208" type="move" name="top"/>
    </contour>
    <contour>
      <point x="551" y="-248" type="move" name="bottom"/>
    </contour>
  </outline>
</glyph>
<glyph name="reh-ar" format="1">
  <advance width="925"/>
  <unicode hex="0631"/>
  <outline>
    <contour>
      <point x="299" y="-640" type="move" name="bottom"/>
    </contour>
    <contour>
      <point x="608" y="986" type="move" name="top"/>
    </contour>
    <contour>
      <point x="785" y="187" type="curve" smooth="yes"/>
      <point x="785" y="326"/>
      <point x="724" y="516"/>
      <point x="674" y="714" type="curve" smooth="yes"/>
      <point x="670" y="731"/>
      <point x="651" y="740"/>
      <point x="634" y="723" type="curve" smooth="yes"/>
      <point x="530" y="619" type="line" smooth="yes"/>
      <point x="524" y="613"/>
      <point x="520" y="606"/>
      <point x="520" y="597" type="curve"/>
      <point x="664" y="144" type="line"/>
      <point x="666" y="137"/>
      <point x="666" y="135"/>
      <point x="664" y="128" type="curve" smooth="yes"/>
      <point x="551" y="-145"/>
      <point x="402" y="-266"/>
      <point x="171" y="-266" type="curve" smooth="yes"/>
      <point x="110" y="-266"/>
      <point x="44" y="-258"/>
      <point x="-28" y="-242" type="curve" smooth="yes"/>
      <point x="-43" y="-239"/>
      <point x="-56" y="-248"/>
      <point x="-61" y="-264" type="curve"/>
      <point x="-85" y="-340" type="line"/>
      <point x="-86" y="-350"/>
      <point x="-77" y="-358"/>
      <point x="-64" y="-362" type="curve" smooth="yes"/>
      <point x="73" y="-408"/>
      <point x="187" y="-436"/>
      <point x="287" y="-436" type="curve" smooth="yes"/>
      <point x="360" y="-436"/>
      <point x="425" y="-421"/>
      <point x="486" y="-387" type="curve" smooth="yes"/>
      <point x="650" y="-295"/>
      <point x="785" y="-12"/>
    </contour>
  </outline>
</glyph>
<glyph name="seen-ar" format="1">
  <advance width="2678"/>
  <unicode hex="0633"/>
  <outline>
    <contour>
      <point x="704" y="-734" type="move" name="bottom"/>
    </contour>
    <contour>
      <point x="760" y="723" type="move" name="top"/>
    </contour>
    <contour>
      <point x="1320" y="-267" type="curve" smooth="yes"/>
      <point x="1353" y="-222"/>
      <point x="1363" y="-169"/>
      <point x="1363" y="-104" type="curve" smooth="yes"/>
      <point x="1363" y="-68"/>
      <point x="1360" y="-27"/>
      <point x="1356" y="17" type="curve"/>
      <point x="1398" y="3"/>
      <point x="1462" y="-5"/>
      <point x="1532" y="-5" type="curve" smooth="yes"/>
      <point x="1665" y="-5"/>
      <point x="1820" y="24"/>
      <point x="1882" y="92" type="curve"/>
      <point x="1985" y="30"/>
      <point x="2101" y="-7"/>
      <point x="2226" y="-7" type="curve" smooth="yes"/>
      <point x="2463" y="-7"/>
      <point x="2545" y="79"/>
      <point x="2538" y="318" type="curve" smooth="yes"/>
      <point x="2535" y="420"/>
      <point x="2502" y="682"/>
      <point x="2461" y="851" type="curve" smooth="yes"/>
      <point x="2458" y="864"/>
      <point x="2450" y="870"/>
      <point x="2440" y="870" type="curve" smooth="yes"/>
      <point x="2434" y="870"/>
      <point x="2427" y="867"/>
      <point x="2421" y="861" type="curve" smooth="yes"/>
      <point x="2318" y="756" type="line" smooth="yes"/>
      <point x="2312" y="749"/>
      <point x="2308" y="741"/>
      <point x="2308" y="732" type="curve"/>
      <point x="2421" y="221" type="line"/>
      <point x="2423" y="214"/>
      <point x="2418" y="207"/>
      <point x="2409" y="205" type="curve" smooth="yes"/>
      <point x="2352" y="194"/>
      <point x="2298" y="188"/>
      <point x="2246" y="188" type="curve" smooth="yes"/>
      <point x="2153" y="188"/>
      <point x="2067" y="206"/>
      <point x="1980" y="244" type="curve" smooth="yes"/>
      <point x="1978" y="245"/>
      <point x="1977" y="247"/>
      <point x="1977" y="250" type="curve" smooth="yes"/>
      <point x="2016" y="591" type="line" smooth="yes"/>
      <point x="2018" y="607"/>
      <point x="2007" y="620"/>
      <point x="1991" y="621" type="curve" smooth="yes"/>
      <point x="1917" y="627" type="line" smooth="yes"/>
      <point x="1902" y="628"/>
      <point x="1890" y="620"/>
      <point x="1888" y="604" type="curve" smooth="yes"/>
      <point x="1854" y="358" type="line" smooth="yes"/>
      <point x="1838" y="241"/>
      <point x="1756" y="194"/>
      <point x="1575" y="194" type="curve" smooth="yes"/>
      <point x="1427" y="194"/>
      <point x="1336" y="208"/>
      <point x="1322" y="313" type="curve" smooth="yes"/>
      <point x="1284" y="580" type="line" smooth="yes"/>
      <point x="1281" y="598"/>
      <point x="1268" y="608"/>
      <point x="1254" y="608" type="curve" smooth="yes"/>
      <point x="1247" y="608"/>
      <point x="1240" y="606"/>
      <point x="1234" y="601" type="curve" smooth="yes"/>
      <point x="1124" y="519" type="line" smooth="yes"/>
      <point x="1118" y="515"/>
      <point x="1114" y="505"/>
      <point x="1114" y="497" type="curve"/>
      <point x="1221" y="-169" type="line"/>
      <point x="1222" y="-172"/>
      <point x="1220" y="-174"/>
      <point x="1218" y="-175" type="curve" smooth="yes"/>
      <point x="1158" y="-203"/>
      <point x="897" y="-310"/>
      <point x="634" y="-310" type="curve" smooth="yes"/>
      <point x="427" y="-310"/>
      <point x="320" y="-215"/>
      <point x="320" y="-36" type="curve" smooth="yes"/>
      <point x="320" y="23"/>
      <point x="327" y="51"/>
      <point x="365" y="259" type="curve" smooth="yes"/>
      <point x="368" y="275"/>
      <point x="356" y="289"/>
      <point x="340" y="291" type="curve" smooth="yes"/>
      <point x="266" y="302" type="line" smooth="yes"/>
      <point x="251" y="304"/>
      <point x="239" y="295"/>
      <point x="236" y="280" type="curve" smooth="yes"/>
      <point x="188" y="15"/>
      <point x="180" y="-14"/>
      <point x="180" y="-100" type="curve" smooth="yes"/>
      <point x="180" y="-335"/>
      <point x="296" y="-531"/>
      <point x="607" y="-531" type="curve" smooth="yes"/>
      <point x="834" y="-531"/>
      <point x="1198" y="-436"/>
    </contour>
  </outline>
</glyph>
<glyph name="sheen-ar" format="1">
  <advance width="2678"/>
  <unicode hex="0634"/>
  <outline>
    <component base="seen-ar"/>
    <component base="threedotsupabove-ar" xOffset="1603" yOffset="156"/>
    <contour>
      <point x="704" y="-734" type="move" name="bottom"/>
    </contour>
  </outline>
</glyph>
<glyph name="sad-ar" format="1">
  <advance width="2731"/>
  <unicode hex="0635"/>
  <outline>
    <contour>
      <point x="836" y="-541"/>
      <point x="1199" y="-436"/>
      <point x="1321" y="-277" type="curve" smooth="yes"/>
      <point x="1351" y="-237"/>
      <point x="1364" y="-199"/>
      <point x="1364" y="-118" type="curve" smooth="yes"/>
      <point x="1364" y="-73"/>
      <point x="1360" y="-14"/>
      <point x="1353" y="66" type="curve"/>
      <point x="1461" y="7"/>
      <point x="1636" y="-22"/>
      <point x="1821" y="-22" type="curve" smooth="yes"/>
      <point x="2096" y="-22"/>
      <point x="2394" y="42"/>
      <point x="2522" y="167" type="curve"/>
      <point x="2570" y="221"/>
      <point x="2591" y="286"/>
      <point x="2591" y="353" type="curve" smooth="yes"/>
      <point x="2591" y="560"/>
      <point x="2389" y="789"/>
      <point x="2141" y="791" type="curve" smooth="yes"/>
      <point x="1963" y="792"/>
      <point x="1741" y="721"/>
      <point x="1371" y="269" type="curve"/>
      <point x="1315" y="325"/>
      <point x="1319" y="427"/>
      <point x="1299" y="578" type="curve" smooth="yes"/>
      <point x="1296" y="596"/>
      <point x="1284" y="606"/>
      <point x="1270" y="606" type="curve" smooth="yes"/>
      <point x="1263" y="606"/>
      <point x="1256" y="604"/>
      <point x="1250" y="599" type="curve" smooth="yes"/>
      <point x="1139" y="517" type="line" smooth="yes"/>
      <point x="1133" y="513"/>
      <point x="1129" y="503"/>
      <point x="1129" y="495" type="curve"/>
      <point x="1223" y="-178" type="line"/>
      <point x="1223" y="-181"/>
      <point x="1222" y="-183"/>
      <point x="1219" y="-185" type="curve" smooth="yes"/>
      <point x="1137" y="-224"/>
      <point x="944" y="-320"/>
      <point x="636" y="-320" type="curve" smooth="yes"/>
      <point x="426" y="-320"/>
      <point x="321" y="-230"/>
      <point x="321" y="-50" type="curve" smooth="yes"/>
      <point x="321" y="3"/>
      <point x="327" y="31"/>
      <point x="366" y="249" type="curve" smooth="yes"/>
      <point x="369" y="265"/>
      <point x="359" y="278"/>
      <point x="342" y="281" type="curve" smooth="yes"/>
      <point x="268" y="292" type="line" smooth="yes"/>
      <point x="254" y="295"/>
      <point x="240" y="286"/>
      <point x="237" y="270" type="curve" smooth="yes"/>
      <point x="189" y="5"/>
      <point x="180" y="-40"/>
      <point x="180" y="-128" type="curve" smooth="yes"/>
      <point x="180" y="-397"/>
      <point x="327" y="-541"/>
      <point x="608" y="-541" type="curve" smooth="yes"/>
    </contour>
    <contour>
      <point x="1749" y="534"/>
      <point x="1901" y="596"/>
      <point x="2061" y="596" type="curve" smooth="yes"/>
      <point x="2266" y="596"/>
      <point x="2422" y="401"/>
      <point x="2466" y="316" type="curve" smooth="yes"/>
      <point x="2469" y="310"/>
      <point x="2467" y="308"/>
      <point x="2463" y="306" type="curve" smooth="yes"/>
      <point x="2305" y="211"/>
      <point x="2093" y="171"/>
      <point x="1885" y="171" type="curve" smooth="yes"/>
      <point x="1744" y="171"/>
      <point x="1605" y="189"/>
      <point x="1486" y="221" type="curve"/>
    </contour>
    <contour>
      <point x="759" y="713" type="move" name="top"/>
    </contour>
    <contour>
      <point x="694" y="-750" type="move" name="bottom"/>
    </contour>
  </outline>
</glyph>
<glyph name="tah-ar" format="1">
  <advance width="1831"/>
  <unicode hex="0637"/>
  <outline>
    <contour>
      <point x="466" y="-26"/>
      <point x="551" y="-29"/>
      <point x="641" y="-29" type="curve" smooth="yes"/>
      <point x="1058" y="-29"/>
      <point x="1691" y="71"/>
      <point x="1691" y="425" type="curve" smooth="yes"/>
      <point x="1691" y="626"/>
      <point x="1487" y="848"/>
      <point x="1260" y="849" type="curve" smooth="yes"/>
      <point x="1091" y="850"/>
      <point x="899" y="738"/>
      <point x="696" y="521" type="curve"/>
      <point x="712" y="589"/>
      <point x="717" y="665"/>
      <point x="717" y="757" type="curve"/>
      <point x="696" y="1511" type="line"/>
      <point x="695" y="1531"/>
      <point x="682" y="1544"/>
      <point x="666" y="1544" type="curve" smooth="yes"/>
      <point x="659" y="1544"/>
      <point x="652" y="1541"/>
      <point x="645" y="1536" type="curve" smooth="yes"/>
      <point x="514" y="1439" type="line" smooth="yes"/>
      <point x="507" y="1434"/>
      <point x="503" y="1426"/>
      <point x="503" y="1418" type="curve" smooth="yes"/>
      <point x="538" y="835"/>
      <point x="554" y="735"/>
      <point x="554" y="568" type="curve" smooth="yes"/>
      <point x="554" y="381"/>
      <point x="520" y="323"/>
      <point x="408" y="204" type="curve" smooth="yes"/>
      <point x="406" y="202"/>
      <point x="404" y="201"/>
      <point x="401" y="201" type="curve" smooth="yes"/>
      <point x="338" y="204"/>
      <point x="275" y="211"/>
      <point x="212" y="220" type="curve" smooth="yes"/>
      <point x="195" y="223"/>
      <point x="180" y="208"/>
      <point x="180" y="190" type="curve" smooth="yes"/>
      <point x="180" y="187"/>
      <point x="180" y="185"/>
      <point x="181" y="182" type="curve" smooth="yes"/>
      <point x="218" y="26"/>
      <point x="260" y="-15"/>
      <point x="393" y="-22" type="curve" smooth="yes"/>
    </contour>
    <contour>
      <point x="898" y="549"/>
      <point x="1012" y="637"/>
      <point x="1179" y="637" type="curve" smooth="yes"/>
      <point x="1404" y="637"/>
      <point x="1520" y="449"/>
      <point x="1549" y="366" type="curve" smooth="yes"/>
      <point x="1550" y="363"/>
      <point x="1547" y="361"/>
      <point x="1545" y="360" type="curve" smooth="yes"/>
      <point x="1307" y="241"/>
      <point x="988" y="189"/>
      <point x="682" y="189" type="curve"/>
      <point x="551" y="192" type="line"/>
    </contour>
    <contour>
      <point x="1242" y="1048" type="move" name="top"/>
    </contour>
    <contour>
      <point x="843" y="-235" type="move" name="bottom"/>
    </contour>
  </outline>
</glyph>
<glyph name="ain-ar" format="1">
  <advance width="1312"/>
  <unicode hex="0639"/>
  <outline>
    <contour>
      <point x="1165" y="-490"/>
      <point x="977" y="-511"/>
      <point x="817" y="-498" type="curve" smooth="yes"/>
      <point x="524" y="-476"/>
      <point x="371" y="-344"/>
      <point x="371" y="-149" type="curve" smooth="yes"/>
      <point x="371" y="204"/>
      <point x="759" y="431"/>
      <point x="1131" y="519" type="curve" smooth="yes"/>
      <point x="1144" y="522"/>
      <point x="1151" y="531"/>
      <point x="1153" y="547" type="curve" smooth="yes"/>
      <point x="1167" y="704" type="line" smooth="yes"/>
      <point x="1168" y="721"/>
      <point x="1158" y="731"/>
      <point x="1145" y="731" type="curve" smooth="yes"/>
      <point x="1086" y="731"/>
      <point x="763" y="587"/>
      <point x="642" y="530" type="curve" smooth="yes"/>
      <point x="626" y="522"/>
      <point x="613" y="519"/>
      <point x="601" y="519" type="curve" smooth="yes"/>
      <point x="585" y="519"/>
      <point x="572" y="525"/>
      <point x="556" y="537" type="curve" smooth="yes"/>
      <point x="431" y="638"/>
      <point x="347" y="742"/>
      <point x="329" y="879" type="curve" smooth="yes"/>
      <point x="328" y="884"/>
      <point x="330" y="887"/>
      <point x="335" y="892" type="curve" smooth="yes"/>
      <point x="421" y="974"/>
      <point x="521" y="1015"/>
      <point x="642" y="1015" type="curve" smooth="yes"/>
      <point x="717" y="1015"/>
      <point x="798" y="1000"/>
      <point x="889" y="970" type="curve" smooth="yes"/>
      <point x="904" y="965"/>
      <point x="928" y="976"/>
      <point x="922" y="998" type="curve" smooth="yes"/>
      <point x="889" y="1125" type="line" smooth="yes"/>
      <point x="883" y="1143"/>
      <point x="883" y="1144"/>
      <point x="871" y="1150" type="curve" smooth="yes"/>
      <point x="786" y="1192"/>
      <point x="698" y="1211"/>
      <point x="614" y="1211" type="curve" smooth="yes"/>
      <point x="374" y="1211"/>
      <point x="170" y="1052"/>
      <point x="180" y="816" type="curve" smooth="yes"/>
      <point x="187" y="659"/>
      <point x="265" y="524"/>
      <point x="443" y="362" type="curve"/>
      <point x="311" y="210"/>
      <point x="228" y="0"/>
      <point x="228" y="-195" type="curve" smooth="yes"/>
      <point x="228" y="-551"/>
      <point x="495" y="-729"/>
      <point x="866" y="-729" type="curve" smooth="yes"/>
      <point x="941" y="-729"/>
      <point x="1021" y="-722"/>
      <point x="1103" y="-706" type="curve" smooth="yes"/>
      <point x="1272" y="-674"/>
      <point x="1317" y="-632"/>
      <point x="1371" y="-495" type="curve" smooth="yes"/>
      <point x="1378" y="-467"/>
      <point x="1358" y="-455"/>
      <point x="1333" y="-458" type="curve" smooth="yes"/>
    </contour>
    <contour>
      <point x="599" y="1417" type="move" name="top"/>
    </contour>
    <contour>
      <point x="860" y="-912" type="move" name="bottom"/>
    </contour>
  </outline>
</glyph>
<glyph name="kashida-ar" format="1">
  <advance width="462"/>
  <unicode hex="0640"/>
  <outline>
    <contour>
      <point x="486" y="0" type="line"/>
      <point x="514" y="33"/>
      <point x="527" y="66"/>
      <point x="527" y="100" type="curve" smooth="yes"/>
      <point x="527" y="133"/>
      <point x="514" y="166"/>
      <point x="486" y="199" type="curve"/>
      <point x="-20" y="199" type="line" smooth="yes"/>
      <point x="-86" y="199"/>
      <point x="-118" y="149"/>
      <point x="-118" y="100" type="curve" smooth="yes"/>
      <point x="-118" y="50"/>
      <point x="-86" y="0"/>
      <point x="-20" y="0" type="curve" smooth="yes"/>
    </contour>
  </outline>
</glyph>
<glyph name="qaf-ar" format="1">
  <advance width="1660"/>
  <unicode hex="0642"/>
  <outline>
    <component base="dotlessqaf-ar"/>
    <component base="twodotshorizontalabove-ar" xOffset="793" yOffset="182"/>
    <contour>
      <point x="733" y="-732" type="move" name="bottom"/>
    </contour>
  </outline>
</glyph>
<glyph name="lam-ar" format="1">
  <advance width="1471"/>
  <unicode hex="0644"/>
  <outline>
    <contour>
      <point x="857" y="-524"/>
      <point x="1324" y="-430"/>
      <point x="1331" y="-141" type="curve"/>
      <point x="1291" y="1551" type="line"/>
      <point x="1291" y="1566"/>
      <point x="1282" y="1575"/>
      <point x="1271" y="1575" type="curve" smooth="yes"/>
      <point x="1265" y="1575"/>
      <point x="1259" y="1573"/>
      <point x="1253" y="1568" type="curve"/>
      <point x="1113" y="1462" type="line" smooth="yes"/>
      <point x="1104" y="1456"/>
      <point x="1100" y="1446"/>
      <point x="1100" y="1433" type="curve" smooth="yes"/>
      <point x="1186" y="-201" type="line"/>
      <point x="1142" y="-218"/>
      <point x="893" y="-310"/>
      <point x="621" y="-310" type="curve" smooth="yes"/>
      <point x="429" y="-310"/>
      <point x="319" y="-219"/>
      <point x="319" y="-69" type="curve" smooth="yes"/>
      <point x="319" y="-24"/>
      <point x="328" y="10"/>
      <point x="405" y="340" type="curve" smooth="yes"/>
      <point x="409" y="355"/>
      <point x="400" y="370"/>
      <point x="384" y="373" type="curve" smooth="yes"/>
      <point x="313" y="389" type="line" smooth="yes"/>
      <point x="297" y="392"/>
      <point x="286" y="385"/>
      <point x="281" y="370" type="curve" smooth="yes"/>
      <point x="194" y="14"/>
      <point x="180" y="-41"/>
      <point x="180" y="-133" type="curve" smooth="yes"/>
      <point x="180" y="-337"/>
      <point x="282" y="-524"/>
      <point x="581" y="-524" type="curve" smooth="yes"/>
    </contour>
    <contour>
      <point x="668" y="667" type="move" name="top"/>
    </contour>
    <contour>
      <point x="720" y="-717" type="move" name="bottom"/>
    </contour>
  </outline>
</glyph>
<glyph name="meem-ar" format="1">
  <advance width="1279"/>
  <unicode hex="0645"/>
  <outline>
    <contour>
      <point x="314" y="-847" type="move" name="bottom"/>
    </contour>
    <contour>
      <point x="654" y="1096" type="move" name="top"/>
    </contour>
    <contour>
      <point x="376" y="-618" type="line"/>
      <point x="389" y="-613"/>
      <point x="395" y="-603"/>
      <point x="393" y="-587" type="curve" smooth="yes"/>
      <point x="311" y="46" type="line" smooth="yes"/>
      <point x="309" y="62"/>
      <point x="315" y="71"/>
      <point x="330" y="77" type="curve" smooth="yes"/>
      <point x="480" y="127"/>
      <point x="662" y="148"/>
      <point x="838" y="148" type="curve" smooth="yes"/>
      <point x="911" y="148"/>
      <point x="982" y="144"/>
      <point x="1049" y="138" type="curve" smooth="yes"/>
      <point x="1074" y="136"/>
      <point x="1092" y="149"/>
      <point x="1098" y="176" type="curve" smooth="yes"/>
      <point x="1126" y="293"/>
      <point x="1139" y="351"/>
      <point x="1139" y="386" type="curve" smooth="yes"/>
      <point x="1135" y="590"/>
      <point x="848" y="902"/>
      <point x="652" y="902" type="curve" smooth="yes"/>
      <point x="414" y="902"/>
      <point x="346" y="642"/>
      <point x="345" y="464" type="curve" smooth="yes"/>
      <point x="344" y="266" type="line"/>
      <point x="234" y="203"/>
      <point x="180" y="89"/>
      <point x="180" y="-80" type="curve"/>
      <point x="211" y="-651" type="line"/>
      <point x="213" y="-666"/>
      <point x="226" y="-679"/>
      <point x="238" y="-675" type="curve"/>
    </contour>
    <contour>
      <point x="515" y="317" type="curve" smooth="yes"/>
      <point x="504" y="317"/>
      <point x="497" y="323"/>
      <point x="494" y="336" type="curve" smooth="yes"/>
      <point x="464" y="441"/>
      <point x="459" y="454"/>
      <point x="459" y="464" type="curve" smooth="yes"/>
      <point x="459" y="470"/>
      <point x="460" y="477"/>
      <point x="463" y="485" type="curve" smooth="yes"/>
      <point x="507" y="619"/>
      <point x="562" y="685"/>
      <point x="631" y="685" type="curve" smooth="yes"/>
      <point x="753" y="685"/>
      <point x="909" y="545"/>
      <point x="1010" y="343" type="curve" smooth="yes"/>
      <point x="1011" y="340"/>
      <point x="1010" y="337"/>
      <point x="1006" y="337" type="curve" smooth="yes"/>
      <point x="942" y="342"/>
      <point x="881" y="344"/>
      <point x="823" y="344" type="curve" smooth="yes"/>
      <point x="622" y="344"/>
      <point x="553" y="317"/>
    </contour>
  </outline>
</glyph>
<glyph name="heh-ar" format="1">
  <advance width="1068"/>
  <unicode hex="0647"/>
  <outline>
    <contour>
      <point x="481" y="-258" type="move" name="bottom"/>
    </contour>
    <contour>
      <point x="434" y="1116" type="move" name="top"/>
    </contour>
    <contour>
      <point x="928" y="422" type="curve" smooth="yes"/>
      <point x="928" y="595"/>
      <point x="669" y="773"/>
      <point x="461" y="903" type="curve" smooth="yes"/>
      <point x="454" y="907"/>
      <point x="447" y="909"/>
      <point x="440" y="909" type="curve" smooth="yes"/>
      <point x="428" y="909"/>
      <point x="416" y="902"/>
      <point x="409" y="890" type="curve" smooth="yes"/>
      <point x="282" y="670"/>
      <point x="180" y="488"/>
      <point x="180" y="278" type="curve" smooth="yes"/>
      <point x="180" y="78"/>
      <point x="292" y="-56"/>
      <point x="464" y="-56" type="curve" smooth="yes"/>
      <point x="694" y="-56"/>
      <point x="928" y="194"/>
    </contour>
    <contour>
      <point x="299" y="359" type="curve" smooth="yes"/>
      <point x="299" y="451"/>
      <point x="341" y="546"/>
      <point x="411" y="668" type="curve" smooth="yes"/>
      <point x="415" y="674"/>
      <point x="419" y="677"/>
      <point x="424" y="677" type="curve" smooth="yes"/>
      <point x="427" y="677"/>
      <point x="431" y="676"/>
      <point x="436" y="673" type="curve" smooth="yes"/>
      <point x="599" y="588"/>
      <point x="699" y="502"/>
      <point x="800" y="405" type="curve" smooth="yes"/>
      <point x="804" y="401"/>
      <point x="806" y="396"/>
      <point x="806" y="390" type="curve" smooth="yes"/>
      <point x="806" y="387"/>
      <point x="806" y="383"/>
      <point x="804" y="379" type="curve" smooth="yes"/>
      <point x="748" y="233"/>
      <point x="628" y="143"/>
      <point x="491" y="143" type="curve" smooth="yes"/>
      <point x="382" y="143"/>
      <point x="299" y="232"/>
    </contour>
  </outline>
</glyph>
<glyph name="waw-ar" format="1">
  <advance width="1069"/>
  <unicode hex="0648"/>
  <outline>
    <contour>
      <point x="929" y="-132"/>
      <point x="929" y="252" type="curve" smooth="yes"/>
      <point x="929" y="552"/>
      <point x="801" y="883"/>
      <point x="569" y="883" type="curve" smooth="yes"/>
      <point x="331" y="883"/>
      <point x="180" y="556"/>
      <point x="180" y="317" type="curve" smooth="yes"/>
      <point x="180" y="99"/>
      <point x="285" y="-10"/>
      <point x="493" y="-10" type="curve" smooth="yes"/>
      <point x="570" y="-10"/>
      <point x="661" y="5"/>
      <point x="767" y="35" type="curve"/>
      <point x="651" y="-197"/>
      <point x="484" y="-307"/>
      <point x="241" y="-307" type="curve" smooth="yes"/>
      <point x="171" y="-307"/>
      <point x="95" y="-298"/>
      <point x="12" y="-280" type="curve" smooth="yes"/>
      <point x="-3" y="-277"/>
      <point x="-16" y="-286"/>
      <point x="-21" y="-302" type="curve" smooth="yes"/>
      <point x="-44" y="-381" type="line" smooth="yes"/>
      <point x="-48" y="-395"/>
      <point x="-40" y="-408"/>
      <point x="-24" y="-413" type="curve" smooth="yes"/>
      <point x="134" y="-465"/>
      <point x="265" y="-492"/>
      <point x="373" y="-492" type="curve" smooth="yes"/>
      <point x="726" y="-492"/>
    </contour>
    <contour>
      <point x="688" y="221"/>
      <point x="607" y="211"/>
      <point x="536" y="211" type="curve" smooth="yes"/>
      <point x="440" y="211"/>
      <point x="361" y="229"/>
      <point x="306" y="266" type="curve" smooth="yes"/>
      <point x="302" y="269"/>
      <point x="300" y="273"/>
      <point x="300" y="279" type="curve" smooth="yes"/>
      <point x="292" y="457"/>
      <point x="414" y="661"/>
      <point x="529" y="661" type="curve" smooth="yes"/>
      <point x="645" y="661"/>
      <point x="773" y="444"/>
      <point x="777" y="241" type="curve"/>
    </contour>
    <contour>
      <point x="569" y="1085" type="move" name="top"/>
    </contour>
    <contour>
      <point x="439" y="-694" type="move" name="bottom"/>
    </contour>
  </outline>
</glyph>
<glyph name="alefMaksura-ar" format="1">
  <advance width="1659"/>
  <unicode hex="0649"/>
  <outline>
    <contour>
      <point x="984" y="-591"/>
      <point x="1519" y="-373"/>
      <point x="1519" y="-84" type="curve" smooth="yes"/>
      <point x="1519" y="5"/>
      <point x="1473" y="38"/>
      <point x="1329" y="49" type="curve" smooth="yes"/>
      <point x="1094" y="70" type="line" smooth="yes"/>
      <point x="975" y="83"/>
      <point x="912" y="116"/>
      <point x="912" y="162" type="curve" smooth="yes"/>
      <point x="912" y="265"/>
      <point x="1164" y="518"/>
      <point x="1276" y="518" type="curve" smooth="yes"/>
      <point x="1305" y="518"/>
      <point x="1334" y="509"/>
      <point x="1366" y="491" type="curve" smooth="yes"/>
      <point x="1371" y="489"/>
      <point x="1375" y="487"/>
      <point x="1380" y="487" type="curve" smooth="yes"/>
      <point x="1390" y="487"/>
      <point x="1398" y="494"/>
      <point x="1403" y="506" type="curve" smooth="yes"/>
      <point x="1453" y="617" type="line" smooth="yes"/>
      <point x="1455" y="622"/>
      <point x="1457" y="627"/>
      <point x="1457" y="632" type="curve" smooth="yes"/>
      <point x="1457" y="638"/>
      <point x="1454" y="644"/>
      <point x="1450" y="651" type="curve" smooth="yes"/>
      <point x="1420" y="696"/>
      <point x="1361" y="722"/>
      <point x="1292" y="722" type="curve" smooth="yes"/>
      <point x="1063" y="722"/>
      <point x="775" y="298"/>
      <point x="775" y="58" type="curve" smooth="yes"/>
      <point x="775" y="-62"/>
      <point x="859" y="-116"/>
      <point x="1042" y="-134" type="curve" smooth="yes"/>
      <point x="1378" y="-167" type="line"/>
      <point x="1175" y="-296"/>
      <point x="920" y="-373"/>
      <point x="697" y="-373" type="curve" smooth="yes"/>
      <point x="449" y="-373"/>
      <point x="326" y="-268"/>
      <point x="326" y="-56" type="curve" smooth="yes"/>
      <point x="326" y="39"/>
      <point x="338" y="84"/>
      <point x="397" y="312" type="curve" smooth="yes"/>
      <point x="400" y="323"/>
      <point x="395" y="342"/>
      <point x="377" y="345" type="curve" smooth="yes"/>
      <point x="303" y="361" type="line" smooth="yes"/>
      <point x="287" y="364"/>
      <point x="275" y="356"/>
      <point x="270" y="341" type="curve" smooth="yes"/>
      <point x="198" y="65"/>
      <point x="180" y="-6"/>
      <point x="180" y="-139" type="curve" smooth="yes"/>
      <point x="180" y="-436"/>
      <point x="345" y="-591"/>
      <point x="668" y="-591" type="curve" smooth="yes"/>
    </contour>
    <contour>
      <point x="577" y="615" type="move" name="top"/>
    </contour>
    <contour>
      <point x="680" y="-792" type="move" name="bottom"/>
    </contour>
  </outline>
</glyph>
<glyph name="yeh-ar" format="1">
  <advance width="1659"/>
  <unicode hex="064A"/>
  <outline>
    <contour>
      <point x="577" y="615" type="move" name="top"/>
    </contour>
    <component base="alefMaksura-ar"/>
    <component base="twodotshorizontalbelow-ar" xOffset="343" yOffset="-652"/>
  </outline>
</glyph>
<glyph name="fathatan-ar" format="1">
  <advance width="0"/>
  <unicode hex="064B"/>
  <outline>
    <contour>
      <point x="258" y="767" type="move" name="_top"/>
    </contour>
    <contour>
      <point x="258" y="1454" type="move" name="top"/>
    </contour>
    <component base="fatha-ar" yOffset="16"/>
    <component base="fatha-ar" yOffset="-239"/>
  </outline>
</glyph>
<glyph name="dammatan-ar" format="1">
  <advance width="0"/>
  <unicode hex="064C"/>
  <outline>
    <contour>
      <point x="238" y="784" type="move" name="_top"/>
    </contour>
    <contour>
      <point x="223" y="1437" type="move" name="top"/>
    </contour>
    <contour>
      <point x="379" y="1008" type="curve"/>
      <point x="464" y="1023" type="line"/>
      <point x="475" y="1084" type="line"/>
      <point x="388" y="1076" type="line"/>
      <point x="402" y="1167"/>
      <point x="375" y="1294"/>
      <point x="291" y="1294" type="curve" smooth="yes"/>
      <point x="221" y="1294"/>
      <point x="173" y="1185"/>
      <point x="168" y="1123" type="curve" smooth="yes"/>
      <point x="160" y="1047"/>
      <point x="202" y="985"/>
      <point x="316" y="1002" type="curve"/>
      <point x="276" y="958"/>
      <point x="203" y="883"/>
      <point x="155" y="841" type="curve"/>
      <point x="157" y="895"/>
      <point x="163" y="1025"/>
      <point x="98" y="1025" type="curve" smooth="yes"/>
      <point x="74" y="1025"/>
      <point x="39" y="1009"/>
      <point x="0" y="993" type="curve"/>
      <point x="3" y="910" type="line"/>
      <point x="59" y="936" type="line"/>
      <point x="90" y="947"/>
      <point x="113" y="949"/>
      <point x="113" y="884" type="curve"/>
      <point x="114" y="862"/>
      <point x="112" y="830"/>
      <point x="112" y="818" type="curve"/>
      <point x="180" y="774" type="line"/>
      <point x="241" y="825"/>
      <point x="330" y="925"/>
    </contour>
    <contour>
      <point x="211" y="1112" type="curve" smooth="yes"/>
      <point x="211" y="1162"/>
      <point x="238" y="1213"/>
      <point x="277" y="1213" type="curve" smooth="yes"/>
      <point x="326" y="1213"/>
      <point x="352" y="1110"/>
      <point x="339" y="1070" type="curve"/>
      <point x="280" y="1069"/>
      <point x="211" y="1078"/>
    </contour>
  </outline>
</glyph>
<glyph name="kasratan-ar" format="1">
  <advance width="0"/>
  <unicode hex="064D"/>
  <outline>
    <component base="fathatan-ar" xOffset="1" yOffset="-1450"/>
    <contour>
      <point x="259" y="-185" type="move" name="_bottom"/>
    </contour>
    <contour>
      <point x="259" y="-890" type="move" name="bottom"/>
    </contour>
  </outline>
</glyph>
<glyph name="fatha-ar" format="1">
  <advance width="0"/>
  <unicode hex="064E"/>
  <outline>
    <contour>
      <point x="532" y="1145" type="line"/>
      <point x="535" y="1146"/>
      <point x="538" y="1149"/>
      <point x="538" y="1153" type="curve" smooth="yes"/>
      <point x="538" y="1260" type="line" smooth="yes"/>
      <point x="538" y="1267"/>
      <point x="533" y="1272"/>
      <point x="527" y="1272" type="curve"/>
      <point x="6" y="1092" type="line"/>
      <point x="3" y="1091"/>
      <point x="0" y="1088"/>
      <point x="0" y="1084" type="curve" smooth="yes"/>
      <point x="0" y="979" type="line" smooth="yes"/>
      <point x="0" y="972"/>
      <point x="5" y="967"/>
      <point x="11" y="967" type="curve"/>
    </contour>
    <contour>
      <point x="269" y="1452" type="move" name="top"/>
    </contour>
    <contour>
      <point x="269" y="990" type="move" name="_top"/>
    </contour>
  </outline>
</glyph>
<glyph name="damma-ar" format="1">
  <advance width="0"/>
  <unicode hex="064F"/>
  <outline>
    <contour>
      <point x="202" y="659" type="move" name="_top"/>
    </contour>
    <contour>
      <point x="202" y="1495" type="move" name="top"/>
    </contour>
    <contour>
      <point x="285" y="918" type="curve"/>
      <point x="389" y="937" type="line" smooth="yes"/>
      <point x="392" y="938"/>
      <point x="395" y="941"/>
      <point x="396" y="944" type="curve" smooth="yes"/>
      <point x="411" y="1021" type="line" smooth="yes"/>
      <point x="412" y="1028"/>
      <point x="408" y="1034"/>
      <point x="401" y="1034" type="curve" smooth="yes"/>
      <point x="400" y="1034"/>
      <point x="400" y="1034"/>
      <point x="399" y="1034" type="curve" smooth="yes"/>
      <point x="301" y="1024" type="line"/>
      <point x="304" y="1075" type="line"/>
      <point x="304" y="1182"/>
      <point x="262" y="1299"/>
      <point x="168" y="1299" type="curve" smooth="yes"/>
      <point x="78" y="1299"/>
      <point x="0" y="1158"/>
      <point x="0" y="1052" type="curve" smooth="yes"/>
      <point x="0" y="960"/>
      <point x="58" y="906"/>
      <point x="156" y="906" type="curve"/>
      <point x="162" y="906"/>
      <point x="165" y="902"/>
      <point x="165" y="896" type="curve" smooth="yes"/>
      <point x="165" y="892"/>
      <point x="164" y="888"/>
      <point x="161" y="884" type="curve" smooth="yes"/>
      <point x="99" y="800"/>
      <point x="38" y="723"/>
      <point x="6" y="685" type="curve" smooth="yes"/>
      <point x="4" y="683"/>
      <point x="3" y="680"/>
      <point x="3" y="677" type="curve" smooth="yes"/>
      <point x="3" y="673"/>
      <point x="5" y="669"/>
      <point x="10" y="667" type="curve" smooth="yes"/>
      <point x="78" y="635" type="line" smooth="yes"/>
      <point x="81" y="633"/>
      <point x="85" y="634"/>
      <point x="87" y="637" type="curve" smooth="yes"/>
      <point x="136" y="680"/>
      <point x="242" y="846"/>
    </contour>
    <contour>
      <point x="69" y="1055" type="curve" smooth="yes"/>
      <point x="69" y="1126"/>
      <point x="106" y="1186"/>
      <point x="149" y="1186" type="curve" smooth="yes"/>
      <point x="199" y="1186"/>
      <point x="230" y="1098"/>
      <point x="230" y="1037" type="curve"/>
      <point x="228" y="1017" type="line" smooth="yes"/>
      <point x="227" y="1011"/>
      <point x="223" y="1008"/>
      <point x="218" y="1008" type="curve" smooth="yes"/>
      <point x="125" y="1008"/>
      <point x="69" y="1027"/>
    </contour>
  </outline>
</glyph>
<glyph name="kasra-ar" format="1">
  <advance width="0"/>
  <unicode hex="0650"/>
  <outline>
    <component base="fatha-ar" yOffset="-1683"/>
    <contour>
      <point x="259" y="-434" type="move" name="_bottom"/>
    </contour>
    <contour>
      <point x="259" y="-882" type="move" name="bottom"/>
    </contour>
  </outline>
</glyph>
<glyph name="shadda-ar" format="1">
  <advance width="0"/>
  <unicode hex="0651"/>
  <outline>
    <contour>
      <point x="328" y="884" type="move" name="_top"/>
    </contour>
    <contour>
      <point x="328" y="1463" type="move" name="top"/>
    </contour>
    <contour>
      <point x="169" y="872" type="curve" smooth="yes"/>
      <point x="228" y="872"/>
      <point x="287" y="887"/>
      <point x="329" y="915" type="curve"/>
      <point x="363" y="889"/>
      <point x="407" y="876"/>
      <point x="456" y="876" type="curve" smooth="yes"/>
      <point x="506" y="876"/>
      <point x="563" y="890"/>
      <point x="620" y="918" type="curve" smooth="yes"/>
      <point x="632" y="924"/>
      <point x="637" y="932"/>
      <point x="640" y="945" type="curve" smooth="yes"/>
      <point x="651" y="1009"/>
      <point x="655" y="1056"/>
      <point x="655" y="1093" type="curve" smooth="yes"/>
      <point x="655" y="1142"/>
      <point x="653" y="1151"/>
      <point x="620" y="1305" type="curve" smooth="yes"/>
      <point x="617" y="1319"/>
      <point x="608" y="1326"/>
      <point x="598" y="1326" type="curve" smooth="yes"/>
      <point x="593" y="1326"/>
      <point x="587" y="1324"/>
      <point x="581" y="1320" type="curve" smooth="yes"/>
      <point x="539" y="1290" type="line" smooth="yes"/>
      <point x="530" y="1283"/>
      <point x="525" y="1275"/>
      <point x="525" y="1266" type="curve"/>
      <point x="583" y="1041" type="line"/>
      <point x="545" y="1027"/>
      <point x="506" y="1015"/>
      <point x="462" y="1015" type="curve" smooth="yes"/>
      <point x="435" y="1015"/>
      <point x="406" y="1020"/>
      <point x="374" y="1031" type="curve"/>
      <point x="367" y="1215" type="line" smooth="yes"/>
      <point x="367" y="1230"/>
      <point x="355" y="1242"/>
      <point x="340" y="1242" type="curve" smooth="yes"/>
      <point x="317" y="1242" type="line" smooth="yes"/>
      <point x="302" y="1242"/>
      <point x="290" y="1230"/>
      <point x="290" y="1215" type="curve" smooth="yes"/>
      <point x="284" y="1029" type="line"/>
      <point x="250" y="1018"/>
      <point x="217" y="1009"/>
      <point x="178" y="1009" type="curve" smooth="yes"/>
      <point x="149" y="1009"/>
      <point x="118" y="1014"/>
      <point x="82" y="1025" type="curve"/>
      <point x="102" y="1240" type="line" smooth="yes"/>
      <point x="103" y="1255"/>
      <point x="93" y="1268"/>
      <point x="77" y="1271" type="curve" smooth="yes"/>
      <point x="54" y="1273" type="line" smooth="yes"/>
      <point x="38" y="1274"/>
      <point x="25" y="1264"/>
      <point x="23" y="1248" type="curve" smooth="yes"/>
      <point x="6" y="1096"/>
      <point x="0" y="1050"/>
      <point x="0" y="1023" type="curve" smooth="yes"/>
      <point x="0" y="914"/>
      <point x="60" y="872"/>
    </contour>
  </outline>
</glyph>
<glyph name="sukun-ar" format="1">
  <advance width="0"/>
  <unicode hex="0652"/>
  <outline>
    <contour>
      <point x="164" y="899" type="move" name="_top"/>
    </contour>
    <contour>
      <point x="164" y="1504" type="move" name="top"/>
    </contour>
    <contour>
      <point x="328" y="1131" type="curve" smooth="yes"/>
      <point x="336" y="1251"/>
      <point x="266" y="1354"/>
      <point x="169" y="1354" type="curve" smooth="yes"/>
      <point x="70" y="1354"/>
      <point x="9" y="1197"/>
      <point x="2" y="1108" type="curve" smooth="yes"/>
      <point x="-10" y="962"/>
      <point x="50" y="906"/>
      <point x="121" y="902" type="curve" smooth="yes"/>
      <point x="231" y="898"/>
      <point x="322" y="1018"/>
    </contour>
    <contour>
      <point x="58" y="1106" type="curve" smooth="yes"/>
      <point x="57" y="1146"/>
      <point x="100" y="1236"/>
      <point x="151" y="1236" type="curve" smooth="yes"/>
      <point x="207" y="1236"/>
      <point x="266" y="1144"/>
      <point x="266" y="1114" type="curve" smooth="yes"/>
      <point x="266" y="1074"/>
      <point x="191" y="1024"/>
      <point x="143" y="1024" type="curve" smooth="yes"/>
      <point x="92" y="1024"/>
      <point x="60" y="1063"/>
    </contour>
  </outline>
</glyph>
<glyph name="madda-ar" format="1">
  <advance width="0"/>
  <unicode hex="0653"/>
  <outline>
    <contour>
      <point x="74" y="1006"/>
      <point x="79" y="1004"/>
      <point x="85" y="1004" type="curve" smooth="yes"/>
      <point x="92" y="1004"/>
      <point x="100" y="1009"/>
      <point x="105" y="1019" type="curve" smooth="yes"/>
      <point x="151" y="1108" type="line"/>
      <point x="231" y="1083"/>
      <point x="327" y="1071"/>
      <point x="420" y="1071" type="curve" smooth="yes"/>
      <point x="522" y="1071"/>
      <point x="621" y="1086"/>
      <point x="690" y="1116" type="curve" smooth="yes"/>
      <point x="700" y="1120"/>
      <point x="706" y="1128"/>
      <point x="710" y="1140" type="curve"/>
      <point x="749" y="1271" type="line"/>
      <point x="749" y="1283"/>
      <point x="741" y="1290"/>
      <point x="729" y="1290" type="curve" smooth="yes"/>
      <point x="708" y="1290"/>
      <point x="647" y="1250"/>
      <point x="481" y="1250" type="curve" smooth="yes"/>
      <point x="361" y="1250"/>
      <point x="207" y="1293"/>
      <point x="175" y="1293" type="curve" smooth="yes"/>
      <point x="114" y="1293"/>
      <point x="65" y="1240"/>
      <point x="4" y="1117" type="curve" smooth="yes"/>
      <point x="1" y="1111"/>
      <point x="0" y="1104"/>
      <point x="0" y="1098" type="curve" smooth="yes"/>
      <point x="0" y="1089"/>
      <point x="3" y="1081"/>
      <point x="9" y="1075" type="curve" smooth="yes"/>
      <point x="70" y="1011" type="line" smooth="yes"/>
    </contour>
    <contour>
      <point x="375" y="1489" type="move" name="top"/>
    </contour>
    <contour>
      <point x="375" y="1024" type="move" name="_top"/>
    </contour>
  </outline>
</glyph>
<glyph name="hamzaabove-ar" format="1">
  <advance width="0"/>
  <unicode hex="0654"/>
  <outline>
    <contour>
      <point x="282" y="681" type="move" name="_top"/>
    </contour>
    <contour>
      <point x="282" y="1528" type="move" name="top"/>
    </contour>
    <component base="hamzacenter-ar" yOffset="631"/>
  </outline>
</glyph>
<glyph name="hamzabelow-ar" format="1">
  <advance width="0"/>
  <unicode hex="0655"/>
  <outline>
    <contour>
      <point x="245" y="1035" type="move" name="_bottom"/>
    </contour>
    <contour>
      <point x="245" y="358" type="move" name="bottom"/>
    </contour>
    <component base="hamzacenter-ar" xOffset="-3"/>
  </outline>
</glyph>
<glyph name="alefbelow-ar" format="1">
  <advance width="0"/>
  <unicode hex="0656"/>
  <outline>
    <contour>
      <point x="67" y="-221" type="move" name="_bottom"/>
    </contour>
    <contour>
      <point x="67" y="-896" type="move" name="bottom"/>
    </contour>
    <component base="alefabove-ar" yOffset="-1505"/>
  </outline>
</glyph>
<glyph name="noonghunnaabove-ar" format="1">
  <advance width="0"/>
  <unicode hex="0658"/>
  <outline>
    <contour>
      <point x="261" y="939"/>
      <point x="438" y="977"/>
      <point x="441" y="1088" type="curve" smooth="yes"/>
      <point x="441" y="1139"/>
      <point x="425" y="1254"/>
      <point x="418" y="1305" type="curve" smooth="yes"/>
      <point x="415" y="1326"/>
      <point x="401" y="1338"/>
      <point x="385" y="1338" type="curve" smooth="yes"/>
      <point x="377" y="1338"/>
      <point x="369" y="1335"/>
      <point x="362" y="1330" type="curve" smooth="yes"/>
      <point x="338" y="1312" type="line" smooth="yes"/>
      <point x="325" y="1302"/>
      <point x="318" y="1287"/>
      <point x="321" y="1271" type="curve" smooth="yes"/>
      <point x="355" y="1079" type="line" smooth="yes"/>
      <point x="355" y="1078"/>
      <point x="355" y="1077"/>
      <point x="353" y="1076" type="curve" smooth="yes"/>
      <point x="321" y="1066"/>
      <point x="249" y="1048"/>
      <point x="174" y="1048" type="curve" smooth="yes"/>
      <point x="113" y="1048"/>
      <point x="83" y="1073"/>
      <point x="83" y="1126" type="curve" smooth="yes"/>
      <point x="83" y="1157"/>
      <point x="95" y="1197"/>
      <point x="95" y="1213" type="curve" smooth="yes"/>
      <point x="95" y="1235"/>
      <point x="80" y="1250"/>
      <point x="56" y="1250" type="curve" smooth="yes"/>
      <point x="38" y="1250"/>
      <point x="21" y="1236"/>
      <point x="18" y="1218" type="curve" smooth="yes"/>
      <point x="4" y="1149"/>
      <point x="0" y="1127"/>
      <point x="0" y="1101" type="curve" smooth="yes"/>
      <point x="0" y="1002"/>
      <point x="61" y="939"/>
      <point x="165" y="939" type="curve" smooth="yes"/>
    </contour>
    <contour>
      <point x="210" y="1497" type="move" name="top"/>
    </contour>
    <contour>
      <point x="210" y="938" type="move" name="_top"/>
    </contour>
  </outline>
</glyph>
<glyph name="vabove-ar" format="1">
  <advance width="0"/>
  <unicode hex="065A"/>
  <outline>
    <contour>
      <point x="295" y="849" type="line"/>
      <point x="306" y="853"/>
      <point x="313" y="859"/>
      <point x="318" y="870" type="curve" smooth="yes"/>
      <point x="482" y="1275" type="line" smooth="yes"/>
      <point x="484" y="1280"/>
      <point x="485" y="1285"/>
      <point x="485" y="1290" type="curve" smooth="yes"/>
      <point x="485" y="1301"/>
      <point x="479" y="1311"/>
      <point x="468" y="1312" type="curve"/>
      <point x="408" y="1319" type="line"/>
      <point x="399" y="1319"/>
      <point x="391" y="1316"/>
      <point x="385" y="1302" type="curve" smooth="yes"/>
      <point x="274" y="1024" type="line" smooth="yes"/>
      <point x="270" y="1017"/>
      <point x="267" y="1013"/>
      <point x="263" y="1013" type="curve" smooth="yes"/>
      <point x="260" y="1013"/>
      <point x="257" y="1016"/>
      <point x="253" y="1023" type="curve" smooth="yes"/>
      <point x="160" y="1224" type="line" smooth="yes"/>
      <point x="134" y="1280"/>
      <point x="120" y="1306"/>
      <point x="93" y="1303" type="curve"/>
      <point x="16" y="1276" type="line"/>
      <point x="6" y="1271"/>
      <point x="0" y="1264"/>
      <point x="0" y="1255" type="curve" smooth="yes"/>
      <point x="0" y="1250"/>
      <point x="2" y="1245"/>
      <point x="5" y="1239" type="curve" smooth="yes"/>
      <point x="197" y="846" type="line" smooth="yes"/>
      <point x="202" y="835"/>
      <point x="209" y="829"/>
      <point x="219" y="829" type="curve" smooth="yes"/>
      <point x="219" y="829"/>
      <point x="220" y="829"/>
      <point x="221" y="829" type="curve"/>
    </contour>
    <contour>
      <point x="242" y="1521" type="move" name="top"/>
    </contour>
    <contour>
      <point x="242" y="828" type="move" name="_top"/>
    </contour>
  </outline>
</glyph>
<glyph name="vinvertedabove-ar" format="1">
  <advance width="0"/>
  <unicode hex="065B"/>
  <outline>
    <contour>
      <point x="84" y="785" type="line"/>
      <point x="115" y="785"/>
      <point x="122" y="808"/>
      <point x="142" y="876" type="curve" smooth="yes"/>
      <point x="205" y="1091" type="line" smooth="yes"/>
      <point x="208" y="1104"/>
      <point x="212" y="1110"/>
      <point x="216" y="1110" type="curve" smooth="yes"/>
      <point x="220" y="1110"/>
      <point x="224" y="1105"/>
      <point x="230" y="1095" type="curve" smooth="yes"/>
      <point x="395" y="815" type="line" smooth="yes"/>
      <point x="400" y="806"/>
      <point x="408" y="801"/>
      <point x="416" y="801" type="curve" smooth="yes"/>
      <point x="423" y="801"/>
      <point x="430" y="804"/>
      <point x="436" y="811" type="curve" smooth="yes"/>
      <point x="466" y="848" type="line" smooth="yes"/>
      <point x="471" y="853"/>
      <point x="473" y="859"/>
      <point x="473" y="865" type="curve" smooth="yes"/>
      <point x="473" y="871"/>
      <point x="471" y="877"/>
      <point x="468" y="883" type="curve" smooth="yes"/>
      <point x="248" y="1253" type="line" smooth="yes"/>
      <point x="241" y="1263"/>
      <point x="234" y="1268"/>
      <point x="221" y="1269" type="curve" smooth="yes"/>
      <point x="154" y="1277" type="line" smooth="yes"/>
      <point x="139" y="1278"/>
      <point x="128" y="1271"/>
      <point x="123" y="1257" type="curve"/>
      <point x="-10" y="823" type="line"/>
      <point x="-10" y="812"/>
      <point x="-4" y="804"/>
      <point x="10" y="800" type="curve"/>
    </contour>
    <contour>
      <point x="230" y="1470" type="move" name="top"/>
    </contour>
    <contour>
      <point x="230" y="772" type="move" name="_top"/>
    </contour>
  </outline>
</glyph>
<glyph name="zero-ar" format="1">
  <advance width="862"/>
  <unicode hex="0660"/>
  <outline>
    <contour>
      <point x="434" y="183" type="curve" smooth="yes"/>
      <point x="463" y="183"/>
      <point x="493" y="195"/>
      <point x="516" y="219" type="curve" smooth="yes"/>
      <point x="709" y="416" type="line" smooth="yes"/>
      <point x="731" y="439"/>
      <point x="742" y="467"/>
      <point x="742" y="496" type="curve" smooth="yes"/>
      <point x="742" y="525"/>
      <point x="730" y="555"/>
      <point x="707" y="578" type="curve" smooth="yes"/>
      <point x="515" y="770" type="line" smooth="yes"/>
      <point x="491" y="794"/>
      <point x="462" y="805"/>
      <point x="434" y="805" type="curve" smooth="yes"/>
      <point x="405" y="805"/>
      <point x="376" y="794"/>
      <point x="353" y="771" type="curve" smooth="yes"/>
      <point x="156" y="579" type="line" smooth="yes"/>
      <point x="132" y="556"/>
      <point x="120" y="526"/>
      <point x="120" y="497" type="curve" smooth="yes"/>
      <point x="120" y="468"/>
      <point x="132" y="438"/>
      <point x="155" y="415" type="curve" smooth="yes"/>
      <point x="352" y="218" type="line" smooth="yes"/>
      <point x="375" y="195"/>
      <point x="405" y="183"/>
    </contour>
    <contour>
      <point x="273" y="495" type="line"/>
      <point x="432" y="650" type="line"/>
      <point x="588" y="495" type="line"/>
      <point x="432" y="336" type="line"/>
    </contour>
  </outline>
</glyph>
<glyph name="one-ar" format="1">
  <advance width="597"/>
  <unicode hex="0661"/>
  <outline>
    <contour>
      <point x="454" y="-3" type="line"/>
      <point x="468" y="0"/>
      <point x="477" y="12"/>
      <point x="477" y="26" type="curve" smooth="yes"/>
      <point x="472" y="597"/>
      <point x="456" y="935"/>
      <point x="284" y="1276" type="curve" smooth="yes"/>
      <point x="279" y="1286"/>
      <point x="271" y="1292"/>
      <point x="262" y="1292" type="curve" smooth="yes"/>
      <point x="255" y="1292"/>
      <point x="249" y="1288"/>
      <point x="243" y="1280" type="curve" smooth="yes"/>
      <point x="127" y="1120" type="line" smooth="yes"/>
      <point x="122" y="1114"/>
      <point x="120" y="1107"/>
      <point x="120" y="1100" type="curve" smooth="yes"/>
      <point x="120" y="1095"/>
      <point x="121" y="1090"/>
      <point x="124" y="1085" type="curve" smooth="yes"/>
      <point x="340" y="697"/>
      <point x="342" y="277"/>
      <point x="347" y="3" type="curve" smooth="yes"/>
      <point x="347" y="-14"/>
      <point x="355" y="-23"/>
      <point x="369" y="-23" type="curve"/>
    </contour>
  </outline>
</glyph>
<glyph name="two-ar" format="1">
  <advance width="1017"/>
  <unicode hex="0662"/>
  <outline>
    <contour>
      <point x="454" y="-3" type="line"/>
      <point x="468" y="0"/>
      <point x="477" y="11"/>
      <point x="477" y="25" type="curve"/>
      <point x="479" y="159" type="line"/>
      <point x="479" y="382"/>
      <point x="462" y="602"/>
      <point x="429" y="818" type="curve" smooth="yes"/>
      <point x="428" y="822"/>
      <point x="430" y="823"/>
      <point x="434" y="822" type="curve" smooth="yes"/>
      <point x="470" y="816"/>
      <point x="504" y="812"/>
      <point x="536" y="812" type="curve" smooth="yes"/>
      <point x="762" y="812"/>
      <point x="887" y="972"/>
      <point x="897" y="1273" type="curve" smooth="yes"/>
      <point x="897" y="1289"/>
      <point x="889" y="1297"/>
      <point x="870" y="1300" type="curve" smooth="yes"/>
      <point x="793" y="1314" type="line" smooth="yes"/>
      <point x="778" y="1317"/>
      <point x="766" y="1305"/>
      <point x="764" y="1286" type="curve" smooth="yes"/>
      <point x="755" y="1132"/>
      <point x="674" y="1050"/>
      <point x="541" y="1050" type="curve" smooth="yes"/>
      <point x="506" y="1050"/>
      <point x="467" y="1055"/>
      <point x="425" y="1067" type="curve" smooth="yes"/>
      <point x="417" y="1069"/>
      <point x="414" y="1071"/>
      <point x="411" y="1074" type="curve" smooth="yes"/>
      <point x="374" y="1115"/>
      <point x="330" y="1195"/>
      <point x="284" y="1278" type="curve" smooth="yes"/>
      <point x="279" y="1287"/>
      <point x="271" y="1292"/>
      <point x="263" y="1292" type="curve" smooth="yes"/>
      <point x="256" y="1292"/>
      <point x="249" y="1288"/>
      <point x="243" y="1280" type="curve" smooth="yes"/>
      <point x="127" y="1120" type="line" smooth="yes"/>
      <point x="122" y="1114"/>
      <point x="120" y="1107"/>
      <point x="120" y="1100" type="curve" smooth="yes"/>
      <point x="120" y="1095"/>
      <point x="121" y="1090"/>
      <point x="124" y="1085" type="curve" smooth="yes"/>
      <point x="340" y="697"/>
      <point x="342" y="277"/>
      <point x="347" y="3" type="curve" smooth="yes"/>
      <point x="347" y="-14"/>
      <point x="355" y="-23"/>
      <point x="369" y="-23" type="curve"/>
    </contour>
  </outline>
</glyph>
<glyph name="three-ar" format="1">
  <advance width="1282"/>
  <unicode hex="0663"/>
  <outline>
    <contour>
      <point x="454" y="-3" type="line"/>
      <point x="468" y="0"/>
      <point x="477" y="12"/>
      <point x="477" y="26" type="curve" smooth="yes"/>
      <point x="473" y="357"/>
      <point x="486" y="483"/>
      <point x="427" y="824" type="curve"/>
      <point x="458" y="818"/>
      <point x="487" y="815"/>
      <point x="516" y="815" type="curve" smooth="yes"/>
      <point x="607" y="815"/>
      <point x="682" y="846"/>
      <point x="729" y="904" type="curve"/>
      <point x="786" y="867"/>
      <point x="844" y="849"/>
      <point x="899" y="849" type="curve" smooth="yes"/>
      <point x="1045" y="849"/>
      <point x="1166" y="974"/>
      <point x="1162" y="1166" type="curve" smooth="yes"/>
      <point x="1159" y="1314" type="line" smooth="yes"/>
      <point x="1159" y="1330"/>
      <point x="1150" y="1339"/>
      <point x="1134" y="1341" type="curve" smooth="yes"/>
      <point x="1073" y="1348" type="line" smooth="yes"/>
      <point x="1055" y="1349"/>
      <point x="1043" y="1339"/>
      <point x="1043" y="1322" type="curve" smooth="yes"/>
      <point x="1043" y="1137"/>
      <point x="1005" y="1059"/>
      <point x="894" y="1059" type="curve" smooth="yes"/>
      <point x="862" y="1059"/>
      <point x="825" y="1065"/>
      <point x="782" y="1077" type="curve"/>
      <point x="786" y="1313" type="line" smooth="yes"/>
      <point x="786" y="1328"/>
      <point x="774" y="1340"/>
      <point x="759" y="1340" type="curve" smooth="yes"/>
      <point x="698" y="1343" type="line" smooth="yes"/>
      <point x="682" y="1343"/>
      <point x="671" y="1331"/>
      <point x="671" y="1314" type="curve" smooth="yes"/>
      <point x="666" y="1133"/>
      <point x="652" y="1045"/>
      <point x="524" y="1041" type="curve" smooth="yes"/>
      <point x="377" y="1035"/>
      <point x="349" y="1122"/>
      <point x="284" y="1277" type="curve" smooth="yes"/>
      <point x="280" y="1287"/>
      <point x="272" y="1292"/>
      <point x="264" y="1292" type="curve" smooth="yes"/>
      <point x="256" y="1292"/>
      <point x="249" y="1288"/>
      <point x="243" y="1280" type="curve" smooth="yes"/>
      <point x="127" y="1120" type="line" smooth="yes"/>
      <point x="122" y="1114"/>
      <point x="120" y="1107"/>
      <point x="120" y="1100" type="curve" smooth="yes"/>
      <point x="120" y="1095"/>
      <point x="121" y="1090"/>
      <point x="124" y="1085" type="curve" smooth="yes"/>
      <point x="340" y="697"/>
      <point x="342" y="277"/>
      <point x="347" y="3" type="curve" smooth="yes"/>
      <point x="347" y="-14"/>
      <point x="355" y="-23"/>
      <point x="369" y="-23" type="curve"/>
    </contour>
  </outline>
</glyph>
<glyph name="four-ar" format="1">
  <advance width="1018"/>
  <unicode hex="0664"/>
  <outline>
    <contour>
      <point x="851" y="47" type="curve"/>
      <point x="898" y="214" type="line"/>
      <point x="899" y="230"/>
      <point x="887" y="238"/>
      <point x="869" y="235" type="curve" smooth="yes"/>
      <point x="764" y="216"/>
      <point x="657" y="207"/>
      <point x="561" y="207" type="curve" smooth="yes"/>
      <point x="382" y="207"/>
      <point x="245" y="238"/>
      <point x="245" y="291" type="curve" smooth="yes"/>
      <point x="245" y="345"/>
      <point x="439" y="499"/>
      <point x="643" y="606" type="curve" smooth="yes"/>
      <point x="656" y="613"/>
      <point x="662" y="625"/>
      <point x="659" y="639" type="curve" smooth="yes"/>
      <point x="628" y="789" type="line" smooth="yes"/>
      <point x="623" y="803"/>
      <point x="614" y="811"/>
      <point x="600" y="812" type="curve" smooth="yes"/>
      <point x="510" y="823"/>
      <point x="378" y="847"/>
      <point x="288" y="911" type="curve"/>
      <point x="371" y="1000"/>
      <point x="498" y="1086"/>
      <point x="643" y="1166" type="curve" smooth="yes"/>
      <point x="655" y="1173"/>
      <point x="661" y="1181"/>
      <point x="661" y="1196" type="curve" smooth="yes"/>
      <point x="664" y="1329" type="line" smooth="yes"/>
      <point x="664" y="1345"/>
      <point x="655" y="1354"/>
      <point x="643" y="1354" type="curve" smooth="yes"/>
      <point x="639" y="1354"/>
      <point x="635" y="1353"/>
      <point x="630" y="1351" type="curve" smooth="yes"/>
      <point x="317" y="1186"/>
      <point x="158" y="1008"/>
      <point x="158" y="822" type="curve" smooth="yes"/>
      <point x="158" y="738"/>
      <point x="244" y="682"/>
      <point x="413" y="647" type="curve"/>
      <point x="271" y="543"/>
      <point x="120" y="368"/>
      <point x="120" y="200" type="curve" smooth="yes"/>
      <point x="120" y="34"/>
      <point x="300" y="-8"/>
      <point x="488" y="-8" type="curve" smooth="yes"/>
      <point x="614" y="-8"/>
      <point x="743" y="11"/>
      <point x="825" y="24" type="curve"/>
      <point x="839" y="27"/>
      <point x="847" y="34"/>
    </contour>
  </outline>
</glyph>
<glyph name="five-ar" format="1">
  <advance width="961"/>
  <unicode hex="0665"/>
  <outline>
    <contour>
      <point x="841" y="670" type="curve" smooth="yes"/>
      <point x="841" y="898"/>
      <point x="625" y="1118"/>
      <point x="460" y="1118" type="curve" smooth="yes"/>
      <point x="248" y="1118"/>
      <point x="120" y="716"/>
      <point x="120" y="490" type="curve" smooth="yes"/>
      <point x="120" y="247"/>
      <point x="206" y="135"/>
      <point x="393" y="135" type="curve" smooth="yes"/>
      <point x="663" y="135"/>
      <point x="841" y="349"/>
    </contour>
    <contour>
      <point x="234" y="541" type="curve" smooth="yes"/>
      <point x="234" y="624"/>
      <point x="263" y="873"/>
      <point x="409" y="873" type="curve" smooth="yes"/>
      <point x="527" y="873"/>
      <point x="724" y="716"/>
      <point x="724" y="564" type="curve" smooth="yes"/>
      <point x="724" y="480"/>
      <point x="560" y="364"/>
      <point x="440" y="364" type="curve" smooth="yes"/>
      <point x="308" y="364"/>
      <point x="234" y="428"/>
    </contour>
  </outline>
</glyph>
<glyph name="six-ar" format="1">
  <advance width="1079"/>
  <unicode hex="0666"/>
  <outline>
    <contour>
      <point x="949" y="70" type="line"/>
      <point x="956" y="76"/>
      <point x="959" y="83"/>
      <point x="959" y="90" type="curve" smooth="yes"/>
      <point x="959" y="95"/>
      <point x="957" y="100"/>
      <point x="955" y="105" type="curve" smooth="yes"/>
      <point x="862" y="303"/>
      <point x="816" y="521"/>
      <point x="816" y="768" type="curve" smooth="yes"/>
      <point x="816" y="865"/>
      <point x="823" y="966"/>
      <point x="837" y="1072" type="curve" smooth="yes"/>
      <point x="837" y="1076"/>
      <point x="838" y="1080"/>
      <point x="838" y="1084" type="curve" smooth="yes"/>
      <point x="838" y="1089"/>
      <point x="837" y="1093"/>
      <point x="836" y="1098" type="curve" smooth="yes"/>
      <point x="798" y="1242" type="line" smooth="yes"/>
      <point x="793" y="1256"/>
      <point x="781" y="1263"/>
      <point x="766" y="1262" type="curve" smooth="yes"/>
      <point x="698" y="1256"/>
      <point x="616" y="1252"/>
      <point x="532" y="1252" type="curve" smooth="yes"/>
      <point x="253" y="1252"/>
      <point x="224" y="1293"/>
      <point x="150" y="1293" type="curve" smooth="yes"/>
      <point x="136" y="1293"/>
      <point x="126" y="1283"/>
      <point x="126" y="1268" type="curve" smooth="yes"/>
      <point x="120" y="1086" type="line" smooth="yes"/>
      <point x="120" y="1071"/>
      <point x="128" y="1061"/>
      <point x="142" y="1056" type="curve" smooth="yes"/>
      <point x="223" y="1034"/>
      <point x="337" y="1026"/>
      <point x="449" y="1026" type="curve" smooth="yes"/>
      <point x="543" y="1026"/>
      <point x="636" y="1032"/>
      <point x="707" y="1040" type="curve"/>
      <point x="689" y="880"/>
      <point x="676" y="733"/>
      <point x="676" y="593" type="curve" smooth="yes"/>
      <point x="676" y="380"/>
      <point x="705" y="181"/>
      <point x="786" y="-30" type="curve" smooth="yes"/>
      <point x="791" y="-42"/>
      <point x="799" y="-48"/>
      <point x="807" y="-48" type="curve" smooth="yes"/>
      <point x="813" y="-48"/>
      <point x="819" y="-45"/>
      <point x="825" y="-40" type="curve" smooth="yes"/>
    </contour>
  </outline>
</glyph>
<glyph name="seven-ar" format="1">
  <advance width="1236"/>
  <unicode hex="0667"/>
  <outline>
    <contour>
      <point x="747" y="14" type="line"/>
      <point x="758" y="18"/>
      <point x="765" y="26"/>
      <point x="768" y="38" type="curve" smooth="yes"/>
      <point x="836" y="387"/>
      <point x="937" y="813"/>
      <point x="1113" y="1179" type="curve" smooth="yes"/>
      <point x="1115" y="1184"/>
      <point x="1116" y="1189"/>
      <point x="1116" y="1194" type="curve" smooth="yes"/>
      <point x="1116" y="1201"/>
      <point x="1114" y="1207"/>
      <point x="1110" y="1213" type="curve" smooth="yes"/>
      <point x="1032" y="1329" type="line" smooth="yes"/>
      <point x="1026" y="1338"/>
      <point x="1019" y="1342"/>
      <point x="1012" y="1342" type="curve" smooth="yes"/>
      <point x="1005" y="1342"/>
      <point x="997" y="1337"/>
      <point x="992" y="1326" type="curve" smooth="yes"/>
      <point x="842" y="1029"/>
      <point x="754" y="682"/>
      <point x="685" y="364" type="curve"/>
      <point x="626" y="714"/>
      <point x="413" y="1083"/>
      <point x="277" y="1300" type="curve" smooth="yes"/>
      <point x="272" y="1309"/>
      <point x="264" y="1313"/>
      <point x="257" y="1313" type="curve" smooth="yes"/>
      <point x="250" y="1313"/>
      <point x="242" y="1309"/>
      <point x="237" y="1302" type="curve" smooth="yes"/>
      <point x="127" y="1153" type="line" smooth="yes"/>
      <point x="122" y="1147"/>
      <point x="120" y="1140"/>
      <point x="120" y="1133" type="curve" smooth="yes"/>
      <point x="120" y="1128"/>
      <point x="121" y="1123"/>
      <point x="124" y="1118" type="curve" smooth="yes"/>
      <point x="437" y="619"/>
      <point x="514" y="442"/>
      <point x="606" y="-8" type="curve" smooth="yes"/>
      <point x="610" y="-22"/>
      <point x="618" y="-32"/>
      <point x="629" y="-31" type="curve"/>
    </contour>
  </outline>
</glyph>
<glyph name="eight-ar" format="1">
  <advance width="1214"/>
  <unicode hex="0668"/>
  <outline>
    <contour>
      <point x="224" y="-34" type="curve" smooth="yes"/>
      <point x="232" y="-34"/>
      <point x="240" y="-28"/>
      <point x="245" y="-17" type="curve" smooth="yes"/>
      <point x="373" y="277"/>
      <point x="478" y="639"/>
      <point x="530" y="919" type="curve"/>
      <point x="592" y="622"/>
      <point x="802" y="203"/>
      <point x="935" y="-16" type="curve" smooth="yes"/>
      <point x="941" y="-25"/>
      <point x="948" y="-29"/>
      <point x="956" y="-29" type="curve" smooth="yes"/>
      <point x="963" y="-29"/>
      <point x="971" y="-25"/>
      <point x="976" y="-18" type="curve" smooth="yes"/>
      <point x="1087" y="130" type="line" smooth="yes"/>
      <point x="1092" y="137"/>
      <point x="1094" y="143"/>
      <point x="1094" y="149" type="curve" smooth="yes"/>
      <point x="1094" y="155"/>
      <point x="1092" y="161"/>
      <point x="1088" y="167" type="curve" smooth="yes"/>
      <point x="861" y="488"/>
      <point x="721" y="782"/>
      <point x="608" y="1313" type="curve" smooth="yes"/>
      <point x="605" y="1326"/>
      <point x="595" y="1333"/>
      <point x="585" y="1333" type="curve" smooth="yes"/>
      <point x="580" y="1333"/>
      <point x="574" y="1331"/>
      <point x="569" y="1327" type="curve" smooth="yes"/>
      <point x="472" y="1254" type="line" smooth="yes"/>
      <point x="464" y="1248"/>
      <point x="458" y="1238"/>
      <point x="457" y="1227" type="curve" smooth="yes"/>
      <point x="409" y="891"/>
      <point x="289" y="474"/>
      <point x="123" y="128" type="curve" smooth="yes"/>
      <point x="121" y="124"/>
      <point x="120" y="119"/>
      <point x="120" y="115" type="curve" smooth="yes"/>
      <point x="120" y="108"/>
      <point x="122" y="102"/>
      <point x="127" y="95" type="curve" smooth="yes"/>
      <point x="204" y="-21" type="line" smooth="yes"/>
      <point x="210" y="-30"/>
      <point x="217" y="-34"/>
    </contour>
  </outline>
</glyph>
<glyph name="nine-ar" format="1">
  <advance width="1031"/>
  <unicode hex="0669"/>
  <outline>
    <contour>
      <point x="903" y="119" type="line" smooth="yes"/>
      <point x="909" y="125"/>
      <point x="911" y="132"/>
      <point x="911" y="139" type="curve" smooth="yes"/>
      <point x="911" y="144"/>
      <point x="910" y="148"/>
      <point x="908" y="153" type="curve" smooth="yes"/>
      <point x="814" y="353"/>
      <point x="777" y="552"/>
      <point x="760" y="777" type="curve" smooth="yes"/>
      <point x="743" y="1008"/>
      <point x="717" y="1338"/>
      <point x="446" y="1338" type="curve" smooth="yes"/>
      <point x="244" y="1338"/>
      <point x="120" y="1052"/>
      <point x="120" y="848" type="curve" smooth="yes"/>
      <point x="120" y="666"/>
      <point x="224" y="558"/>
      <point x="395" y="558" type="curve" smooth="yes"/>
      <point x="477" y="558"/>
      <point x="566" y="584"/>
      <point x="625" y="625" type="curve"/>
      <point x="635" y="410"/>
      <point x="654" y="205"/>
      <point x="734" y="-17" type="curve" smooth="yes"/>
      <point x="738" y="-28"/>
      <point x="746" y="-34"/>
      <point x="755" y="-34" type="curve" smooth="yes"/>
      <point x="761" y="-34"/>
      <point x="767" y="-32"/>
      <point x="773" y="-26" type="curve" smooth="yes"/>
    </contour>
    <contour>
      <point x="535" y="783"/>
      <point x="474" y="772"/>
      <point x="417" y="772" type="curve" smooth="yes"/>
      <point x="361" y="772"/>
      <point x="308" y="783"/>
      <point x="254" y="808" type="curve" smooth="yes"/>
      <point x="249" y="810"/>
      <point x="247" y="812"/>
      <point x="247" y="817" type="curve"/>
      <point x="243" y="865" type="line"/>
      <point x="243" y="1001"/>
      <point x="329" y="1130"/>
      <point x="431" y="1130" type="curve" smooth="yes"/>
      <point x="520" y="1130"/>
      <point x="597" y="994"/>
      <point x="611" y="808" type="curve" smooth="yes"/>
      <point x="611" y="804"/>
      <point x="609" y="801"/>
      <point x="604" y="800" type="curve" smooth="yes"/>
    </contour>
  </outline>
</glyph>
<glyph name="percent-ar" format="1">
  <advance width="891"/>
  <unicode hex="066A"/>
  <outline>
    <contour>
      <point x="739" y="997" type="line"/>
      <point x="736" y="1057"/>
      <point x="719" y="1102"/>
      <point x="689" y="1138" type="curve"/>
      <point x="117" y="60" type="line"/>
      <point x="134" y="19"/>
      <point x="159" y="-15"/>
      <point x="190" y="-40" type="curve"/>
    </contour>
    <component base="period" xScale="0.803" yScale="0.803" xOffset="458" yOffset="93"/>
    <component base="period" xScale="0.803" yScale="0.803" xOffset="20" yOffset="788"/>
  </outline>
</glyph>
<glyph name="decimalseparator-ar" format="1">
  <advance width="786"/>
  <unicode hex="066B"/>
  <outline>
    <contour>
      <point x="220" y="-415"/>
      <point x="232" y="-407"/>
      <point x="237" y="-396" type="curve"/>
      <point x="666" y="725" type="line"/>
      <point x="670" y="743"/>
      <point x="655" y="752"/>
      <point x="640" y="754" type="curve" smooth="yes"/>
      <point x="579" y="761" type="line" smooth="yes"/>
      <point x="568" y="762"/>
      <point x="556" y="755"/>
      <point x="552" y="744" type="curve"/>
      <point x="120" y="-378" type="line"/>
      <point x="118" y="-392"/>
      <point x="131" y="-404"/>
      <point x="146" y="-406" type="curve" smooth="yes"/>
      <point x="209" y="-413" type="line" smooth="yes"/>
    </contour>
  </outline>
</glyph>
<glyph name="thousandseparator-ar" format="1">
  <advance width="624"/>
  <unicode hex="066C"/>
  <outline>
    <contour>
      <point x="215" y="16"/>
      <point x="226" y="21"/>
      <point x="231" y="32" type="curve"/>
      <point x="504" y="583" type="line"/>
      <point x="506" y="597"/>
      <point x="494" y="610"/>
      <point x="478" y="612" type="curve" smooth="yes"/>
      <point x="421" y="619" type="line" smooth="yes"/>
      <point x="411" y="620"/>
      <point x="400" y="615"/>
      <point x="395" y="604" type="curve"/>
      <point x="120" y="53" type="line"/>
      <point x="117" y="37"/>
      <point x="131" y="26"/>
      <point x="147" y="24" type="curve" smooth="yes"/>
      <point x="205" y="17" type="line" smooth="yes"/>
    </contour>
  </outline>
</glyph>
<glyph name="asterisk-ar" format="1">
  <advance width="730"/>
  <unicode hex="066D"/>
  <outline>
    <contour>
      <point x="369" y="305" type="line"/>
      <point x="519" y="191" type="line"/>
      <point x="538" y="208" type="line"/>
      <point x="470" y="380" type="line"/>
      <point x="630" y="483" type="line"/>
      <point x="623" y="508" type="line"/>
      <point x="433" y="499" type="line"/>
      <point x="377" y="684" type="line"/>
      <point x="353" y="684" type="line"/>
      <point x="307" y="499" type="line"/>
      <point x="108" y="505" type="line"/>
      <point x="100" y="483" type="line"/>
      <point x="269" y="379" type="line"/>
      <point x="204" y="198" type="line"/>
      <point x="222" y="184" type="line"/>
    </contour>
  </outline>
</glyph>
<glyph name="behDotless-ar" format="1">
  <advance width="1780"/>
  <unicode hex="066E"/>
  <outline>
    <contour>
      <point x="366" y="-38"/>
      <point x="695" y="-38" type="curve" smooth="yes"/>
      <point x="815" y="-38"/>
      <point x="963" y="-22"/>
      <point x="1115" y="1" type="curve" smooth="yes"/>
      <point x="1405" y="45"/>
      <point x="1645" y="137"/>
      <point x="1645" y="419" type="curve" smooth="yes"/>
      <point x="1645" y="508"/>
      <point x="1580" y="781"/>
      <point x="1538" y="950" type="curve" smooth="yes"/>
      <point x="1535" y="962"/>
      <point x="1527" y="968"/>
      <point x="1518" y="968" type="curve" smooth="yes"/>
      <point x="1512" y="968"/>
      <point x="1505" y="965"/>
      <point x="1500" y="959" type="curve" smooth="yes"/>
      <point x="1400" y="859" type="line" smooth="yes"/>
      <point x="1394" y="853"/>
      <point x="1391" y="846"/>
      <point x="1391" y="838" type="curve"/>
      <point x="1515" y="301" type="line"/>
      <point x="1517" y="295"/>
      <point x="1516" y="294"/>
      <point x="1510" y="291" type="curve" smooth="yes"/>
      <point x="1383" y="228"/>
      <point x="1065" y="153"/>
      <point x="769" y="153" type="curve" smooth="yes"/>
      <point x="516" y="153"/>
      <point x="293" y="216"/>
      <point x="293" y="419" type="curve" smooth="yes"/>
      <point x="293" y="437"/>
      <point x="292" y="451"/>
      <point x="308" y="586" type="curve" smooth="yes"/>
      <point x="310" y="601"/>
      <point x="300" y="612"/>
      <point x="285" y="613" type="curve" smooth="yes"/>
      <point x="225" y="619" type="line" smooth="yes"/>
      <point x="210" y="620"/>
      <point x="197" y="611"/>
      <point x="195" y="596" type="curve" smooth="yes"/>
      <point x="174" y="438"/>
      <point x="173" y="398"/>
      <point x="173" y="356" type="curve" smooth="yes"/>
      <point x="173" y="63"/>
    </contour>
    <contour>
      <point x="830" y="856" type="move" name="top"/>
    </contour>
    <contour>
      <point x="832" y="-237" type="move" name="bottom"/>
    </contour>
    <contour>
      <point x="299" y="-136" type="move" name="ring"/>
    </contour>
  </outline>
</glyph>
<glyph name="dotlessbeh-ar" format="1">
  <advance width="1854"/>
  <unicode hex="066E"/>
  <outline>
    <contour>
      <point x="907" y="-247" type="move" name="bottom"/>
    </contour>
    <contour>
      <point x="854" y="871" type="move" name="top"/>
    </contour>
    <contour>
      <point x="724" y="-54" type="curve" smooth="yes"/>
      <point x="849" y="-54"/>
      <point x="1003" y="-37"/>
      <point x="1161" y="-13" type="curve" smooth="yes"/>
      <point x="1464" y="35"/>
      <point x="1714" y="129"/>
      <point x="1714" y="422" type="curve" smooth="yes"/>
      <point x="1714" y="515"/>
      <point x="1644" y="800"/>
      <point x="1602" y="976" type="curve" smooth="yes"/>
      <point x="1599" y="988"/>
      <point x="1591" y="994"/>
      <point x="1581" y="994" type="curve" smooth="yes"/>
      <point x="1575" y="994"/>
      <point x="1568" y="991"/>
      <point x="1562" y="985" type="curve" smooth="yes"/>
      <point x="1458" y="881" type="line" smooth="yes"/>
      <point x="1452" y="875"/>
      <point x="1449" y="867"/>
      <point x="1449" y="859" type="curve"/>
      <point x="1578" y="300" type="line"/>
      <point x="1580" y="293"/>
      <point x="1579" y="292"/>
      <point x="1573" y="289" type="curve" smooth="yes"/>
      <point x="1438" y="230"/>
      <point x="1109" y="152"/>
      <point x="801" y="152" type="curve" smooth="yes"/>
      <point x="538" y="152"/>
      <point x="305" y="211"/>
      <point x="305" y="422" type="curve" smooth="yes"/>
      <point x="305" y="441"/>
      <point x="306" y="456"/>
      <point x="321" y="596" type="curve" smooth="yes"/>
      <point x="323" y="612"/>
      <point x="313" y="623"/>
      <point x="297" y="625" type="curve" smooth="yes"/>
      <point x="234" y="631" type="line" smooth="yes"/>
      <point x="219" y="632"/>
      <point x="205" y="622"/>
      <point x="203" y="607" type="curve" smooth="yes"/>
      <point x="184" y="442"/>
      <point x="180" y="401"/>
      <point x="180" y="357" type="curve" smooth="yes"/>
      <point x="180" y="52"/>
      <point x="381" y="-54"/>
    </contour>
  </outline>
</glyph>
<glyph name="dotlessqaf-ar" format="1">
  <advance width="1660"/>
  <unicode hex="066F"/>
  <outline>
    <contour>
      <point x="733" y="-732" type="move" name="bottom"/>
    </contour>
    <contour>
      <point x="1130" y="1023" type="move" name="top"/>
    </contour>
    <contour>
      <point x="1454" y="-265" type="curve" smooth="yes"/>
      <point x="1510" y="-184"/>
      <point x="1515" y="-73"/>
      <point x="1520" y="67" type="curve" smooth="yes"/>
      <point x="1530" y="398"/>
      <point x="1364" y="822"/>
      <point x="1126" y="822" type="curve" smooth="yes"/>
      <point x="887" y="822"/>
      <point x="749" y="483"/>
      <point x="749" y="245" type="curve" smooth="yes"/>
      <point x="749" y="25"/>
      <point x="896" y="-46"/>
      <point x="1060" y="-46" type="curve" smooth="yes"/>
      <point x="1167" y="-46"/>
      <point x="1281" y="-15"/>
      <point x="1365" y="25" type="curve" smooth="yes"/>
      <point x="1370" y="28"/>
      <point x="1370" y="27"/>
      <point x="1370" y="23" type="curve" smooth="yes"/>
      <point x="1361" y="-180" type="line" smooth="yes"/>
      <point x="1361" y="-184"/>
      <point x="1359" y="-187"/>
      <point x="1353" y="-189" type="curve" smooth="yes"/>
      <point x="1287" y="-213"/>
      <point x="1001" y="-308"/>
      <point x="658" y="-308" type="curve" smooth="yes"/>
      <point x="433" y="-308"/>
      <point x="311" y="-197"/>
      <point x="321" y="2" type="curve" smooth="yes"/>
      <point x="322" y="23"/>
      <point x="326" y="45"/>
      <point x="370" y="283" type="curve" smooth="yes"/>
      <point x="373" y="299"/>
      <point x="365" y="313"/>
      <point x="349" y="317" type="curve" smooth="yes"/>
      <point x="270" y="333" type="line" smooth="yes"/>
      <point x="254" y="336"/>
      <point x="240" y="327"/>
      <point x="237" y="311" type="curve" smooth="yes"/>
      <point x="188" y="20"/>
      <point x="180" y="-22"/>
      <point x="180" y="-86" type="curve" smooth="yes"/>
      <point x="180" y="-326"/>
      <point x="314" y="-529"/>
      <point x="630" y="-529" type="curve" smooth="yes"/>
      <point x="832" y="-529"/>
      <point x="1318" y="-465"/>
    </contour>
    <contour>
      <point x="1104" y="156" type="curve" smooth="yes"/>
      <point x="1025" y="156"/>
      <point x="957" y="169"/>
      <point x="898" y="196" type="curve" smooth="yes"/>
      <point x="894" y="198"/>
      <point x="893" y="200"/>
      <point x="892" y="208" type="curve" smooth="yes"/>
      <point x="879" y="383"/>
      <point x="947" y="611"/>
      <point x="1085" y="611" type="curve" smooth="yes"/>
      <point x="1206" y="611"/>
      <point x="1343" y="407"/>
      <point x="1361" y="198" type="curve" smooth="yes"/>
      <point x="1362" y="193"/>
      <point x="1359" y="190"/>
      <point x="1354" y="189" type="curve" smooth="yes"/>
      <point x="1259" y="167"/>
      <point x="1177" y="156"/>
    </contour>
  </outline>
</glyph>
<glyph name="qafDotless-ar" format="1">
  <advance width="1594"/>
  <unicode hex="066F"/>
  <outline>
    <contour>
      <point x="799" y="-508"/>
      <point x="1265" y="-446"/>
      <point x="1396" y="-254" type="curve" smooth="yes"/>
      <point x="1450" y="-177"/>
      <point x="1454" y="-70"/>
      <point x="1459" y="64" type="curve" smooth="yes"/>
      <point x="1469" y="382"/>
      <point x="1309" y="789"/>
      <point x="1081" y="789" type="curve" smooth="yes"/>
      <point x="852" y="789"/>
      <point x="719" y="464"/>
      <point x="719" y="235" type="curve" smooth="yes"/>
      <point x="719" y="24"/>
      <point x="860" y="-39"/>
      <point x="1018" y="-39" type="curve" smooth="yes"/>
      <point x="1120" y="-39"/>
      <point x="1230" y="-14"/>
      <point x="1310" y="24" type="curve" smooth="yes"/>
      <point x="1315" y="27"/>
      <point x="1315" y="26"/>
      <point x="1315" y="22" type="curve" smooth="yes"/>
      <point x="1307" y="-173" type="line" smooth="yes"/>
      <point x="1307" y="-177"/>
      <point x="1305" y="-180"/>
      <point x="1299" y="-181" type="curve" smooth="yes"/>
      <point x="1236" y="-204"/>
      <point x="961" y="-296"/>
      <point x="632" y="-296" type="curve" smooth="yes"/>
      <point x="416" y="-296"/>
      <point x="299" y="-189"/>
      <point x="308" y="2" type="curve" smooth="yes"/>
      <point x="309" y="22"/>
      <point x="313" y="43"/>
      <point x="355" y="272" type="curve" smooth="yes"/>
      <point x="358" y="287"/>
      <point x="350" y="300"/>
      <point x="335" y="304" type="curve" smooth="yes"/>
      <point x="259" y="320" type="line" smooth="yes"/>
      <point x="244" y="323"/>
      <point x="230" y="314"/>
      <point x="228" y="299" type="curve" smooth="yes"/>
      <point x="180" y="19"/>
      <point x="173" y="-21"/>
      <point x="173" y="-83" type="curve" smooth="yes"/>
      <point x="173" y="-313"/>
      <point x="301" y="-508"/>
      <point x="605" y="-508" type="curve" smooth="yes"/>
    </contour>
    <contour>
      <point x="1209" y="160"/>
      <point x="1130" y="155"/>
      <point x="1060" y="155" type="curve" smooth="yes"/>
      <point x="984" y="155"/>
      <point x="919" y="162"/>
      <point x="862" y="188" type="curve" smooth="yes"/>
      <point x="858" y="190"/>
      <point x="857" y="192"/>
      <point x="856" y="200" type="curve" smooth="yes"/>
      <point x="844" y="368"/>
      <point x="909" y="587"/>
      <point x="1042" y="587" type="curve" smooth="yes"/>
      <point x="1158" y="587"/>
      <point x="1289" y="391"/>
      <point x="1307" y="190" type="curve" smooth="yes"/>
      <point x="1308" y="185"/>
      <point x="1305" y="182"/>
      <point x="1300" y="181" type="curve" smooth="yes"/>
    </contour>
    <contour>
      <point x="1085" y="992" type="move" name="top"/>
    </contour>
    <contour>
      <point x="614" y="-713" type="move" name="bottom"/>
    </contour>
  </outline>
</glyph>
<glyph name="alefabove-ar" format="1">
  <advance width="0"/>
  <unicode hex="0670"/>
  <outline>
    <contour>
      <point x="126" y="858" type="line" smooth="yes"/>
      <point x="130" y="861"/>
      <point x="134" y="867"/>
      <point x="134" y="873" type="curve" smooth="yes"/>
      <point x="132" y="1285" type="line" smooth="yes"/>
      <point x="132" y="1294"/>
      <point x="125" y="1300"/>
      <point x="118" y="1300" type="curve" smooth="yes"/>
      <point x="116" y="1300"/>
      <point x="113" y="1299"/>
      <point x="111" y="1298" type="curve" smooth="yes"/>
      <point x="10" y="1241" type="line" smooth="yes"/>
      <point x="4" y="1237"/>
      <point x="0" y="1231"/>
      <point x="0" y="1225" type="curve" smooth="yes"/>
      <point x="26" y="811" type="line" smooth="yes"/>
      <point x="27" y="803"/>
      <point x="32" y="798"/>
      <point x="39" y="798" type="curve" smooth="yes"/>
      <point x="42" y="798"/>
      <point x="45" y="798"/>
      <point x="48" y="800" type="curve" smooth="yes"/>
    </contour>
    <contour>
      <point x="67" y="1484" type="move" name="top"/>
    </contour>
    <contour>
      <point x="67" y="812" type="move" name="_top"/>
    </contour>
  </outline>
</glyph>
<glyph name="highhamza-ar" format="1">
  <advance width="0"/>
  <unicode hex="0674"/>
  <outline>
    <contour>
      <point x="286" y="362" type="move" name="bottom"/>
    </contour>
    <contour>
      <point x="286" y="1220" type="move" name="top"/>
    </contour>
    <component base="hamzacenter-ar" yOffset="311"/>
  </outline>
</glyph>
<glyph name="hahThreedotsabove-ar" format="1">
  <advance width="1472"/>
  <unicode hex="0685"/>
  <outline>
    <component base="hah-ar"/>
    <component base="threedotsupabove-ar" xOffset="153" yOffset="462"/>
    <contour>
      <point x="822" y="-928" type="move" name="bottom"/>
    </contour>
  </outline>
</glyph>
<glyph name="hahThreedotsabove-ar" format="1">
  <advance width="1250"/>
  <unicode hex="0685"/>
  <outline>
    <contour>
      <point x="700" y="-822" type="move" name="bottom"/>
    </contour>
    <component base="hah-ar"/>
    <component base="threedotsupabove-ar" xOffset="162" yOffset="331"/>
  </outline>
</glyph>
<glyph name="dalRing-ar" format="1">
  <advance width="1182"/>
  <unicode hex="0689"/>
  <outline>
    <component base="dal-ar"/>
    <component base="ringbelow-ar" xOffset="712" yOffset="346"/>
    <contour>
      <point x="551" y="-478" type="move" name="bottom"/>
    </contour>
  </outline>
</glyph>
<glyph name="dalRing-ar" format="1">
  <advance width="1182"/>
  <unicode hex="0689"/>
  <outline>
    <contour>
      <point x="551" y="-478" type="move" name="bottom"/>
    </contour>
    <component base="dal-ar"/>
    <component base="ringbelow-ar" xOffset="712" yOffset="346"/>
  </outline>
</glyph>
<glyph name="dul-ar" format="1">
  <advance width="1182"/>
  <unicode hex="068E"/>
  <outline>
    <component base="dal-ar"/>
    <component base="threedotsupabove-ar" xOffset="328" yOffset="578"/>
    <contour>
      <point x="551" y="-248" type="move" name="bottom"/>
    </contour>
  </outline>
</glyph>
<glyph name="rehRing-ar" format="1">
  <advance width="925"/>
  <unicode hex="0693"/>
  <outline>
    <component base="reh-ar"/>
    <component base="ringbelow-ar" xOffset="478" yOffset="56"/>
    <contour>
      <point x="299" y="-740" type="move" name="bottom"/>
    </contour>
  </outline>
</glyph>
<glyph name="rehRing-ar" format="1">
  <advance width="925"/>
  <unicode hex="0693"/>
  <outline>
    <contour>
      <point x="299" y="-740" type="move" name="bottom"/>
    </contour>
    <component base="reh-ar"/>
    <component base="ringbelow-ar" xOffset="478" yOffset="56"/>
  </outline>
</glyph>
<glyph name="jeh-ar" format="1">
  <advance width="925"/>
  <unicode hex="0698"/>
  <outline>
    <contour>
      <point x="299" y="-640" type="move" name="bottom"/>
    </contour>
    <component base="reh-ar"/>
    <component base="threedotsupabove-ar" xOffset="297" yOffset="356"/>
  </outline>
</glyph>
<glyph name="seenDotbelowDotabove-ar" format="1">
  <advance width="2303"/>
  <unicode hex="069A"/>
  <outline>
    <contour>
      <point x="613" y="-578" type="move" name="bottom"/>
    </contour>
    <contour>
      <point x="645" y="620" type="move" name="top"/>
    </contour>
    <component base="seen-ar"/>
    <component base="dotabove-ar" xOffset="1504" yOffset="-7"/>
    <component base="dotcenter-ar" xOffset="1578" yOffset="-818"/>
  </outline>
</glyph>
<glyph name="dotlessfeh-ar" format="1">
  <advance width="1878"/>
  <unicode hex="06A1"/>
  <outline>
    <contour>
      <point x="866" y="-246" type="move" name="bottom"/>
    </contour>
    <contour>
      <point x="1368" y="1323" type="move" name="top"/>
    </contour>
    <contour>
      <point x="725" y="-52" type="curve" smooth="yes"/>
      <point x="952" y="-52"/>
      <point x="1208" y="-6"/>
      <point x="1402" y="44" type="curve" smooth="yes"/>
      <point x="1685" y="119"/>
      <point x="1738" y="299"/>
      <point x="1738" y="457" type="curve" smooth="yes"/>
      <point x="1738" y="734"/>
      <point x="1591" y="1126"/>
      <point x="1373" y="1126" type="curve" smooth="yes"/>
      <point x="1135" y="1126"/>
      <point x="1019" y="833"/>
      <point x="1019" y="595" type="curve" smooth="yes"/>
      <point x="1019" y="402"/>
      <point x="1161" y="339"/>
      <point x="1313" y="339" type="curve" smooth="yes"/>
      <point x="1411" y="339"/>
      <point x="1514" y="365"/>
      <point x="1585" y="400" type="curve" smooth="yes"/>
      <point x="1595" y="405"/>
      <point x="1602" y="400"/>
      <point x="1603" y="389" type="curve" smooth="yes"/>
      <point x="1606" y="302" type="line"/>
      <point x="1481" y="244"/>
      <point x="1116" y="154"/>
      <point x="798" y="154" type="curve" smooth="yes"/>
      <point x="537" y="154"/>
      <point x="306" y="213"/>
      <point x="306" y="424" type="curve" smooth="yes"/>
      <point x="306" y="445"/>
      <point x="309" y="473"/>
      <point x="321" y="595" type="curve" smooth="yes"/>
      <point x="323" y="611"/>
      <point x="312" y="622"/>
      <point x="296" y="624" type="curve" smooth="yes"/>
      <point x="233" y="630" type="line" smooth="yes"/>
      <point x="217" y="632"/>
      <point x="204" y="620"/>
      <point x="202" y="605" type="curve" smooth="yes"/>
      <point x="185" y="445"/>
      <point x="180" y="398"/>
      <point x="180" y="359" type="curve" smooth="yes"/>
      <point x="180" y="53"/>
      <point x="381" y="-52"/>
    </contour>
    <contour>
      <point x="1140" y="580" type="curve"/>
      <point x="1140" y="782"/>
      <point x="1219" y="915"/>
      <point x="1332" y="915" type="curve" smooth="yes"/>
      <point x="1433" y="915"/>
      <point x="1549" y="750"/>
      <point x="1586" y="556" type="curve"/>
      <point x="1584" y="555"/>
      <point x="1482" y="530"/>
      <point x="1364" y="530" type="curve" smooth="yes"/>
      <point x="1236" y="530"/>
      <point x="1143" y="565"/>
    </contour>
  </outline>
</glyph>
<glyph name="fehDotless-ar" format="1">
  <advance width="1803"/>
  <unicode hex="06A1"/>
  <outline>
    <contour>
      <point x="173" y="61"/>
      <point x="366" y="-39"/>
      <point x="696" y="-39" type="curve" smooth="yes"/>
      <point x="914" y="-39"/>
      <point x="1160" y="-6"/>
      <point x="1346" y="42" type="curve" smooth="yes"/>
      <point x="1618" y="114"/>
      <point x="1668" y="287"/>
      <point x="1668" y="439" type="curve" smooth="yes"/>
      <point x="1668" y="705"/>
      <point x="1527" y="1081"/>
      <point x="1318" y="1081" type="curve" smooth="yes"/>
      <point x="1090" y="1081"/>
      <point x="978" y="800"/>
      <point x="978" y="571" type="curve" smooth="yes"/>
      <point x="978" y="386"/>
      <point x="1115" y="325"/>
      <point x="1260" y="325" type="curve" smooth="yes"/>
      <point x="1355" y="325"/>
      <point x="1453" y="350"/>
      <point x="1522" y="384" type="curve" smooth="yes"/>
      <point x="1531" y="389"/>
      <point x="1538" y="384"/>
      <point x="1539" y="373" type="curve" smooth="yes"/>
      <point x="1542" y="290" type="line"/>
      <point x="1422" y="234"/>
      <point x="1071" y="152"/>
      <point x="766" y="152" type="curve" smooth="yes"/>
      <point x="516" y="152"/>
      <point x="294" y="215"/>
      <point x="294" y="418" type="curve" smooth="yes"/>
      <point x="294" y="438"/>
      <point x="294" y="468"/>
      <point x="308" y="585" type="curve" smooth="yes"/>
      <point x="310" y="600"/>
      <point x="300" y="611"/>
      <point x="284" y="612" type="curve" smooth="yes"/>
      <point x="224" y="618" type="line" smooth="yes"/>
      <point x="208" y="620"/>
      <point x="196" y="609"/>
      <point x="194" y="594" type="curve" smooth="yes"/>
      <point x="174" y="442"/>
      <point x="173" y="393"/>
      <point x="173" y="355" type="curve" smooth="yes"/>
    </contour>
    <contour>
      <point x="1187" y="509"/>
      <point x="1097" y="542"/>
      <point x="1094" y="557" type="curve"/>
      <point x="1094" y="751"/>
      <point x="1170" y="878"/>
      <point x="1279" y="878" type="curve" smooth="yes"/>
      <point x="1376" y="878"/>
      <point x="1487" y="720"/>
      <point x="1523" y="534" type="curve"/>
      <point x="1521" y="533"/>
      <point x="1423" y="509"/>
      <point x="1309" y="509" type="curve" smooth="yes"/>
    </contour>
    <contour>
      <point x="1313" y="1290" type="move" name="top"/>
    </contour>
    <contour>
      <point x="711" y="-236" type="move" name="bottom"/>
    </contour>
  </outline>
</glyph>
<glyph name="veh-ar" format="1">
  <advance width="1878"/>
  <unicode hex="06A4"/>
  <outline>
    <contour>
      <point x="866" y="-246" type="move" name="bottom"/>
    </contour>
    <component base="dotlessfeh-ar"/>
    <component base="threedotsupabove-ar" xOffset="1057" yOffset="693"/>
  </outline>
</glyph>
<glyph name="keheh-ar" format="1">
  <advance width="1733"/>
  <unicode hex="06A9"/>
  <outline>
    <contour>
      <point x="180" y="69"/>
      <point x="382" y="-31"/>
      <point x="735" y="-31" type="curve" smooth="yes"/>
      <point x="1074" y="-31"/>
      <point x="1376" y="50"/>
      <point x="1515" y="111" type="curve" smooth="yes"/>
      <point x="1520" y="113"/>
      <point x="1524" y="118"/>
      <point x="1529" y="130" type="curve" smooth="yes"/>
      <point x="1561" y="200"/>
      <point x="1592" y="301"/>
      <point x="1592" y="364" type="curve" smooth="yes"/>
      <point x="1592" y="596"/>
      <point x="1287" y="959"/>
      <point x="1066" y="1077" type="curve" smooth="yes"/>
      <point x="1062" y="1079"/>
      <point x="1063" y="1080"/>
      <point x="1067" y="1081" type="curve" smooth="yes"/>
      <point x="1722" y="1287" type="line" smooth="yes"/>
      <point x="1736" y="1292"/>
      <point x="1744" y="1301"/>
      <point x="1745" y="1314" type="curve" smooth="yes"/>
      <point x="1763" y="1459" type="line" smooth="yes"/>
      <point x="1765" y="1476"/>
      <point x="1756" y="1489"/>
      <point x="1741" y="1487" type="curve"/>
      <point x="1047" y="1255" type="line"/>
      <point x="1035" y="1251"/>
      <point x="1029" y="1246"/>
      <point x="1023" y="1235" type="curve"/>
      <point x="900" y="970" type="line"/>
      <point x="898" y="960"/>
      <point x="905" y="953"/>
      <point x="916" y="947" type="curve" smooth="yes"/>
      <point x="1291" y="745"/>
      <point x="1440" y="456"/>
      <point x="1485" y="300" type="curve" smooth="yes"/>
      <point x="1487" y="295"/>
      <point x="1487" y="295"/>
      <point x="1481" y="292" type="curve" smooth="yes"/>
      <point x="1364" y="245"/>
      <point x="1101" y="175"/>
      <point x="798" y="175" type="curve" smooth="yes"/>
      <point x="540" y="175"/>
      <point x="304" y="233"/>
      <point x="304" y="445" type="curve" smooth="yes"/>
      <point x="304" y="454"/>
      <point x="306" y="474"/>
      <point x="320" y="616" type="curve" smooth="yes"/>
      <point x="322" y="632"/>
      <point x="311" y="644"/>
      <point x="295" y="646" type="curve" smooth="yes"/>
      <point x="232" y="651" type="line" smooth="yes"/>
      <point x="216" y="653"/>
      <point x="202" y="642"/>
      <point x="201" y="626" type="curve" smooth="yes"/>
      <point x="183" y="455"/>
      <point x="180" y="433"/>
      <point x="180" y="384" type="curve" smooth="yes"/>
    </contour>
    <contour>
      <point x="610" y="1101" type="move" name="top"/>
    </contour>
    <contour>
      <point x="802" y="-232" type="move" name="bottom"/>
    </contour>
  </outline>
</glyph>
<glyph name="ng-ar" format="1">
  <advance width="1530"/>
  <unicode hex="06AD"/>
  <outline>
    <component base="kaf-ar"/>
    <component base="threedotsupabove-ar" xOffset="439" yOffset="308"/>
    <contour>
      <point x="693" y="-225" type="move" name="bottom"/>
    </contour>
  </outline>
</glyph>
<glyph name="gaf-ar" format="1">
  <advance width="1733"/>
  <unicode hex="06AF"/>
  <outline>
    <contour>
      <point x="802" y="-232" type="move" name="bottom"/>
    </contour>
    <contour>
      <point x="610" y="1180" type="move" name="top"/>
    </contour>
    <contour>
      <point x="735" y="-31" type="curve" smooth="yes"/>
      <point x="1074" y="-31"/>
      <point x="1376" y="50"/>
      <point x="1515" y="111" type="curve" smooth="yes"/>
      <point x="1520" y="113"/>
      <point x="1524" y="117"/>
      <point x="1529" y="130" type="curve" smooth="yes"/>
      <point x="1561" y="200"/>
      <point x="1592" y="301"/>
      <point x="1592" y="364" type="curve" smooth="yes"/>
      <point x="1592" y="596"/>
      <point x="1287" y="959"/>
      <point x="1066" y="1077" type="curve" smooth="yes"/>
      <point x="1062" y="1079"/>
      <point x="1062" y="1080"/>
      <point x="1067" y="1081" type="curve" smooth="yes"/>
      <point x="1722" y="1287" type="line" smooth="yes"/>
      <point x="1736" y="1292"/>
      <point x="1744" y="1301"/>
      <point x="1745" y="1314" type="curve" smooth="yes"/>
      <point x="1763" y="1459" type="line" smooth="yes"/>
      <point x="1765" y="1476"/>
      <point x="1756" y="1487"/>
      <point x="1741" y="1487" type="curve"/>
      <point x="1047" y="1255" type="line"/>
      <point x="1035" y="1252"/>
      <point x="1029" y="1246"/>
      <point x="1023" y="1235" type="curve"/>
      <point x="900" y="970" type="line"/>
      <point x="899" y="959"/>
      <point x="905" y="952"/>
      <point x="916" y="947" type="curve" smooth="yes"/>
      <point x="1291" y="745"/>
      <point x="1440" y="456"/>
      <point x="1485" y="300" type="curve" smooth="yes"/>
      <point x="1487" y="295"/>
      <point x="1487" y="295"/>
      <point x="1481" y="292" type="curve" smooth="yes"/>
      <point x="1364" y="245"/>
      <point x="1101" y="175"/>
      <point x="798" y="175" type="curve" smooth="yes"/>
      <point x="540" y="175"/>
      <point x="304" y="233"/>
      <point x="304" y="445" type="curve" smooth="yes"/>
      <point x="304" y="454"/>
      <point x="304" y="460"/>
      <point x="320" y="616" type="curve" smooth="yes"/>
      <point x="321" y="632"/>
      <point x="311" y="644"/>
      <point x="295" y="646" type="curve" smooth="yes"/>
      <point x="232" y="651" type="line" smooth="yes"/>
      <point x="216" y="653"/>
      <point x="202" y="642"/>
      <point x="201" y="626" type="curve" smooth="yes"/>
      <point x="183" y="455"/>
      <point x="180" y="433"/>
      <point x="180" y="384" type="curve" smooth="yes"/>
      <point x="180" y="69"/>
      <point x="382" y="-31"/>
    </contour>
    <contour>
      <point x="1589" y="1576" type="line"/>
      <point x="1601" y="1580"/>
      <point x="1609" y="1589"/>
      <point x="1612" y="1601" type="curve" smooth="yes"/>
      <point x="1632" y="1677" type="line" smooth="yes"/>
      <point x="1636" y="1695"/>
      <point x="1626" y="1707"/>
      <point x="1611" y="1707" type="curve"/>
      <point x="1170" y="1567" type="line"/>
      <point x="1158" y="1562"/>
      <point x="1152" y="1557"/>
      <point x="1147" y="1546" type="curve"/>
      <point x="1107" y="1449" type="line"/>
      <point x="1106" y="1438"/>
      <point x="1114" y="1430"/>
      <point x="1126" y="1430" type="curve"/>
    </contour>
  </outline>
</glyph>
<glyph name="noonghunna-ar" format="1">
  <advance width="1527"/>
  <unicode hex="06BA"/>
  <outline>
    <contour>
      <point x="751" y="-724" type="move" name="bottom"/>
    </contour>
    <contour>
      <point x="724" y="432" type="move" name="top"/>
    </contour>
    <contour>
      <point x="1341" y="-267" type="curve" smooth="yes"/>
      <point x="1375" y="-222"/>
      <point x="1387" y="-175"/>
      <point x="1387" y="-114" type="curve" smooth="yes"/>
      <point x="1387" y="-56"/>
      <point x="1381" y="-17"/>
      <point x="1305" y="580" type="curve" smooth="yes"/>
      <point x="1303" y="598"/>
      <point x="1291" y="608"/>
      <point x="1276" y="608" type="curve" smooth="yes"/>
      <point x="1270" y="608"/>
      <point x="1263" y="606"/>
      <point x="1256" y="601" type="curve" smooth="yes"/>
      <point x="1145" y="519" type="line" smooth="yes"/>
      <point x="1139" y="515"/>
      <point x="1136" y="506"/>
      <point x="1136" y="498" type="curve"/>
      <point x="1243" y="-169" type="line"/>
      <point x="1243" y="-170"/>
      <point x="1242" y="-173"/>
      <point x="1237" y="-176" type="curve" smooth="yes"/>
      <point x="1179" y="-214"/>
      <point x="944" y="-310"/>
      <point x="636" y="-310" type="curve" smooth="yes"/>
      <point x="429" y="-310"/>
      <point x="320" y="-215"/>
      <point x="320" y="-40" type="curve" smooth="yes"/>
      <point x="320" y="16"/>
      <point x="327" y="43"/>
      <point x="366" y="236" type="curve" smooth="yes"/>
      <point x="369" y="252"/>
      <point x="359" y="265"/>
      <point x="342" y="268" type="curve" smooth="yes"/>
      <point x="268" y="279" type="line" smooth="yes"/>
      <point x="254" y="281"/>
      <point x="240" y="273"/>
      <point x="237" y="257" type="curve" smooth="yes"/>
      <point x="188" y="10"/>
      <point x="180" y="-20"/>
      <point x="180" y="-104" type="curve" smooth="yes"/>
      <point x="180" y="-337"/>
      <point x="299" y="-531"/>
      <point x="608" y="-531" type="curve" smooth="yes"/>
      <point x="836" y="-531"/>
      <point x="1219" y="-426"/>
    </contour>
  </outline>
</glyph>
<glyph name="hehDoachashmee-ar" format="1">
  <advance width="1347"/>
  <unicode hex="06BE"/>
  <outline>
    <contour>
      <point x="255" y="-177"/>
      <point x="290" y="-177" type="curve" smooth="yes"/>
      <point x="355" y="-177"/>
      <point x="400" y="-139"/>
      <point x="461" y="-51" type="curve" smooth="yes"/>
      <point x="574" y="113" type="line"/>
      <point x="578" y="118"/>
      <point x="581" y="119"/>
      <point x="587" y="119" type="curve"/>
      <point x="1115" y="35" type="line" smooth="yes"/>
      <point x="1129" y="34"/>
      <point x="1140" y="39"/>
      <point x="1145" y="52" type="curve" smooth="yes"/>
      <point x="1189" y="148"/>
      <point x="1212" y="235"/>
      <point x="1212" y="321" type="curve" smooth="yes"/>
      <point x="1212" y="541"/>
      <point x="1053" y="750"/>
      <point x="674" y="1081" type="curve" smooth="yes"/>
      <point x="667" y="1086"/>
      <point x="660" y="1089"/>
      <point x="655" y="1089" type="curve" smooth="yes"/>
      <point x="647" y="1089"/>
      <point x="640" y="1084"/>
      <point x="636" y="1074" type="curve" smooth="yes"/>
      <point x="557" y="925" type="line" smooth="yes"/>
      <point x="554" y="920"/>
      <point x="552" y="918"/>
      <point x="545" y="915" type="curve" smooth="yes"/>
      <point x="360" y="841"/>
      <point x="173" y="570"/>
      <point x="173" y="372" type="curve" smooth="yes"/>
      <point x="173" y="252"/>
      <point x="247" y="159"/>
      <point x="379" y="116" type="curve" smooth="yes"/>
      <point x="386" y="114"/>
      <point x="386" y="113"/>
      <point x="383" y="110" type="curve" smooth="yes"/>
      <point x="188" y="-122" type="line" smooth="yes"/>
      <point x="184" y="-127"/>
      <point x="181" y="-132"/>
      <point x="181" y="-138" type="curve" smooth="yes"/>
      <point x="181" y="-165"/>
    </contour>
    <contour>
      <point x="366" y="327"/>
      <point x="298" y="385"/>
      <point x="298" y="469" type="curve" smooth="yes"/>
      <point x="298" y="619"/>
      <point x="437" y="725"/>
      <point x="559" y="725" type="curve" smooth="yes"/>
      <point x="617" y="725"/>
      <point x="673" y="700"/>
      <point x="706" y="642" type="curve" smooth="yes"/>
      <point x="709" y="636"/>
      <point x="709" y="635"/>
      <point x="707" y="630" type="curve" smooth="yes"/>
      <point x="520" y="300" type="line" smooth="yes"/>
      <point x="518" y="296"/>
      <point x="516" y="295"/>
      <point x="510" y="297" type="curve" smooth="yes"/>
    </contour>
    <contour>
      <point x="704" y="301" type="line" smooth="yes"/>
      <point x="699" y="302"/>
      <point x="698" y="303"/>
      <point x="698" y="306" type="curve"/>
      <point x="819" y="662" type="line"/>
      <point x="821" y="666"/>
      <point x="822" y="667"/>
      <point x="826" y="663" type="curve" smooth="yes"/>
      <point x="939" y="552"/>
      <point x="1092" y="361"/>
      <point x="1098" y="229" type="curve" smooth="yes"/>
      <point x="1098" y="225"/>
      <point x="1096" y="224"/>
      <point x="1092" y="225" type="curve" smooth="yes"/>
    </contour>
    <contour>
      <point x="662" y="1280" type="move" name="top"/>
    </contour>
    <contour>
      <point x="666" y="-320" type="move" name="bottom"/>
    </contour>
  </outline>
</glyph>
<glyph name="hehDoachashmee-ar" format="1">
  <advance width="1403"/>
  <unicode hex="06BE"/>
  <outline>
    <contour>
      <point x="694" y="-292" type="move" name="bottom"/>
    </contour>
    <contour>
      <point x="679" y="1344" type="move" name="top"/>
    </contour>
    <contour>
      <point x="302" y="-184" type="curve" smooth="yes"/>
      <point x="370" y="-184"/>
      <point x="417" y="-145"/>
      <point x="480" y="-53" type="curve" smooth="yes"/>
      <point x="598" y="118" type="line"/>
      <point x="602" y="123"/>
      <point x="605" y="124"/>
      <point x="611" y="124" type="curve"/>
      <point x="1161" y="36" type="line" smooth="yes"/>
      <point x="1176" y="35"/>
      <point x="1188" y="41"/>
      <point x="1193" y="54" type="curve" smooth="yes"/>
      <point x="1239" y="154"/>
      <point x="1263" y="245"/>
      <point x="1263" y="334" type="curve" smooth="yes"/>
      <point x="1263" y="564"/>
      <point x="1097" y="781"/>
      <point x="702" y="1126" type="curve" smooth="yes"/>
      <point x="695" y="1131"/>
      <point x="688" y="1134"/>
      <point x="682" y="1134" type="curve" smooth="yes"/>
      <point x="674" y="1134"/>
      <point x="667" y="1129"/>
      <point x="662" y="1119" type="curve" smooth="yes"/>
      <point x="580" y="964" type="line" smooth="yes"/>
      <point x="577" y="958"/>
      <point x="575" y="956"/>
      <point x="568" y="953" type="curve" smooth="yes"/>
      <point x="375" y="876"/>
      <point x="180" y="594"/>
      <point x="180" y="388" type="curve" smooth="yes"/>
      <point x="180" y="262"/>
      <point x="257" y="166"/>
      <point x="395" y="121" type="curve" smooth="yes"/>
      <point x="402" y="119"/>
      <point x="402" y="118"/>
      <point x="399" y="115" type="curve" smooth="yes"/>
      <point x="196" y="-127" type="line" smooth="yes"/>
      <point x="192" y="-132"/>
      <point x="189" y="-138"/>
      <point x="189" y="-144" type="curve" smooth="yes"/>
      <point x="189" y="-172"/>
      <point x="266" y="-184"/>
    </contour>
    <contour>
      <point x="310" y="489" type="curve" smooth="yes"/>
      <point x="310" y="645"/>
      <point x="455" y="755"/>
      <point x="582" y="755" type="curve" smooth="yes"/>
      <point x="643" y="755"/>
      <point x="701" y="729"/>
      <point x="735" y="669" type="curve" smooth="yes"/>
      <point x="739" y="663"/>
      <point x="739" y="661"/>
      <point x="736" y="656" type="curve" smooth="yes"/>
      <point x="542" y="313" type="line" smooth="yes"/>
      <point x="540" y="308"/>
      <point x="538" y="307"/>
      <point x="531" y="309" type="curve" smooth="yes"/>
      <point x="381" y="341"/>
      <point x="310" y="401"/>
    </contour>
    <contour>
      <point x="733" y="314" type="line" smooth="yes"/>
      <point x="728" y="315"/>
      <point x="727" y="316"/>
      <point x="727" y="319" type="curve"/>
      <point x="853" y="690" type="line"/>
      <point x="855" y="694"/>
      <point x="856" y="695"/>
      <point x="860" y="691" type="curve" smooth="yes"/>
      <point x="978" y="575"/>
      <point x="1138" y="376"/>
      <point x="1144" y="239" type="curve" smooth="yes"/>
      <point x="1144" y="234"/>
      <point x="1142" y="233"/>
      <point x="1137" y="234" type="curve" smooth="yes"/>
    </contour>
  </outline>
</glyph>
<glyph name="tehMarbutagoal-ar" format="1">
  <advance width="1068"/>
  <unicode hex="06C3"/>
  <outline>
    <component base="heh-ar"/>
    <component base="twodotshorizontalabove-ar" xOffset="97" yOffset="275"/>
    <contour>
      <point x="481" y="-258" type="move" name="bottom"/>
    </contour>
  </outline>
</glyph>
<glyph name="tehMarbutagoal-ar" format="1">
  <advance width="1068"/>
  <unicode hex="06C3"/>
  <outline>
    <contour>
      <point x="481" y="-258" type="move" name="bottom"/>
    </contour>
    <component base="heh-ar"/>
    <component base="twodotshorizontalabove-ar" xOffset="97" yOffset="275"/>
  </outline>
</glyph>
<glyph name="wawTwodots-ar" format="1">
  <advance width="1069"/>
  <unicode hex="06CA"/>
  <outline>
    <component base="waw-ar"/>
    <component base="twodotshorizontalabove-ar" xOffset="232" yOffset="244"/>
    <contour>
      <point x="439" y="-694" type="move" name="bottom"/>
    </contour>
  </outline>
</glyph>
<glyph name="wawTwodots-ar" format="1">
  <advance width="1069"/>
  <unicode hex="06CA"/>
  <outline>
    <contour>
      <point x="439" y="-694" type="move" name="bottom"/>
    </contour>
    <component base="waw-ar"/>
    <component base="twodotshorizontalabove-ar" xOffset="232" yOffset="244"/>
  </outline>
</glyph>
<glyph name="ve-ar" format="1">
  <advance width="1069"/>
  <unicode hex="06CB"/>
  <outline>
    <contour>
      <point x="439" y="-694" type="move" name="bottom"/>
    </contour>
    <component base="waw-ar"/>
    <component base="threedotsupabove-ar" xOffset="258" yOffset="455"/>
  </outline>
</glyph>
<glyph name="yehTail-ar" format="1">
  <advance width="2007"/>
  <unicode hex="06CD"/>
  <outline>
    <contour>
      <point x="1359" y="-587"/>
      <point x="1872" y="-377"/>
      <point x="1872" y="-100" type="curve" smooth="yes"/>
      <point x="1872" y="-14"/>
      <point x="1828" y="17"/>
      <point x="1690" y="28" type="curve" smooth="yes"/>
      <point x="1383" y="59"/>
      <point x="1289" y="64"/>
      <point x="1289" y="137" type="curve" smooth="yes"/>
      <point x="1289" y="234"/>
      <point x="1533" y="478"/>
      <point x="1639" y="478" type="curve" smooth="yes"/>
      <point x="1667" y="478"/>
      <point x="1694" y="469"/>
      <point x="1725" y="452" type="curve" smooth="yes"/>
      <point x="1730" y="449"/>
      <point x="1734" y="448"/>
      <point x="1739" y="448" type="curve" smooth="yes"/>
      <point x="1748" y="448"/>
      <point x="1755" y="455"/>
      <point x="1761" y="467" type="curve" smooth="yes"/>
      <point x="1809" y="573" type="line" smooth="yes"/>
      <point x="1811" y="578"/>
      <point x="1812" y="583"/>
      <point x="1812" y="588" type="curve" smooth="yes"/>
      <point x="1812" y="594"/>
      <point x="1810" y="599"/>
      <point x="1806" y="606" type="curve" smooth="yes"/>
      <point x="1777" y="649"/>
      <point x="1720" y="674"/>
      <point x="1655" y="674" type="curve" smooth="yes"/>
      <point x="1433" y="674"/>
      <point x="1159" y="269"/>
      <point x="1159" y="37" type="curve" smooth="yes"/>
      <point x="1159" y="-79"/>
      <point x="1239" y="-131"/>
      <point x="1414" y="-148" type="curve" smooth="yes"/>
      <point x="1720" y="-178" type="line" smooth="yes"/>
      <point x="1723" y="-179"/>
      <point x="1726" y="-180"/>
      <point x="1726" y="-183" type="curve" smooth="yes"/>
      <point x="1726" y="-185"/>
      <point x="1725" y="-187"/>
      <point x="1722" y="-189" type="curve" smooth="yes"/>
      <point x="1529" y="-308"/>
      <point x="1291" y="-377"/>
      <point x="1083" y="-377" type="curve" smooth="yes"/>
      <point x="842" y="-377"/>
      <point x="727" y="-277"/>
      <point x="727" y="-71" type="curve" smooth="yes"/>
      <point x="727" y="17"/>
      <point x="742" y="107"/>
      <point x="742" y="172" type="curve" smooth="yes"/>
      <point x="742" y="234"/>
      <point x="732" y="277"/>
      <point x="681" y="275" type="curve"/>
      <point x="185" y="115" type="line"/>
      <point x="178" y="112"/>
      <point x="173" y="107"/>
      <point x="173" y="96" type="curve" smooth="yes"/>
      <point x="173" y="83"/>
      <point x="241" y="-39"/>
      <point x="346" y="-39" type="curve" smooth="yes"/>
      <point x="388" y="-39"/>
      <point x="444" y="-12"/>
      <point x="614" y="57" type="curve"/>
      <point x="604" y="-16"/>
      <point x="598" y="-83"/>
      <point x="598" y="-143" type="curve" smooth="yes"/>
      <point x="598" y="-448"/>
      <point x="743" y="-587"/>
      <point x="1055" y="-587" type="curve" smooth="yes"/>
    </contour>
    <contour>
      <point x="906" y="513" type="move" name="top"/>
    </contour>
    <contour>
      <point x="1057" y="-788" type="move" name="bottom"/>
    </contour>
  </outline>
</glyph>
<glyph name="yehTail-ar" format="1">
  <advance width="2090"/>
  <unicode hex="06CD"/>
  <outline>
    <contour>
      <point x="1101" y="-810" type="move" name="bottom"/>
    </contour>
    <contour>
      <point x="944" y="528" type="move" name="top"/>
    </contour>
    <contour>
      <point x="1950" y="-104" type="curve" smooth="yes"/>
      <point x="1950" y="-15"/>
      <point x="1904" y="18"/>
      <point x="1760" y="29" type="curve" smooth="yes"/>
      <point x="1441" y="61"/>
      <point x="1343" y="67"/>
      <point x="1343" y="143" type="curve" smooth="yes"/>
      <point x="1343" y="244"/>
      <point x="1597" y="498"/>
      <point x="1707" y="498" type="curve" smooth="yes"/>
      <point x="1736" y="498"/>
      <point x="1765" y="489"/>
      <point x="1797" y="471" type="curve" smooth="yes"/>
      <point x="1802" y="468"/>
      <point x="1806" y="467"/>
      <point x="1811" y="467" type="curve" smooth="yes"/>
      <point x="1821" y="467"/>
      <point x="1828" y="474"/>
      <point x="1834" y="486" type="curve" smooth="yes"/>
      <point x="1884" y="597" type="line" smooth="yes"/>
      <point x="1886" y="602"/>
      <point x="1888" y="607"/>
      <point x="1888" y="612" type="curve" smooth="yes"/>
      <point x="1888" y="619"/>
      <point x="1885" y="624"/>
      <point x="1881" y="631" type="curve" smooth="yes"/>
      <point x="1851" y="676"/>
      <point x="1792" y="702"/>
      <point x="1724" y="702" type="curve" smooth="yes"/>
      <point x="1493" y="702"/>
      <point x="1207" y="280"/>
      <point x="1207" y="39" type="curve" smooth="yes"/>
      <point x="1207" y="-82"/>
      <point x="1291" y="-136"/>
      <point x="1473" y="-154" type="curve" smooth="yes"/>
      <point x="1792" y="-185" type="line" smooth="yes"/>
      <point x="1795" y="-186"/>
      <point x="1798" y="-188"/>
      <point x="1798" y="-191" type="curve" smooth="yes"/>
      <point x="1798" y="-193"/>
      <point x="1797" y="-195"/>
      <point x="1794" y="-197" type="curve" smooth="yes"/>
      <point x="1593" y="-321"/>
      <point x="1345" y="-393"/>
      <point x="1128" y="-393" type="curve" smooth="yes"/>
      <point x="877" y="-393"/>
      <point x="757" y="-289"/>
      <point x="757" y="-74" type="curve" smooth="yes"/>
      <point x="757" y="18"/>
      <point x="773" y="111"/>
      <point x="773" y="179" type="curve" smooth="yes"/>
      <point x="773" y="244"/>
      <point x="762" y="289"/>
      <point x="709" y="286" type="curve"/>
      <point x="193" y="133" type="line"/>
      <point x="185" y="130"/>
      <point x="180" y="124"/>
      <point x="180" y="113" type="curve" smooth="yes"/>
      <point x="180" y="99"/>
      <point x="251" y="-28"/>
      <point x="360" y="-28" type="curve" smooth="yes"/>
      <point x="404" y="-28"/>
      <point x="462" y="0"/>
      <point x="640" y="59" type="curve"/>
      <point x="629" y="-17"/>
      <point x="623" y="-86"/>
      <point x="623" y="-149" type="curve" smooth="yes"/>
      <point x="623" y="-467"/>
      <point x="774" y="-611"/>
      <point x="1099" y="-611" type="curve" smooth="yes"/>
      <point x="1416" y="-611"/>
      <point x="1950" y="-393"/>
    </contour>
  </outline>
</glyph>
<glyph name="yehbarree-ar" format="1">
  <advance width="1880"/>
  <unicode hex="06D2"/>
  <outline>
    <contour>
      <point x="1739" y="-61" type="line"/>
      <point x="1739" y="93"/>
      <point x="1736" y="142"/>
      <point x="1619" y="142" type="curve" smooth="yes"/>
      <point x="464" y="143" type="line" smooth="yes"/>
      <point x="360" y="143"/>
      <point x="306" y="168"/>
      <point x="306" y="215" type="curve" smooth="yes"/>
      <point x="306" y="223"/>
      <point x="308" y="232"/>
      <point x="311" y="242" type="curve" smooth="yes"/>
      <point x="355" y="358"/>
      <point x="702" y="437"/>
      <point x="838" y="662" type="curve" smooth="yes"/>
      <point x="844" y="673"/>
      <point x="934" y="613"/>
      <point x="956" y="601" type="curve" smooth="yes"/>
      <point x="960" y="599"/>
      <point x="964" y="598"/>
      <point x="968" y="598" type="curve" smooth="yes"/>
      <point x="979" y="598"/>
      <point x="988" y="604"/>
      <point x="993" y="616" type="curve" smooth="yes"/>
      <point x="1044" y="727" type="line" smooth="yes"/>
      <point x="1046" y="731"/>
      <point x="1047" y="736"/>
      <point x="1047" y="740" type="curve" smooth="yes"/>
      <point x="1047" y="747"/>
      <point x="1045" y="754"/>
      <point x="1040" y="761" type="curve" smooth="yes"/>
      <point x="1012" y="802"/>
      <point x="919" y="866"/>
      <point x="857" y="866" type="curve" smooth="yes"/>
      <point x="846" y="866"/>
      <point x="836" y="864"/>
      <point x="828" y="860" type="curve" smooth="yes"/>
      <point x="749" y="820"/>
      <point x="768" y="736"/>
      <point x="544" y="609" type="curve" smooth="yes"/>
      <point x="391" y="522"/>
      <point x="291" y="447"/>
      <point x="228" y="300" type="curve" smooth="yes"/>
      <point x="196" y="228"/>
      <point x="180" y="166"/>
      <point x="180" y="115" type="curve" smooth="yes"/>
      <point x="180" y="0"/>
      <point x="259" y="-61"/>
      <point x="414" y="-61" type="curve" smooth="yes"/>
    </contour>
    <contour>
      <point x="850" y="1073" type="move" name="top"/>
    </contour>
    <contour>
      <point x="940" y="-260" type="move" name="bottom"/>
    </contour>
  </outline>
</glyph>
<glyph name="fullstop-ar" format="1">
  <advance width="667"/>
  <unicode hex="06D4"/>
  <outline>
    <contour>
      <point x="531" y="278" type="line" smooth="yes"/>
      <point x="538" y="278"/>
      <point x="544" y="283"/>
      <point x="545" y="289" type="curve"/>
      <point x="567" y="388" type="line"/>
      <point x="569" y="399"/>
      <point x="562" y="408"/>
      <point x="551" y="408" type="curve" smooth="yes"/>
      <point x="136" y="408" type="line" smooth="yes"/>
      <point x="129" y="408"/>
      <point x="123" y="403"/>
      <point x="122" y="397" type="curve"/>
      <point x="100" y="298" type="line"/>
      <point x="98" y="287"/>
      <point x="105" y="278"/>
      <point x="116" y="278" type="curve" smooth="yes"/>
    </contour>
  </outline>
</glyph>
<glyph name="sadLamAlefMaksuraabove-ar" format="1">
  <advance width="0"/>
  <unicode hex="06D6"/>
  <outline>
    <contour>
      <point x="1312" y="353" type="line"/>
      <point x="1332" y="354"/>
      <point x="1344" y="360"/>
      <point x="1349" y="372" type="curve"/>
      <point x="1365" y="420" type="line"/>
      <point x="1367" y="436"/>
      <point x="1355" y="438"/>
      <point x="1337" y="438" type="curve"/>
      <point x="246" y="412" type="line"/>
      <point x="182" y="412"/>
      <point x="127" y="416"/>
      <point x="66" y="430" type="curve" smooth="yes"/>
      <point x="61" y="431"/>
      <point x="61" y="432"/>
      <point x="62" y="438" type="curve" smooth="yes"/>
      <point x="98" y="531"/>
      <point x="191" y="561"/>
      <point x="298" y="584" type="curve" smooth="yes"/>
      <point x="309" y="587"/>
      <point x="317" y="592"/>
      <point x="322" y="603" type="curve" smooth="yes"/>
      <point x="343" y="640" type="line" smooth="yes"/>
      <point x="345" y="644"/>
      <point x="346" y="644"/>
      <point x="348" y="639" type="curve" smooth="yes"/>
      <point x="377" y="586"/>
      <point x="429" y="558"/>
      <point x="480" y="558" type="curve" smooth="yes"/>
      <point x="519" y="558"/>
      <point x="558" y="574"/>
      <point x="587" y="607" type="curve" smooth="yes"/>
      <point x="589" y="612"/>
      <point x="591" y="612"/>
      <point x="597" y="610" type="curve" smooth="yes"/>
      <point x="646" y="589"/>
      <point x="714" y="577"/>
      <point x="778" y="577" type="curve" smooth="yes"/>
      <point x="908" y="577"/>
      <point x="1075" y="633"/>
      <point x="1075" y="741" type="curve" smooth="yes"/>
      <point x="1075" y="803"/>
      <point x="973" y="887"/>
      <point x="900" y="888" type="curve" smooth="yes"/>
      <point x="838" y="888"/>
      <point x="779" y="840"/>
      <point x="651" y="687" type="curve" smooth="yes"/>
      <point x="649" y="684"/>
      <point x="647" y="683"/>
      <point x="644" y="684" type="curve"/>
      <point x="600" y="697" type="line"/>
      <point x="591" y="698"/>
      <point x="584" y="693"/>
      <point x="578" y="685" type="curve" smooth="yes"/>
      <point x="556" y="656"/>
      <point x="528" y="641"/>
      <point x="497" y="641" type="curve" smooth="yes"/>
      <point x="381" y="641"/>
      <point x="363" y="778"/>
      <point x="358" y="936" type="curve"/>
      <point x="342" y="1187" type="line"/>
      <point x="341" y="1189"/>
      <point x="336" y="1191"/>
      <point x="333" y="1191" type="curve" smooth="yes"/>
      <point x="327" y="1191"/>
      <point x="321" y="1188"/>
      <point x="313" y="1182" type="curve" smooth="yes"/>
      <point x="282" y="1157" type="line" smooth="yes"/>
      <point x="272" y="1148"/>
      <point x="268" y="1139"/>
      <point x="269" y="1128" type="curve" smooth="yes"/>
      <point x="296" y="672" type="line" smooth="yes"/>
      <point x="297" y="666"/>
      <point x="295" y="664"/>
      <point x="289" y="663" type="curve" smooth="yes"/>
      <point x="159" y="635"/>
      <point x="47" y="601"/>
      <point x="3" y="423" type="curve" smooth="yes"/>
      <point x="1" y="417"/>
      <point x="0" y="410"/>
      <point x="0" y="403" type="curve" smooth="yes"/>
      <point x="0" y="337"/>
      <point x="100" y="326"/>
      <point x="205" y="326" type="curve"/>
    </contour>
    <contour>
      <point x="691" y="661"/>
      <point x="690" y="661"/>
      <point x="696" y="667" type="curve" smooth="yes"/>
      <point x="782" y="769"/>
      <point x="831" y="806"/>
      <point x="874" y="806" type="curve" smooth="yes"/>
      <point x="934" y="806"/>
      <point x="987" y="750"/>
      <point x="1011" y="721" type="curve"/>
      <point x="1016" y="717"/>
      <point x="1016" y="714"/>
      <point x="1009" y="711" type="curve" smooth="yes"/>
      <point x="933" y="672"/>
      <point x="863" y="656"/>
      <point x="781" y="656" type="curve"/>
      <point x="698" y="660" type="line"/>
    </contour>
    <contour>
      <point x="678" y="1419" type="move" name="top"/>
    </contour>
    <contour>
      <point x="678" y="336" type="move" name="_top"/>
    </contour>
  </outline>
</glyph>
<glyph name="sadLamAlefMaksuraabove-ar" format="1">
  <advance width="0"/>
  <unicode hex="06D6"/>
  <outline>
    <contour>
      <point x="706" y="350" type="move" name="_top"/>
    </contour>
    <contour>
      <point x="706" y="1478" type="move" name="top"/>
    </contour>
    <contour>
      <point x="1367" y="368" type="line"/>
      <point x="1388" y="369"/>
      <point x="1400" y="375"/>
      <point x="1405" y="388" type="curve"/>
      <point x="1422" y="438" type="line"/>
      <point x="1424" y="454"/>
      <point x="1411" y="456"/>
      <point x="1393" y="456" type="curve"/>
      <point x="256" y="429" type="line"/>
      <point x="190" y="429"/>
      <point x="132" y="433"/>
      <point x="69" y="448" type="curve" smooth="yes"/>
      <point x="64" y="449"/>
      <point x="64" y="450"/>
      <point x="65" y="456" type="curve" smooth="yes"/>
      <point x="102" y="553"/>
      <point x="199" y="584"/>
      <point x="310" y="608" type="curve" smooth="yes"/>
      <point x="322" y="611"/>
      <point x="330" y="617"/>
      <point x="335" y="628" type="curve" smooth="yes"/>
      <point x="357" y="667" type="line" smooth="yes"/>
      <point x="359" y="671"/>
      <point x="360" y="671"/>
      <point x="362" y="666" type="curve" smooth="yes"/>
      <point x="393" y="610"/>
      <point x="447" y="581"/>
      <point x="500" y="581" type="curve" smooth="yes"/>
      <point x="541" y="581"/>
      <point x="581" y="598"/>
      <point x="611" y="632" type="curve" smooth="yes"/>
      <point x="614" y="637"/>
      <point x="616" y="637"/>
      <point x="622" y="635" type="curve" smooth="yes"/>
      <point x="673" y="614"/>
      <point x="744" y="601"/>
      <point x="810" y="601" type="curve" smooth="yes"/>
      <point x="946" y="601"/>
      <point x="1120" y="659"/>
      <point x="1120" y="772" type="curve" smooth="yes"/>
      <point x="1120" y="836"/>
      <point x="1014" y="924"/>
      <point x="938" y="925" type="curve" smooth="yes"/>
      <point x="873" y="925"/>
      <point x="811" y="875"/>
      <point x="678" y="716" type="curve" smooth="yes"/>
      <point x="676" y="713"/>
      <point x="674" y="711"/>
      <point x="671" y="712" type="curve"/>
      <point x="625" y="726" type="line"/>
      <point x="616" y="727"/>
      <point x="608" y="722"/>
      <point x="602" y="714" type="curve" smooth="yes"/>
      <point x="579" y="683"/>
      <point x="550" y="668"/>
      <point x="518" y="668" type="curve" smooth="yes"/>
      <point x="397" y="668"/>
      <point x="378" y="810"/>
      <point x="373" y="975" type="curve"/>
      <point x="356" y="1236" type="line"/>
      <point x="355" y="1239"/>
      <point x="350" y="1241"/>
      <point x="347" y="1241" type="curve" smooth="yes"/>
      <point x="341" y="1241"/>
      <point x="334" y="1237"/>
      <point x="326" y="1231" type="curve" smooth="yes"/>
      <point x="294" y="1205" type="line" smooth="yes"/>
      <point x="283" y="1196"/>
      <point x="279" y="1186"/>
      <point x="280" y="1175" type="curve" smooth="yes"/>
      <point x="308" y="700" type="line" smooth="yes"/>
      <point x="309" y="694"/>
      <point x="307" y="692"/>
      <point x="301" y="691" type="curve" smooth="yes"/>
      <point x="166" y="661"/>
      <point x="49" y="626"/>
      <point x="3" y="441" type="curve" smooth="yes"/>
      <point x="1" y="434"/>
      <point x="0" y="427"/>
      <point x="0" y="420" type="curve" smooth="yes"/>
      <point x="0" y="351"/>
      <point x="104" y="340"/>
      <point x="214" y="340" type="curve"/>
    </contour>
    <contour>
      <point x="725" y="695" type="curve" smooth="yes"/>
      <point x="815" y="801"/>
      <point x="866" y="840"/>
      <point x="910" y="840" type="curve" smooth="yes"/>
      <point x="973" y="840"/>
      <point x="1028" y="781"/>
      <point x="1053" y="751" type="curve"/>
      <point x="1058" y="747"/>
      <point x="1058" y="744"/>
      <point x="1051" y="741" type="curve" smooth="yes"/>
      <point x="972" y="700"/>
      <point x="899" y="683"/>
      <point x="814" y="683" type="curve"/>
      <point x="727" y="688" type="line"/>
      <point x="720" y="689"/>
      <point x="719" y="689"/>
    </contour>
  </outline>
</glyph>
<glyph name="qafLamAlefMaksuraabove-ar" format="1">
  <advance width="0"/>
  <unicode hex="06D7"/>
  <outline>
    <contour>
      <point x="293" y="311"/>
      <point x="705" y="328"/>
      <point x="865" y="338" type="curve" smooth="yes"/>
      <point x="888" y="339"/>
      <point x="898" y="345"/>
      <point x="903" y="357" type="curve" smooth="yes"/>
      <point x="916" y="384" type="line" smooth="yes"/>
      <point x="920" y="393"/>
      <point x="922" y="398"/>
      <point x="922" y="403" type="curve" smooth="yes"/>
      <point x="922" y="413"/>
      <point x="912" y="422"/>
      <point x="896" y="422" type="curve" smooth="yes"/>
      <point x="871" y="422"/>
      <point x="522" y="396"/>
      <point x="265" y="396" type="curve" smooth="yes"/>
      <point x="192" y="396"/>
      <point x="121" y="400"/>
      <point x="60" y="416" type="curve"/>
      <point x="95" y="514"/>
      <point x="230" y="545"/>
      <point x="342" y="568" type="curve" smooth="yes"/>
      <point x="353" y="571"/>
      <point x="361" y="577"/>
      <point x="366" y="588" type="curve" smooth="yes"/>
      <point x="389" y="631" type="line"/>
      <point x="422" y="571"/>
      <point x="499" y="543"/>
      <point x="576" y="543" type="curve" smooth="yes"/>
      <point x="680" y="543"/>
      <point x="784" y="593"/>
      <point x="790" y="684" type="curve"/>
      <point x="797" y="842"/>
      <point x="741" y="1037"/>
      <point x="621" y="1037" type="curve" smooth="yes"/>
      <point x="531" y="1037"/>
      <point x="487" y="895"/>
      <point x="487" y="805" type="curve" smooth="yes"/>
      <point x="487" y="729"/>
      <point x="549" y="705"/>
      <point x="614" y="705" type="curve" smooth="yes"/>
      <point x="658" y="705"/>
      <point x="702" y="715"/>
      <point x="731" y="728" type="curve"/>
      <point x="730" y="658" type="line"/>
      <point x="695" y="639"/>
      <point x="647" y="628"/>
      <point x="598" y="628" type="curve" smooth="yes"/>
      <point x="527" y="628"/>
      <point x="456" y="652"/>
      <point x="430" y="712" type="curve" smooth="yes"/>
      <point x="417" y="744"/>
      <point x="410" y="783"/>
      <point x="394" y="1146" type="curve" smooth="yes"/>
      <point x="393" y="1164"/>
      <point x="384" y="1174"/>
      <point x="374" y="1174" type="curve" smooth="yes"/>
      <point x="372" y="1174"/>
      <point x="369" y="1173"/>
      <point x="366" y="1171" type="curve" smooth="yes"/>
      <point x="326" y="1141" type="line" smooth="yes"/>
      <point x="320" y="1137"/>
      <point x="313" y="1131"/>
      <point x="313" y="1116" type="curve"/>
      <point x="341" y="650" type="line"/>
      <point x="205" y="621"/>
      <point x="47" y="589"/>
      <point x="3" y="408" type="curve" smooth="yes"/>
      <point x="1" y="401"/>
      <point x="0" y="395"/>
      <point x="0" y="388" type="curve" smooth="yes"/>
      <point x="0" y="319"/>
      <point x="108" y="311"/>
      <point x="221" y="311" type="curve" smooth="yes"/>
    </contour>
    <contour>
      <point x="721" y="794"/>
      <point x="679" y="787"/>
      <point x="633" y="787" type="curve" smooth="yes"/>
      <point x="600" y="787"/>
      <point x="565" y="790"/>
      <point x="542" y="803" type="curve"/>
      <point x="543" y="879"/>
      <point x="573" y="943"/>
      <point x="607" y="943" type="curve" smooth="yes"/>
      <point x="663" y="943"/>
      <point x="702" y="876"/>
      <point x="722" y="791" type="curve"/>
    </contour>
    <contour>
      <point x="466" y="1415" type="move" name="top"/>
    </contour>
    <contour>
      <point x="456" y="311" type="move" name="_top"/>
    </contour>
  </outline>
</glyph>
<glyph name="qafLamAlefMaksuraabove-ar" format="1">
  <advance width="0"/>
  <unicode hex="06D7"/>
  <outline>
    <contour>
      <point x="411" y="1334" type="move" name="_top"/>
    </contour>
    <contour>
      <point x="411" y="2210" type="move" name="top"/>
    </contour>
    <contour>
      <point x="773" y="1358" type="curve" smooth="yes"/>
      <point x="789" y="1359"/>
      <point x="798" y="1362"/>
      <point x="801" y="1370" type="curve"/>
      <point x="812" y="1395" type="line"/>
      <point x="815" y="1403"/>
      <point x="817" y="1407"/>
      <point x="815" y="1409" type="curve"/>
      <point x="810" y="1416"/>
      <point x="805" y="1418"/>
      <point x="797" y="1417" type="curve"/>
      <point x="670" y="1407"/>
      <point x="482" y="1399"/>
      <point x="349" y="1396" type="curve" smooth="yes"/>
      <point x="240" y="1394"/>
      <point x="125" y="1389"/>
      <point x="34" y="1414" type="curve"/>
      <point x="62" y="1514"/>
      <point x="194" y="1545"/>
      <point x="298" y="1567" type="curve"/>
      <point x="306" y="1568"/>
      <point x="311" y="1572"/>
      <point x="314" y="1579" type="curve"/>
      <point x="343" y="1634" type="line"/>
      <point x="393" y="1508"/>
      <point x="655" y="1513"/>
      <point x="671" y="1664" type="curve" smooth="yes"/>
      <point x="681" y="1769"/>
      <point x="628" y="1930"/>
      <point x="553" y="1930" type="curve" smooth="yes"/>
      <point x="477" y="1930"/>
      <point x="440" y="1809"/>
      <point x="440" y="1730" type="curve" smooth="yes"/>
      <point x="440" y="1615"/>
      <point x="580" y="1642"/>
      <point x="635" y="1674" type="curve"/>
      <point x="634" y="1634" type="line"/>
      <point x="557" y="1590"/>
      <point x="415" y="1585"/>
      <point x="372" y="1685" type="curve" smooth="yes"/>
      <point x="359" y="1715"/>
      <point x="353" y="1752"/>
      <point x="338" y="2082" type="curve"/>
      <point x="337" y="2090"/>
      <point x="335" y="2099"/>
      <point x="327" y="2097" type="curve"/>
      <point x="324" y="2096"/>
      <point x="321" y="2095"/>
      <point x="318" y="2092" type="curve"/>
      <point x="291" y="2070" type="line" smooth="yes"/>
      <point x="285" y="2065"/>
      <point x="283" y="2060"/>
      <point x="283" y="2052" type="curve"/>
      <point x="308" y="1625" type="line"/>
      <point x="184" y="1598"/>
      <point x="41" y="1573"/>
      <point x="2" y="1411" type="curve" smooth="yes"/>
      <point x="-10" y="1360"/>
      <point x="35" y="1345"/>
      <point x="86" y="1339" type="curve" smooth="yes"/>
      <point x="158" y="1330"/>
      <point x="261" y="1335"/>
      <point x="341" y="1338" type="curve" smooth="yes"/>
      <point x="427" y="1342"/>
      <point x="601" y="1348"/>
    </contour>
    <contour>
      <point x="473" y="1722" type="curve"/>
      <point x="473" y="1788"/>
      <point x="497" y="1863"/>
      <point x="540" y="1863" type="curve" smooth="yes"/>
      <point x="578" y="1863"/>
      <point x="613" y="1776"/>
      <point x="627" y="1718" type="curve"/>
      <point x="628" y="1715"/>
      <point x="527" y="1690"/>
    </contour>
  </outline>
</glyph>
